{
.appVersion = "1349";
DisplayStrings = (
"0/zero.osf 1/one.osf 2/two.osf 3/three.osf 4/four.osf 5/five.osf 6/six.osf 7/seven.osf 8/eight.osf 9/nine.osf"
);
classes = (
{
automatic = 1;
code = "A Aacute Abreve Abreveacute Abrevedotbelow Abrevegrave Abrevehookabove Abrevetilde Acaron Acircumflex Acircumflexacute Acircumflexdotbelow Acircumflexgrave Acircumflexhookabove Acircumflextilde Adieresis Adotbelow Agrave Ahookabove Ainvertedbreve Amacron Aogonek Aring Aringacute Atilde AE AEacute B C Cacute Ccaron Ccedilla Ccircumflex Cdotaccent D Eth Dcaron Dcroat E Eacute Ebreve Ecaron Ecircumflex Ecircumflexacute Ecircumflexdotbelow Ecircumflexgrave Ecircumflexhookabove Ecircumflextilde Edieresis Edotaccent Edotbelow Egrave Ehookabove Einvertedbreve Emacron Eogonek Etilde F G Gbreve Gcaron Gcircumflex Gcommaaccent Gdotaccent H Hbar Hcircumflex I Iacute Ibreve Icaron Icircumflex Idieresis Idotaccent Idotbelow Igrave Ihookabove Iinvertedbreve Imacron Iogonek Itilde J J.ss01 Jcircumflex K Kcommaaccent L Lacute Lcaron Lcommaaccent Ldot Lslash M N Nacute Ncaron Ncommaaccent Eng Ntilde O Oacute Obreve Ocaron Ocircumflex Ocircumflexacute Ocircumflexdotbelow Ocircumflexgrave Ocircumflexhookabove Ocircumflextilde Odieresis Odieresismacron Odotaccentmacron Odotbelow Ograve Ohookabove Ohorn Ohornacute Ohorndotbelow Ohorngrave Ohornhookabove Ohorntilde Ohungarumlaut Oinvertedbreve Omacron Oogonek Oslash Oslashacute Otilde Otildemacron OE P Thorn Q R Racute Rcaron Rcommaaccent Rinvertedbreve S Sacute Scaron Scedilla Scircumflex Scommaaccent Germandbls T Tbar Tcaron Tcedilla Tcommaaccent U Uacute Ubreve Ucaron Ucircumflex Udieresis Udieresisacute Udieresiscaron Udieresisgrave Udieresismacron Udotbelow Ugrave Uhookabove Uhorn Uhornacute Uhorndotbelow Uhorngrave Uhornhookabove Uhorntilde Uhungarumlaut Uinvertedbreve Umacron Uogonek Uring Utilde V W Wacute Wcircumflex Wdieresis Wgrave X Y Yacute Ycircumflex Ydieresis Ydotbelow Ygrave Yhookabove Ymacron Ytilde Z Zacute Zcaron Zdotaccent";

glyphs = (
{
glyphname = A;
lastChange = "2020-11-04 18:32:43 +0000";
layers = (
{
anchors = (
{
name = bottom;
position = "{723, 0}";
},
{
name = ogonek;
position = "{1376, 0}";
},
{
name = top;
position = "{713, 1400}";
}
);
layerId = "14A1E899-FED4-4F52-86F4-A1F822586E10";
paths = (
{
closed = 1;
nodes = (
"436 0 LINE",
"436 64 LINE",
"322 64 OFFCURVE",
"287 65 OFFCURVE",
"287 102 CURVE SMOOTH",
"287 121 OFFCURVE",
"293 137 OFFCURVE",
"302 161 CURVE SMOOTH",
"408 440 LINE",
"978 440 LINE",
"1087 152 LINE SMOOTH",
"1097 126 OFFCURVE",
"1103 100 OFFCURVE",
"1103 85 CURVE SMOOTH",
"1103 64 OFFCURVE",
"1087 64 OFFCURVE",
"967 64 CURVE",
"967 0 LINE",
"1376 0 LINE",
"1376 64 LINE",
"1268 64 OFFCURVE",
"1247 71 OFFCURVE",
"1208 171 CURVE SMOOTH",
"729 1410 LINE",
"699 1410 LINE",
"681 1385 OFFCURVE",
"656 1358 OFFCURVE",
"628 1343 CURVE",
"651 1290 LINE",
"214 161 LINE SMOOTH",
"183 80 OFFCURVE",
"163 64 OFFCURVE",
"25 64 CURVE",
"25 0 LINE"
);
},
{
closed = 1;
nodes = (
"690 1190 LINE",
"954 508 LINE",
"433 508 LINE"
);
}
);
width = 1398;
},
{
anchors = (
{
name = bottom;
position = "{776, 0}";
},
{
name = ogonek;
position = "{1537, 0}";
},
{
name = top;
position = "{826, 1400}";
}
);
layerId = "72F22432-F665-4153-96BB-74D91BCC5F28";
paths = (
{
closed = 1;
nodes = (
"468 0 LINE",
"468 64 LINE",
"369 64 OFFCURVE",
"346 86 OFFCURVE",
"346 128 CURVE SMOOTH",
"346 146 OFFCURVE",
"355 173 OFFCURVE",
"365 201 CURVE SMOOTH",
"467 475 LINE",
"931 475 LINE",
"1043 197 LINE SMOOTH",
"1053 172 OFFCURVE",
"1059 145 OFFCURVE",
"1059 129 CURVE SMOOTH",
"1059 78 OFFCURVE",
"1036 64 OFFCURVE",
"955 64 CURVE",
"955 0 LINE",
"1537 0 LINE",
"1537 64 LINE",
"1520 64 OFFCURVE",
"1409 87 OFFCURVE",
"1357 218 CURVE SMOOTH",
"887 1410 LINE",
"834 1410 LINE",
"797 1331 OFFCURVE",
"676 1249 OFFCURVE",
"611 1205 CURVE",
"633 1159 LINE",
"264 222 LINE SMOOTH",
"215 97 OFFCURVE",
"122 64 OFFCURVE",
"24 64 CURVE",
"24 0 LINE"
);
},
{
closed = 1;
nodes = (
"695 1061 LINE",
"903 543 LINE",
"494 543 LINE"
);
}
);
width = 1561;
}
);
leftKerningGroup = A;
rightKerningGroup = A;
unicode = 0041;
},
{
glyphname = AE;
lastChange = "2020-10-13 20:24:18 +0000";
layers = (
{
anchors = (
{
name = bottom;
position = "{1060, 0}";
},
{
name = top;
position = "{1060, 1400}";
}
);
components = (
{
name = E;
transform = "{1, 0, 0, 1, 741, 0}";
}
);
layerId = "14A1E899-FED4-4F52-86F4-A1F822586E10";
paths = (
{
closed = 1;
nodes = (
"1096 1336 LINE",
"1005 1336 LINE",
"226 153 LINE SMOOTH",
"169 66 OFFCURVE",
"140 54 OFFCURVE",
"25 54 CURVE",
"25 -10 LINE",
"460 -10 LINE",
"460 54 LINE",
"351 54 OFFCURVE",
"306 57 OFFCURVE",
"306 97 CURVE SMOOTH",
"306 114 OFFCURVE",
"322 146 OFFCURVE",
"340 174 CURVE SMOOTH"
);
},
{
closed = 1;
nodes = (
"469 430 LINE",
"1115 430 LINE",
"1115 495 LINE",
"489 495 LINE"
);
}
);
width = 2014;
},
{
anchors = (
{
name = bottom;
position = "{1007, 0}";
},
{
name = top;
position = "{1007, 1400}";
}
);
components = (
{
name = E;
transform = "{1, 0, 0, 1, 704, 0}";
}
);
layerId = "72F22432-F665-4153-96BB-74D91BCC5F28";
paths = (
{
closed = 1;
nodes = (
"1052 1336 LINE",
"955 1336 LINE",
"254 211 LINE SMOOTH",
"192 112 OFFCURVE",
"143 54 OFFCURVE",
"24 54 CURVE",
"24 -10 LINE",
"448 -10 LINE",
"448 54 LINE",
"344 54 OFFCURVE",
"330 75 OFFCURVE",
"330 115 CURVE SMOOTH",
"330 129 OFFCURVE",
"317 146 OFFCURVE",
"334 174 CURVE SMOOTH"
);
},
{
closed = 1;
nodes = (
"482 483 LINE",
"1095 483 LINE",
"1095 548 LINE",
"501 548 LINE"
);
}
);
width = 2176;
}
);
leftKerningGroup = A;
leftMetricsKey = A;
rightKerningGroup = E;
rightMetricsKey = E;
unicode = 00C6;
},
{
glyphname = B;
lastChange = "2020-10-13 20:21:42 +0000";
layers = (
{
anchors = (
{
name = bottom;
position = "{612, 0}";
},
{
name = top;
position = "{612, 1400}";
}
);
layerId = "14A1E899-FED4-4F52-86F4-A1F822586E10";
paths = (
{
closed = 1;
nodes = (
"692 0 LINE SMOOTH",
"1006 0 OFFCURVE",
"1214 146 OFFCURVE",
"1214 378 CURVE SMOOTH",
"1214 632 OFFCURVE",
"998 725 OFFCURVE",
"794 725 CURVE",
"952 725 OFFCURVE",
"1149 832 OFFCURVE",
"1149 1056 CURVE SMOOTH",
"1149 1298 OFFCURVE",
"929 1400 OFFCURVE",
"697 1400 CURVE SMOOTH",
"100 1400 LINE",
"100 1336 LINE",
"250 1336 OFFCURVE",
"282 1332 OFFCURVE",
"282 1274 CURVE SMOOTH",
"282 134 LINE SMOOTH",
"282 66 OFFCURVE",
"250 64 OFFCURVE",
"100 64 CURVE",
"100 0 LINE"
);
},
{
closed = 1;
nodes = (
"397 692 LINE",
"673 692 LINE SMOOTH",
"923 692 OFFCURVE",
"1068 595 OFFCURVE",
"1068 377 CURVE SMOOTH",
"1068 169 OFFCURVE",
"916 64 OFFCURVE",
"673 64 CURVE SMOOTH",
"397 64 LINE"
);
},
{
closed = 1;
nodes = (
"397 1336 LINE",
"682 1336 LINE SMOOTH",
"903 1336 OFFCURVE",
"1013 1244 OFFCURVE",
"1013 1050 CURVE SMOOTH",
"1013 854 OFFCURVE",
"912 758 OFFCURVE",
"659 758 CURVE SMOOTH",
"397 758 LINE"
);
}
);
width = 1274;
},
{
anchors = (
{
name = bottom;
position = "{742, 0}";
},
{
name = top;
position = "{742, 1400}";
}
);
layerId = "72F22432-F665-4153-96BB-74D91BCC5F28";
paths = (
{
closed = 1;
nodes = (
"842 0 LINE SMOOTH",
"1176 0 OFFCURVE",
"1386 164 OFFCURVE",
"1386 396 CURVE SMOOTH",
"1386 667 OFFCURVE",
"1144 737 OFFCURVE",
"933 737 CURVE",
"1047 737 OFFCURVE",
"1324 829 OFFCURVE",
"1324 1071 CURVE SMOOTH",
"1324 1313 OFFCURVE",
"1060 1400 OFFCURVE",
"787 1400 CURVE SMOOTH",
"95 1400 LINE",
"95 1336 LINE",
"238 1336 OFFCURVE",
"268 1332 OFFCURVE",
"268 1239 CURVE SMOOTH",
"268 169 LINE SMOOTH",
"268 84 OFFCURVE",
"238 64 OFFCURVE",
"95 64 CURVE",
"95 0 LINE"
);
},
{
closed = 1;
nodes = (
"538 692 LINE",
"818 692 LINE SMOOTH",
"962 692 OFFCURVE",
"1050 572 OFFCURVE",
"1050 374 CURVE SMOOTH",
"1050 180 OFFCURVE",
"972 64 OFFCURVE",
"824 64 CURVE SMOOTH",
"538 64 LINE"
);
},
{
closed = 1;
nodes = (
"538 1336 LINE",
"755 1336 LINE SMOOTH",
"926 1336 OFFCURVE",
"1016 1226 OFFCURVE",
"1016 1058 CURVE SMOOTH",
"1016 894 OFFCURVE",
"952 758 OFFCURVE",
"805 758 CURVE SMOOTH",
"538 758 LINE"
);
}
);
width = 1441;
}
);
leftKerningGroup = H;
leftMetricsKey = H;
rightKerningGroup = O;
rightMetricsKey = "=O-40";
unicode = 0042;
},
{
glyphname = C;
lastChange = "2020-11-04 18:08:00 +0000";
layers = (
{
anchors = (
{
name = bottom;
position = "{733, 0}";
},
{
name = top;
position = "{733, 1400}";
}
);
layerId = "14A1E899-FED4-4F52-86F4-A1F822586E10";
paths = (
{
closed = 1;
nodes = (
"999 -22 OFFCURVE",
"1121 71 OFFCURVE",
"1298 234 CURVE",
"1246 287 LINE",
"1102 157 OFFCURVE",
"988 60 OFFCURVE",
"814 60 CURVE SMOOTH",
"529 60 OFFCURVE",
"239 251 OFFCURVE",
"239 719 CURVE SMOOTH",
"239 1137 OFFCURVE",
"469 1350 OFFCURVE",
"754 1350 CURVE SMOOTH",
"988 1350 OFFCURVE",
"1138 1240 OFFCURVE",
"1179 938 CURVE",
"1225 938 LINE",
"1236 1291 LINE",
"1196 1314 OFFCURVE",
"992 1416 OFFCURVE",
"763 1416 CURVE SMOOTH",
"413 1416 OFFCURVE",
"100 1158 OFFCURVE",
"100 706 CURVE SMOOTH",
"100 244 OFFCURVE",
"433 -22 OFFCURVE",
"783 -22 CURVE SMOOTH"
);
}
);
width = 1398;
},
{
anchors = (
{
name = bottom;
position = "{804, 0}";
},
{
name = top;
position = "{804, 1400}";
}
);
layerId = "72F22432-F665-4153-96BB-74D91BCC5F28";
paths = (
{
closed = 1;
nodes = (
"1145 -22 OFFCURVE",
"1262 71 OFFCURVE",
"1430 234 CURVE",
"1380 289 LINE",
"1244 159 OFFCURVE",
"1139 60 OFFCURVE",
"881 60 CURVE SMOOTH",
"503 60 OFFCURVE",
"428 494 OFFCURVE",
"428 752 CURVE SMOOTH",
"428 1047 OFFCURVE",
"487 1359 OFFCURVE",
"865 1359 CURVE SMOOTH",
"1059 1359 OFFCURVE",
"1208 1214 OFFCURVE",
"1233 951 CURVE",
"1366 951 LINE",
"1400 1288 LINE",
"1307 1368 OFFCURVE",
"1101 1425 OFFCURVE",
"848 1425 CURVE SMOOTH",
"408 1425 OFFCURVE",
"95 1136 OFFCURVE",
"95 692 CURVE SMOOTH",
"95 255 OFFCURVE",
"412 -22 OFFCURVE",
"851 -22 CURVE SMOOTH"
);
}
);
width = 1525;
}
);
leftKerningGroup = O;
leftMetricsKey = O;
rightKerningGroup = C;
unicode = 0043;
},
{
glyphname = D;
lastChange = "2020-10-13 20:10:10 +0000";
layers = (
{
anchors = (
{
name = bottom;
position = "{669, 0}";
},
{
name = center;
position = "{669, 700}";
},
{
name = top;
position = "{669, 1400}";
}
);
layerId = "14A1E899-FED4-4F52-86F4-A1F822586E10";
paths = (
{
closed = 1;
nodes = (
"551 0 LINE SMOOTH",
"973 0 OFFCURVE",
"1314 246 OFFCURVE",
"1314 702 CURVE SMOOTH",
"1314 1154 OFFCURVE",
"995 1400 OFFCURVE",
"573 1400 CURVE SMOOTH",
"100 1400 LINE",
"100 1336 LINE",
"245 1336 OFFCURVE",
"284 1334 OFFCURVE",
"284 1274 CURVE SMOOTH",
"284 138 LINE SMOOTH",
"284 70 OFFCURVE",
"247 64 OFFCURVE",
"100 64 CURVE",
"100 0 LINE"
);
},
{
closed = 1;
nodes = (
"400 1336 LINE",
"574 1336 LINE SMOOTH",
"995 1336 OFFCURVE",
"1179 1060 OFFCURVE",
"1179 702 CURVE SMOOTH",
"1179 326 OFFCURVE",
"960 64 OFFCURVE",
"551 64 CURVE SMOOTH",
"400 64 LINE"
);
}
);
width = 1414;
},
{
anchors = (
{
name = bottom;
position = "{796, 0}";
},
{
name = center;
position = "{796, 700}";
},
{
name = top;
position = "{796, 1400}";
}
);
layerId = "72F22432-F665-4153-96BB-74D91BCC5F28";
paths = (
{
closed = 1;
nodes = (
"684 0 LINE SMOOTH",
"1156 0 OFFCURVE",
"1463 246 OFFCURVE",
"1463 702 CURVE SMOOTH",
"1463 1154 OFFCURVE",
"1141 1400 OFFCURVE",
"669 1400 CURVE SMOOTH",
"95 1400 LINE",
"95 1336 LINE",
"233 1336 OFFCURVE",
"270 1334 OFFCURVE",
"270 1239 CURVE SMOOTH",
"270 173 LINE SMOOTH",
"270 88 OFFCURVE",
"235 64 OFFCURVE",
"95 64 CURVE",
"95 0 LINE"
);
},
{
closed = 1;
nodes = (
"541 1336 LINE",
"706 1336 LINE SMOOTH",
"1066 1336 OFFCURVE",
"1120 994 OFFCURVE",
"1120 702 CURVE SMOOTH",
"1120 358 OFFCURVE",
"1053 64 OFFCURVE",
"684 64 CURVE SMOOTH",
"541 64 LINE"
);
}
);
width = 1558;
}
);
leftKerningGroup = H;
leftMetricsKey = H;
rightKerningGroup = O;
rightMetricsKey = O;
unicode = 0044;
},
{
glyphname = Eth;
lastChange = "2020-10-13 20:11:19 +0000";
layers = (
{
components = (
{
name = D;
}
);
layerId = "14A1E899-FED4-4F52-86F4-A1F822586E10";
paths = (
{
closed = 1;
nodes = (
"816 664 LINE",
"816 736 LINE",
"114 736 LINE",
"114 664 LINE"
);
}
);
width = 1414;
},
{
components = (
{
name = D;
}
);
layerId = "72F22432-F665-4153-96BB-74D91BCC5F28";
paths = (
{
closed = 1;
nodes = (
"775 655 LINE",
"775 745 LINE",
"108 745 LINE",
"108 655 LINE"
);
}
);
width = 1558;
}
);
leftKerningGroup = D;
leftMetricsKey = D;
rightKerningGroup = D;
rightMetricsKey = D;
unicode = 00D0;
},
{
glyphname = E;
lastChange = "2020-10-14 21:23:48 +0000";
layers = (
{
anchors = (
{
name = bottom;
position = "{653, 0}";
},
{
name = ogonek;
position = "{1145, 0}";
},
{
name = top;
position = "{653, 1400}";
},
{
name = topleft;
position = "{-9, 1400}";
}
);
layerId = "14A1E899-FED4-4F52-86F4-A1F822586E10";
paths = (
{
closed = 1;
nodes = (
"712 703 LINE SMOOTH",
"838 703 OFFCURVE",
"851 652 OFFCURVE",
"851 526 CURVE",
"925 526 LINE",
"925 934 LINE",
"851 934 LINE",
"851 826 OFFCURVE",
"838 767 OFFCURVE",
"712 767 CURVE SMOOTH",
"387 767 LINE",
"387 703 LINE"
);
},
{
closed = 1;
nodes = (
"400 1336 LINE",
"887 1336 LINE SMOOTH",
"1008 1336 OFFCURVE",
"1072 1184 OFFCURVE",
"1106 1044 CURVE",
"1164 1044 LINE",
"1116 1400 LINE",
"100 1400 LINE",
"100 1336 LINE",
"246 1336 OFFCURVE",
"284 1331 OFFCURVE",
"284 1280 CURVE SMOOTH",
"284 136 LINE SMOOTH",
"284 68 OFFCURVE",
"242 64 OFFCURVE",
"100 64 CURVE",
"100 0 LINE",
"1145 0 LINE",
"1192 396 LINE",
"1135 396 LINE",
"1100 246 OFFCURVE",
"1046 64 OFFCURVE",
"890 64 CURVE SMOOTH",
"400 64 LINE"
);
}
);
width = 1273;
},
{
anchors = (
{
name = bottom;
position = "{744, 0}";
},
{
name = ogonek;
position = "{1338, 0}";
},
{
name = top;
position = "{744, 1400}";
},
{
name = topleft;
position = "{-32, 1400}";
}
);
layerId = "72F22432-F665-4153-96BB-74D91BCC5F28";
paths = (
{
closed = 1;
nodes = (
"745 703 LINE SMOOTH",
"834 703 OFFCURVE",
"898 617 OFFCURVE",
"898 509 CURVE",
"1004 509 LINE",
"1004 952 LINE",
"898 952 LINE",
"898 861 OFFCURVE",
"834 767 OFFCURVE",
"745 767 CURVE SMOOTH",
"516 767 LINE",
"516 703 LINE"
);
},
{
closed = 1;
nodes = (
"541 1336 LINE",
"878 1336 LINE SMOOTH",
"993 1336 OFFCURVE",
"1151 1189 OFFCURVE",
"1184 1049 CURVE",
"1328 1049 LINE",
"1275 1400 LINE",
"95 1400 LINE",
"95 1336 LINE",
"234 1336 OFFCURVE",
"270 1331 OFFCURVE",
"270 1245 CURVE SMOOTH",
"270 171 LINE SMOOTH",
"270 86 OFFCURVE",
"230 64 OFFCURVE",
"95 64 CURVE",
"95 0 LINE",
"1338 0 LINE",
"1391 391 LINE",
"1247 391 LINE",
"1214 241 OFFCURVE",
"1065 64 OFFCURVE",
"917 64 CURVE SMOOTH",
"541 64 LINE"
);
}
);
width = 1472;
}
);
leftKerningGroup = H;
leftMetricsKey = H;
rightKerningGroup = E;
unicode = 0045;
},
{
glyphname = F;
lastChange = "2020-10-13 20:24:18 +0000";
layers = (
{
anchors = (
{
name = bottom;
position = "{539, 0}";
},
{
name = top;
position = "{539, 1400}";
}
);
layerId = "14A1E899-FED4-4F52-86F4-A1F822586E10";
paths = (
{
closed = 1;
nodes = (
"581 0 LINE",
"581 64 LINE",
"464 64 OFFCURVE",
"397 65 OFFCURVE",
"397 136 CURVE",
"397 1336 LINE",
"890 1336 LINE SMOOTH",
"1002 1336 OFFCURVE",
"1047 1184 OFFCURVE",
"1082 1044 CURVE",
"1139 1044 LINE",
"1102 1400 LINE",
"100 1400 LINE",
"100 1336 LINE",
"244 1336 OFFCURVE",
"284 1335 OFFCURVE",
"284 1281 CURVE SMOOTH",
"284 136 LINE SMOOTH",
"284 65 OFFCURVE",
"241 64 OFFCURVE",
"100 64 CURVE",
"100 0 LINE"
);
},
{
closed = 1;
nodes = (
"776 650 LINE SMOOTH",
"882 650 OFFCURVE",
"895 599 OFFCURVE",
"895 473 CURVE",
"969 473 LINE",
"969 881 LINE",
"895 881 LINE",
"895 773 OFFCURVE",
"882 714 OFFCURVE",
"776 714 CURVE SMOOTH",
"391 714 LINE",
"391 650 LINE"
);
}
);
width = 1180;
},
{
anchors = (
{
name = bottom;
position = "{673, 0}";
},
{
name = top;
position = "{673, 1400}";
}
);
layerId = "72F22432-F665-4153-96BB-74D91BCC5F28";
paths = (
{
closed = 1;
nodes = (
"713 0 LINE",
"713 64 LINE",
"602 64 OFFCURVE",
"538 79 OFFCURVE",
"538 171 CURVE",
"538 1336 LINE",
"881 1336 LINE SMOOTH",
"989 1336 OFFCURVE",
"1138 1195 OFFCURVE",
"1171 1047 CURVE",
"1314 1047 LINE",
"1254 1400 LINE",
"95 1400 LINE",
"95 1336 LINE",
"214 1336 OFFCURVE",
"270 1323 OFFCURVE",
"270 1246 CURVE SMOOTH",
"270 171 LINE SMOOTH",
"270 79 OFFCURVE",
"229 64 OFFCURVE",
"95 64 CURVE",
"95 0 LINE"
);
},
{
closed = 1;
nodes = (
"714 641 LINE SMOOTH",
"803 641 OFFCURVE",
"867 555 OFFCURVE",
"867 447 CURVE",
"973 447 LINE",
"973 890 LINE",
"867 890 LINE",
"867 799 OFFCURVE",
"803 705 OFFCURVE",
"714 705 CURVE SMOOTH",
"485 705 LINE",
"485 641 LINE"
);
}
);
width = 1355;
}
);
leftKerningGroup = H;
leftMetricsKey = H;
rightKerningGroup = F;
rightMetricsKey = "=E-40";
unicode = 0046;
},
{
glyphname = G;
lastChange = "2020-10-13 20:24:18 +0000";
layers = (
{
anchors = (
{
name = bottom;
position = "{702, 0}";
},
{
name = top;
position = "{702, 1400}";
}
);
layerId = "14A1E899-FED4-4F52-86F4-A1F822586E10";
paths = (
{
closed = 1;
nodes = (
"1082 -22 OFFCURVE",
"1208 120 OFFCURVE",
"1238 168 CURVE",
"1238 518 LINE SMOOTH",
"1238 578 OFFCURVE",
"1296 578 OFFCURVE",
"1370 578 CURVE",
"1370 642 LINE",
"897 642 LINE",
"897 578 LINE",
"1067 578 OFFCURVE",
"1125 578 OFFCURVE",
"1125 512 CURVE SMOOTH",
"1125 262 LINE SMOOTH",
"1125 146 OFFCURVE",
"1009 50 OFFCURVE",
"763 50 CURVE SMOOTH",
"406 50 OFFCURVE",
"243 330 OFFCURVE",
"243 728 CURVE SMOOTH",
"243 1106 OFFCURVE",
"406 1350 OFFCURVE",
"763 1350 CURVE SMOOTH",
"990 1350 OFFCURVE",
"1137 1261 OFFCURVE",
"1179 958 CURVE",
"1225 958 LINE",
"1237 1290 LINE",
"1196 1315 OFFCURVE",
"994 1416 OFFCURVE",
"751 1416 CURVE SMOOTH",
"392 1416 OFFCURVE",
"100 1150 OFFCURVE",
"100 698 CURVE SMOOTH",
"100 246 OFFCURVE",
"392 -22 OFFCURVE",
"751 -22 CURVE SMOOTH"
);
}
);
width = 1451;
},
{
anchors = (
{
name = bottom;
position = "{810, 0}";
},
{
name = top;
position = "{810, 1400}";
}
);
layerId = "72F22432-F665-4153-96BB-74D91BCC5F28";
paths = (
{
closed = 1;
nodes = (
"1170 -22 OFFCURVE",
"1416 85 OFFCURVE",
"1444 116 CURVE",
"1444 396 LINE SMOOTH",
"1444 497 OFFCURVE",
"1472 526 OFFCURVE",
"1552 526 CURVE",
"1552 590 LINE",
"942 590 LINE",
"942 526 LINE",
"1122 526 OFFCURVE",
"1158 496 OFFCURVE",
"1158 390 CURVE SMOOTH",
"1158 245 LINE SMOOTH",
"1158 154 OFFCURVE",
"1131 50 OFFCURVE",
"868 50 CURVE SMOOTH",
"529 50 OFFCURVE",
"449 435 OFFCURVE",
"449 746 CURVE SMOOTH",
"449 1071 OFFCURVE",
"527 1359 OFFCURVE",
"856 1359 CURVE SMOOTH",
"1114 1359 OFFCURVE",
"1215 1179 OFFCURVE",
"1243 966 CURVE",
"1376 966 LINE",
"1409 1290 LINE",
"1325 1364 OFFCURVE",
"1099 1425 OFFCURVE",
"854 1425 CURVE SMOOTH",
"424 1425 OFFCURVE",
"95 1150 OFFCURVE",
"95 698 CURVE SMOOTH",
"95 246 OFFCURVE",
"427 -22 OFFCURVE",
"856 -22 CURVE SMOOTH"
);
}
);
width = 1633;
}
);
leftKerningGroup = O;
leftMetricsKey = O;
rightKerningGroup = G;
rightMetricsKey = E;
unicode = 0047;
},
{
glyphname = H;
lastChange = "2020-10-29 16:58:57 +0000";
layers = (
{
anchors = (
{
name = bottom;
position = "{765, 0}";
},
{
name = center;
position = "{765, 700}";
},
{
name = top;
position = "{765, 1400}";
},
{
name = topleft;
position = "{120, 1400}";
}
);
layerId = "14A1E899-FED4-4F52-86F4-A1F822586E10";
paths = (
{
closed = 1;
nodes = (
"1429 0 LINE",
"1429 64 LINE",
"1293 64 OFFCURVE",
"1238 65 OFFCURVE",
"1238 146 CURVE SMOOTH",
"1238 1264 LINE SMOOTH",
"1238 1335 OFFCURVE",
"1307 1336 OFFCURVE",
"1429 1336 CURVE",
"1429 1400 LINE",
"1133 1400 LINE",
"1133 0 LINE"
);
},
{
closed = 1;
nodes = (
"397 0 LINE",
"397 1400 LINE",
"100 1400 LINE",
"100 1336 LINE",
"222 1336 OFFCURVE",
"291 1335 OFFCURVE",
"291 1264 CURVE SMOOTH",
"291 146 LINE SMOOTH",
"291 65 OFFCURVE",
"236 64 OFFCURVE",
"100 64 CURVE",
"100 0 LINE"
);
},
{
closed = 1;
nodes = (
"587 0 LINE",
"587 64 LINE",
"452 64 OFFCURVE",
"397 65 OFFCURVE",
"397 146 CURVE SMOOTH",
"397 1264 LINE SMOOTH",
"397 1335 OFFCURVE",
"466 1336 OFFCURVE",
"587 1336 CURVE",
"587 1400 LINE",
"291 1400 LINE",
"291 0 LINE"
);
},
{
closed = 1;
nodes = (
"1169 688 LINE",
"1169 760 LINE",
"325 760 LINE",
"325 688 LINE"
);
},
{
closed = 1;
nodes = (
"1238 0 LINE",
"1238 1400 LINE",
"942 1400 LINE",
"942 1336 LINE",
"1064 1336 OFFCURVE",
"1133 1335 OFFCURVE",
"1133 1264 CURVE SMOOTH",
"1133 146 LINE SMOOTH",
"1133 65 OFFCURVE",
"1077 64 OFFCURVE",
"942 64 CURVE",
"942 0 LINE"
);
}
);
width = 1529;
},
{
anchors = (
{
name = bottom;
position = "{870, 1400}";
},
{
name = center;
position = "{870, -700}";
},
{
name = top;
position = "{870, 1400}";
},
{
name = topleft;
position = "{-136, 1400}";
}
);
layerId = "72F22432-F665-4153-96BB-74D91BCC5F28";
paths = (
{
closed = 1;
nodes = (
"1644 0 LINE",
"1644 64 LINE",
"1514 64 OFFCURVE",
"1462 74 OFFCURVE",
"1462 181 CURVE SMOOTH",
"1462 1229 LINE SMOOTH",
"1462 1332 OFFCURVE",
"1528 1336 OFFCURVE",
"1644 1336 CURVE",
"1644 1400 LINE",
"1184 1400 LINE",
"1184 0 LINE"
);
},
{
closed = 1;
nodes = (
"556 0 LINE",
"556 1400 LINE",
"95 1400 LINE",
"95 1336 LINE",
"211 1336 OFFCURVE",
"276 1332 OFFCURVE",
"276 1229 CURVE SMOOTH",
"276 181 LINE SMOOTH",
"276 74 OFFCURVE",
"224 64 OFFCURVE",
"95 64 CURVE",
"95 0 LINE"
);
},
{
closed = 1;
nodes = (
"736 0 LINE",
"736 64 LINE",
"608 64 OFFCURVE",
"556 74 OFFCURVE",
"556 181 CURVE SMOOTH",
"556 1229 LINE SMOOTH",
"556 1332 OFFCURVE",
"621 1336 OFFCURVE",
"736 1336 CURVE",
"736 1400 LINE",
"276 1400 LINE",
"276 0 LINE"
);
},
{
closed = 1;
nodes = (
"1218 688 LINE",
"1218 762 LINE",
"398 762 LINE",
"398 688 LINE"
);
},
{
closed = 1;
nodes = (
"1462 0 LINE",
"1462 1400 LINE",
"1002 1400 LINE",
"1002 1336 LINE",
"1118 1336 OFFCURVE",
"1184 1332 OFFCURVE",
"1184 1229 CURVE SMOOTH",
"1184 181 LINE SMOOTH",
"1184 74 OFFCURVE",
"1130 64 OFFCURVE",
"1002 64 CURVE",
"1002 0 LINE"
);
}
);
width = 1739;
}
);
leftKerningGroup = H;
rightKerningGroup = H;
unicode = 0048;
},
{
glyphname = Hbar;
lastChange = "2020-10-13 20:10:10 +0000";
layers = (
{
components = (
{
name = H;
}
);
layerId = "14A1E899-FED4-4F52-86F4-A1F822586E10";
paths = (
{
closed = 1;
nodes = (
"1433 1014 LINE",
"1433 1074 LINE",
"107 1074 LINE",
"107 1014 LINE"
);
}
);
width = 1529;
},
{
components = (
{
name = H;
}
);
layerId = "72F22432-F665-4153-96BB-74D91BCC5F28";
paths = (
{
closed = 1;
nodes = (
"1676 997 LINE",
"1676 1074 LINE",
"73 1074 LINE",
"73 997 LINE"
);
}
);
width = 1689;
}
);
unicode = 0126;
},
{
glyphname = I;
lastChange = "2020-10-13 20:10:10 +0000";
layers = (
{
anchors = (
{
name = bottom;
position = "{344, 0}";
},
{
name = ogonek;
position = "{587, 0}";
},
{
name = top;
position = "{344, 1400}";
},
{
name = topleft;
position = "{-52, 1400}";
}
);
layerId = "14A1E899-FED4-4F52-86F4-A1F822586E10";
paths = (
{
closed = 1;
nodes = (
"587 0 LINE",
"587 64 LINE",
"452 64 OFFCURVE",
"397 70 OFFCURVE",
"397 146 CURVE SMOOTH",
"397 1264 LINE SMOOTH",
"397 1333 OFFCURVE",
"466 1336 OFFCURVE",
"587 1336 CURVE",
"587 1400 LINE",
"100 1400 LINE",
"100 1336 LINE",
"222 1336 OFFCURVE",
"291 1333 OFFCURVE",
"291 1264 CURVE SMOOTH",
"291 146 LINE SMOOTH",
"291 70 OFFCURVE",
"236 64 OFFCURVE",
"100 64 CURVE",
"100 0 LINE"
);
}
);
width = 687;
},
{
anchors = (
{
name = bottom;
position = "{416, 0}";
},
{
name = ogonek;
position = "{736, 0}";
},
{
name = top;
position = "{416, 1400}";
},
{
name = topleft;
position = "{40, 1400}";
}
);
layerId = "72F22432-F665-4153-96BB-74D91BCC5F28";
paths = (
{
closed = 1;
nodes = (
"736 0 LINE",
"736 64 LINE",
"608 64 OFFCURVE",
"556 70 OFFCURVE",
"556 181 CURVE SMOOTH",
"556 1229 LINE SMOOTH",
"556 1333 OFFCURVE",
"621 1336 OFFCURVE",
"736 1336 CURVE",
"736 1400 LINE",
"95 1400 LINE",
"95 1336 LINE",
"211 1336 OFFCURVE",
"276 1333 OFFCURVE",
"276 1229 CURVE SMOOTH",
"276 181 LINE SMOOTH",
"276 70 OFFCURVE",
"224 64 OFFCURVE",
"95 64 CURVE",
"95 0 LINE"
);
}
);
width = 831;
}
);
leftKerningGroup = H;
leftMetricsKey = H;
rightKerningGroup = H;
rightMetricsKey = H;
unicode = 0049;
},
{
glyphname = J;
lastChange = "2020-10-13 20:11:19 +0000";
layers = (
{
anchors = (
{
name = bottom;
position = "{540, 0}";
},
{
name = top;
position = "{540, 1400}";
}
);
layerId = "14A1E899-FED4-4F52-86F4-A1F822586E10";
paths = (
{
closed = 1;
nodes = (
"483 1336 OFFCURVE",
"562 1333 OFFCURVE",
"562 1264 CURVE SMOOTH",
"562 339 LINE SMOOTH",
"562 163 OFFCURVE",
"511 37 OFFCURVE",
"354 37 CURVE SMOOTH",
"199 37 OFFCURVE",
"145 144 OFFCURVE",
"127 488 CURVE",
"78 488 LINE",
"41 132 LINE",
"80 67 OFFCURVE",
"163 -29 OFFCURVE",
"348 -29 CURVE SMOOTH",
"540 -29 OFFCURVE",
"667 107 OFFCURVE",
"667 335 CURVE SMOOTH",
"667 1264 LINE SMOOTH",
"667 1333 OFFCURVE",
"726 1336 OFFCURVE",
"848 1336 CURVE",
"848 1400 LINE",
"361 1400 LINE",
"361 1336 LINE"
);
}
);
width = 898;
},
{
anchors = (
{
name = bottom;
position = "{577, 0}";
},
{
name = top;
position = "{577, 1400}";
}
);
layerId = "72F22432-F665-4153-96BB-74D91BCC5F28";
paths = (
{
closed = 1;
nodes = (
"523 1336 OFFCURVE",
"598 1333 OFFCURVE",
"598 1229 CURVE SMOOTH",
"598 339 LINE SMOOTH",
"598 198 OFFCURVE",
"567 44 OFFCURVE",
"418 44 CURVE SMOOTH",
"275 44 OFFCURVE",
"209 195 OFFCURVE",
"199 451 CURVE",
"86 451 LINE",
"28 80 LINE",
"108 2 OFFCURVE",
"339 -29 OFFCURVE",
"413 -29 CURVE SMOOTH",
"684 -29 OFFCURVE",
"873 160 OFFCURVE",
"873 353 CURVE SMOOTH",
"873 1229 LINE SMOOTH",
"873 1333 OFFCURVE",
"929 1336 OFFCURVE",
"1045 1336 CURVE",
"1045 1400 LINE",
"407 1400 LINE",
"407 1336 LINE"
);
}
);
width = 1090;
}
);
leftKerningGroup = J;
rightKerningGroup = J;
rightMetricsKey = "=H-50";
unicode = 004A;
},
{
glyphname = J.ss01;
lastChange = "2020-10-13 20:10:10 +0000";
layers = (
{
anchors = (
{
name = bottom;
position = "{330, -360}";
},
{
name = top;
position = "{299, 1400}";
}
);
layerId = "14A1E899-FED4-4F52-86F4-A1F822586E10";
paths = (
{
closed = 1;
nodes = (
"172 1336 OFFCURVE",
"251 1333 OFFCURVE",
"251 1244 CURVE SMOOTH",
"251 -34 LINE SMOOTH",
"251 -190 OFFCURVE",
"225 -260 OFFCURVE",
"60 -314 CURVE",
"80 -370 LINE",
"330 -281 OFFCURVE",
"364 -224 OFFCURVE",
"364 -16 CURVE SMOOTH",
"364 1244 LINE SMOOTH",
"364 1333 OFFCURVE",
"423 1336 OFFCURVE",
"545 1336 CURVE",
"545 1400 LINE",
"50 1400 LINE",
"50 1336 LINE"
);
}
);
width = 605;
},
{
anchors = (
{
name = bottom;
position = "{344, -367}";
},
{
name = top;
position = "{354, 1400}";
}
);
layerId = "72F22432-F665-4153-96BB-74D91BCC5F28";
paths = (
{
closed = 1;
nodes = (
"164 1336 OFFCURVE",
"239 1333 OFFCURVE",
"239 1244 CURVE SMOOTH",
"239 -34 LINE SMOOTH",
"239 -159 OFFCURVE",
"235 -253 OFFCURVE",
"58 -314 CURVE",
"77 -370 LINE",
"314 -281 OFFCURVE",
"507 -224 OFFCURVE",
"507 -16 CURVE SMOOTH",
"507 1244 LINE SMOOTH",
"507 1333 OFFCURVE",
"563 1336 OFFCURVE",
"679 1336 CURVE",
"679 1400 LINE",
"48 1400 LINE",
"48 1336 LINE"
);
}
);
width = 736;
}
);
},
{
glyphname = K;
lastChange = "2020-11-04 18:09:57 +0000";
layers = (
{
anchors = (
{
name = bottom;
position = "{666, 0}";
},
{
name = top;
position = "{666, 1400}";
}
);
layerId = "14A1E899-FED4-4F52-86F4-A1F822586E10";
paths = (
{
closed = 1;
nodes = (
"1307 0 LINE",
"1307 64 LINE",
"1220 64 OFFCURVE",
"1163 77 OFFCURVE",
"1116 136 CURVE SMOOTH",
"612 761 LINE",
"1105 1288 LINE SMOOTH",
"1145 1331 OFFCURVE",
"1160 1336 OFFCURVE",
"1275 1336 CURVE",
"1275 1400 LINE",
"875 1400 LINE",
"875 1336 LINE",
"955 1336 OFFCURVE",
"1008 1335 OFFCURVE",
"1008 1316 CURVE SMOOTH",
"1008 1300 OFFCURVE",
"992 1281 OFFCURVE",
"972 1260 CURVE SMOOTH",
"355 599 LINE",
"355 483 LINE",
"538 681 LINE",
"960 159 LINE SMOOTH",
"992 120 OFFCURVE",
"997 110 OFFCURVE",
"997 92 CURVE SMOOTH",
"997 65 OFFCURVE",
"967 64 OFFCURVE",
"854 64 CURVE",
"854 0 LINE"
);
},
{
closed = 1;
nodes = (
"587 0 LINE",
"587 64 LINE",
"451 64 OFFCURVE",
"396 65 OFFCURVE",
"396 146 CURVE SMOOTH",
"396 1264 LINE SMOOTH",
"396 1336 OFFCURVE",
"465 1336 OFFCURVE",
"587 1336 CURVE",
"587 1400 LINE",
"100 1400 LINE",
"100 1336 LINE",
"222 1336 OFFCURVE",
"291 1336 OFFCURVE",
"291 1264 CURVE SMOOTH",
"291 146 LINE SMOOTH",
"291 65 OFFCURVE",
"236 64 OFFCURVE",
"100 64 CURVE",
"100 0 LINE"
);
}
);
width = 1329;
},
{
anchors = (
{
name = bottom;
position = "{808, 0}";
},
{
name = top;
position = "{808, 1400}";
}
);
layerId = "72F22432-F665-4153-96BB-74D91BCC5F28";
paths = (
{
closed = 1;
nodes = (
"1573 0 LINE",
"1573 64 LINE",
"1501 64 OFFCURVE",
"1435 72 OFFCURVE",
"1392 136 CURVE SMOOTH",
"898 883 LINE",
"1346 1288 LINE SMOOTH",
"1397 1334 OFFCURVE",
"1472 1336 OFFCURVE",
"1525 1336 CURVE",
"1525 1400 LINE",
"1073 1400 LINE",
"1073 1336 LINE",
"1148 1336 OFFCURVE",
"1167 1323 OFFCURVE",
"1167 1283 CURVE SMOOTH",
"1167 1264 OFFCURVE",
"1151 1237 OFFCURVE",
"1105 1197 CURVE SMOOTH",
"542 708 LINE",
"542 560 LINE",
"685 685 LINE",
"988 214 LINE SMOOTH",
"1015 172 OFFCURVE",
"1029 149 OFFCURVE",
"1029 130 CURVE SMOOTH",
"1029 78 OFFCURVE",
"941 64 OFFCURVE",
"879 64 CURVE",
"879 0 LINE"
);
},
{
closed = 1;
nodes = (
"733 0 LINE",
"733 64 LINE",
"604 64 OFFCURVE",
"551 74 OFFCURVE",
"551 181 CURVE SMOOTH",
"551 1229 LINE SMOOTH",
"551 1331 OFFCURVE",
"617 1336 OFFCURVE",
"733 1336 CURVE",
"733 1400 LINE",
"95 1400 LINE",
"95 1336 LINE",
"211 1336 OFFCURVE",
"276 1331 OFFCURVE",
"276 1229 CURVE SMOOTH",
"276 181 LINE SMOOTH",
"276 74 OFFCURVE",
"224 64 OFFCURVE",
"95 64 CURVE",
"95 0 LINE"
);
}
);
width = 1597;
}
);
leftKerningGroup = H;
leftMetricsKey = H;
rightKerningGroup = K;
rightMetricsKey = A;
unicode = 004B;
},
{
glyphname = L;
lastChange = "2020-10-13 20:45:45 +0000";
layers = (
{
anchors = (
{
name = bottom;
position = "{550, 0}";
},
{
name = center;
position = "{346, 700}";
},
{
name = top;
position = "{348, 1400}";
},
{
name = topright;
position = "{758, 826}";
}
);
layerId = "14A1E899-FED4-4F52-86F4-A1F822586E10";
paths = (
{
closed = 1;
nodes = (
"587 0 LINE",
"587 64 LINE",
"452 64 OFFCURVE",
"397 69 OFFCURVE",
"397 146 CURVE SMOOTH",
"397 1264 LINE SMOOTH",
"397 1334 OFFCURVE",
"466 1336 OFFCURVE",
"587 1336 CURVE",
"587 1400 LINE",
"291 1400 LINE",
"291 0 LINE"
);
},
{
closed = 1;
nodes = (
"397 0 LINE",
"397 1400 LINE",
"100 1400 LINE",
"100 1336 LINE",
"222 1336 OFFCURVE",
"291 1334 OFFCURVE",
"291 1264 CURVE SMOOTH",
"291 146 LINE SMOOTH",
"291 69 OFFCURVE",
"236 64 OFFCURVE",
"100 64 CURVE",
"100 0 LINE"
);
},
{
closed = 1;
nodes = (
"1068 0 LINE",
"1115 406 LINE",
"1048 406 LINE",
"1013 236 OFFCURVE",
"959 64 OFFCURVE",
"802 64 CURVE SMOOTH",
"479 64 LINE",
"479 0 LINE"
);
}
);
width = 1196;
},
{
anchors = (
{
name = bottom;
position = "{650, 0}";
},
{
name = center;
position = "{683, 700}";
},
{
name = top;
position = "{416, 1400}";
},
{
name = topright;
position = "{920, 826}";
}
);
layerId = "72F22432-F665-4153-96BB-74D91BCC5F28";
paths = (
{
closed = 1;
nodes = (
"736 0 LINE",
"736 64 LINE",
"608 64 OFFCURVE",
"556 71 OFFCURVE",
"556 181 CURVE SMOOTH",
"556 1229 LINE SMOOTH",
"556 1332 OFFCURVE",
"621 1336 OFFCURVE",
"736 1336 CURVE",
"736 1400 LINE",
"276 1400 LINE",
"276 0 LINE"
);
},
{
closed = 1;
nodes = (
"556 0 LINE",
"556 1400 LINE",
"95 1400 LINE",
"95 1336 LINE",
"211 1336 OFFCURVE",
"276 1332 OFFCURVE",
"276 1229 CURVE SMOOTH",
"276 181 LINE SMOOTH",
"276 71 OFFCURVE",
"224 64 OFFCURVE",
"95 64 CURVE",
"95 0 LINE"
);
},
{
closed = 1;
nodes = (
"1243 0 LINE",
"1285 404 LINE",
"1168 404 LINE",
"1134 267 OFFCURVE",
"995 64 OFFCURVE",
"847 64 CURVE SMOOTH",
"634 64 LINE",
"634 0 LINE"
);
}
);
width = 1366;
}
);
leftKerningGroup = H;
leftMetricsKey = H;
rightKerningGroup = L;
rightMetricsKey = E;
unicode = 004C;
},
{
glyphname = Lslash;
lastChange = "2020-10-13 20:45:50 +0000";
layers = (
{
components = (
{
name = L;
transform = "{1, 0, 0, 1, 65, 0}";
}
);
layerId = "14A1E899-FED4-4F52-86F4-A1F822586E10";
paths = (
{
closed = 1;
nodes = (
"148 326 LINE",
"736 880 LINE",
"689 929 LINE",
"100 376 LINE"
);
}
);
width = 1261;
},
{
components = (
{
name = L;
transform = "{1, 0, 0, 1, 62, 0}";
}
);
layerId = "72F22432-F665-4153-96BB-74D91BCC5F28";
paths = (
{
closed = 1;
nodes = (
"171 295 LINE",
"876 983 LINE",
"801 1064 LINE",
"95 376 LINE"
);
}
);
width = 1428;
}
);
leftKerningGroup = L;
leftMetricsKey = L;
rightKerningGroup = L;
rightMetricsKey = L;
unicode = 0141;
},
{
glyphname = M;
lastChange = "2020-10-13 20:39:17 +0000";
layers = (
{
anchors = (
{
name = bottom;
position = "{962, 0}";
},
{
name = top;
position = "{962, 1400}";
}
);
layerId = "14A1E899-FED4-4F52-86F4-A1F822586E10";
paths = (
{
closed = 1;
nodes = (
"560 0 LINE",
"560 64 LINE",
"443 64 OFFCURVE",
"376 64 OFFCURVE",
"376 116 CURVE SMOOTH",
"376 1270 LINE",
"840 0 LINE",
"887 0 LINE",
"1346 1214 LINE",
"1346 116 LINE SMOOTH",
"1346 64 OFFCURVE",
"1280 64 OFFCURVE",
"1162 64 CURVE",
"1162 0 LINE",
"1633 0 LINE",
"1633 64 LINE",
"1516 64 OFFCURVE",
"1449 64 OFFCURVE",
"1449 116 CURVE SMOOTH",
"1449 1284 LINE SMOOTH",
"1449 1336 OFFCURVE",
"1516 1336 OFFCURVE",
"1633 1336 CURVE",
"1633 1400 LINE",
"1330 1400 LINE",
"879 202 LINE",
"450 1400 LINE",
"100 1400 LINE",
"100 1336 LINE",
"218 1336 OFFCURVE",
"284 1336 OFFCURVE",
"284 1284 CURVE SMOOTH",
"284 116 LINE SMOOTH",
"284 64 OFFCURVE",
"218 64 OFFCURVE",
"100 64 CURVE",
"100 0 LINE"
);
}
);
width = 1733;
},
{
anchors = (
{
name = bottom;
position = "{898, 0}";
},
{
name = top;
position = "{898, 1400}";
}
);
layerId = "72F22432-F665-4153-96BB-74D91BCC5F28";
paths = (
{
closed = 1;
nodes = (
"552 0 LINE",
"552 64 LINE",
"419 64 OFFCURVE",
"377 71 OFFCURVE",
"377 134 CURVE SMOOTH",
"377 1253 LINE",
"857 0 LINE",
"962 0 LINE",
"1406 1204 LINE",
"1406 134 LINE SMOOTH",
"1406 71 OFFCURVE",
"1365 64 OFFCURVE",
"1231 64 CURVE",
"1231 0 LINE",
"1857 0 LINE",
"1857 64 LINE",
"1725 64 OFFCURVE",
"1683 71 OFFCURVE",
"1683 134 CURVE SMOOTH",
"1683 1267 LINE SMOOTH",
"1683 1329 OFFCURVE",
"1725 1336 OFFCURVE",
"1857 1336 CURVE",
"1857 1400 LINE",
"1383 1400 LINE",
"1027 422 LINE",
"652 1400 LINE",
"95 1400 LINE",
"95 1336 LINE",
"228 1336 OFFCURVE",
"270 1329 OFFCURVE",
"270 1267 CURVE SMOOTH",
"270 134 LINE SMOOTH",
"270 71 OFFCURVE",
"228 64 OFFCURVE",
"95 64 CURVE",
"95 0 LINE"
);
}
);
width = 1952;
}
);
leftKerningGroup = H;
leftMetricsKey = H;
rightKerningGroup = H;
rightMetricsKey = H;
unicode = 004D;
},
{
glyphname = N;
lastChange = "2020-11-04 18:31:30 +0000";
layers = (
{
anchors = (
{
name = bottom;
position = "{808, 0}";
},
{
name = top;
position = "{808, 1400}";
}
);
layerId = "14A1E899-FED4-4F52-86F4-A1F822586E10";
paths = (
{
closed = 1;
nodes = (
"572 0 LINE",
"572 64 LINE",
"454 64 OFFCURVE",
"388 64 OFFCURVE",
"388 106 CURVE SMOOTH",
"388 1274 LINE",
"1209 0 LINE",
"1275 0 LINE",
"1275 1294 LINE SMOOTH",
"1275 1336 OFFCURVE",
"1342 1336 OFFCURVE",
"1459 1336 CURVE",
"1459 1400 LINE",
"988 1400 LINE",
"988 1336 LINE",
"1105 1336 OFFCURVE",
"1172 1336 OFFCURVE",
"1172 1294 CURVE SMOOTH",
"1172 258 LINE",
"444 1400 LINE",
"100 1400 LINE",
"100 1336 LINE",
"218 1336 OFFCURVE",
"284 1336 OFFCURVE",
"284 1294 CURVE SMOOTH",
"284 106 LINE SMOOTH",
"284 64 OFFCURVE",
"218 64 OFFCURVE",
"100 64 CURVE",
"100 0 LINE"
);
}
);
width = 1519;
},
{
anchors = (
{
name = bottom;
position = "{823, 0}";
},
{
name = top;
position = "{823, 1400}";
}
);
layerId = "72F22432-F665-4153-96BB-74D91BCC5F28";
paths = (
{
closed = 1;
nodes = (
"561 0 LINE",
"561 64 LINE",
"449 64 OFFCURVE",
"386 64 OFFCURVE",
"386 141 CURVE SMOOTH",
"386 1192 LINE",
"1275 0 LINE",
"1386 0 LINE",
"1386 1259 LINE SMOOTH",
"1386 1336 OFFCURVE",
"1449 1336 OFFCURVE",
"1560 1336 CURVE",
"1560 1400 LINE",
"1095 1400 LINE",
"1095 1336 LINE",
"1206 1336 OFFCURVE",
"1270 1336 OFFCURVE",
"1270 1259 CURVE SMOOTH",
"1270 546 LINE",
"625 1400 LINE",
"95 1400 LINE",
"95 1336 LINE",
"207 1336 OFFCURVE",
"270 1336 OFFCURVE",
"270 1259 CURVE SMOOTH",
"270 141 LINE SMOOTH",
"270 64 OFFCURVE",
"207 64 OFFCURVE",
"95 64 CURVE",
"95 0 LINE"
);
}
);
width = 1615;
}
);
leftKerningGroup = H;
leftMetricsKey = H;
rightKerningGroup = H;
rightMetricsKey = "=H-40";
unicode = 004E;
},
{
glyphname = Eng;
lastChange = "2020-11-04 18:31:54 +0000";
layers = (
{
components = (
{
name = N;
}
);
layerId = "14A1E899-FED4-4F52-86F4-A1F822586E10";
paths = (
{
closed = 1;
nodes = (
"1164 -424 OFFCURVE",
"1275 -263 OFFCURVE",
"1275 -25 CURVE SMOOTH",
"1275 109 LINE",
"1174 109 LINE",
"1174 -31 LINE SMOOTH",
"1174 -267 OFFCURVE",
"1070 -332 OFFCURVE",
"973 -332 CURVE SMOOTH",
"895 -332 OFFCURVE",
"855 -292 OFFCURVE",
"846 -270 CURVE",
"780 -368 LINE",
"822 -398 OFFCURVE",
"876 -424 OFFCURVE",
"958 -424 CURVE SMOOTH"
);
},
{
closed = 1;
nodes = (
"892 -334 LINE",
"933 -160 LINE",
"760 -180 LINE",
"780 -368 LINE"
);
}
);
width = 1519;
},
{
components = (
{
name = N;
}
);
layerId = "72F22432-F665-4153-96BB-74D91BCC5F28";
paths = (
{
closed = 1;
nodes = (
"1280 -477 OFFCURVE",
"1385 -332 OFFCURVE",
"1385 -25 CURVE SMOOTH",
"1385 109 LINE",
"1270 109 LINE",
"1270 -31 LINE SMOOTH",
"1270 -319 OFFCURVE",
"1202 -385 OFFCURVE",
"1098 -385 CURVE SMOOTH",
"1026 -385 OFFCURVE",
"987 -346 OFFCURVE",
"978 -323 CURVE",
"915 -421 LINE",
"954 -450 OFFCURVE",
"1006 -477 OFFCURVE",
"1084 -477 CURVE SMOOTH"
);
},
{
closed = 1;
nodes = (
"1039 -387 LINE",
"1096 -129 LINE",
"896 -166 LINE",
"915 -421 LINE"
);
}
);
width = 1615;
}
);
leftKerningGroup = N;
leftMetricsKey = N;
rightKerningGroup = N;
rightMetricsKey = N;
unicode = 014A;
},
{
glyphname = O;
lastChange = "2020-10-29 16:59:53 +0000";
layers = (
{
anchors = (
{
name = bottom;
position = "{781, 0}";
},
{
name = center;
position = "{781, 700}";
},
{
name = ogonek;
position = "{1204, 109}";
},
{
name = top;
position = "{781, 1400}";
},
{
name = topleft;
position = "{-45, 1400}";
},
{
name = topright;
position = "{1219, 1260}";
}
);
layerId = "14A1E899-FED4-4F52-86F4-A1F822586E10";
paths = (
{
closed = 1;
nodes = (
"1140 -18 OFFCURVE",
"1462 248 OFFCURVE",
"1462 698 CURVE SMOOTH",
"1462 1148 OFFCURVE",
"1140 1416 OFFCURVE",
"780 1416 CURVE SMOOTH",
"414 1416 OFFCURVE",
"100 1148 OFFCURVE",
"100 698 CURVE SMOOTH",
"100 248 OFFCURVE",
"416 -18 OFFCURVE",
"780 -18 CURVE SMOOTH"
);
},
{
closed = 1;
nodes = (
"443 49 OFFCURVE",
"240 307 OFFCURVE",
"240 725 CURVE SMOOTH",
"240 1123 OFFCURVE",
"443 1351 OFFCURVE",
"780 1351 CURVE SMOOTH",
"1116 1351 OFFCURVE",
"1321 1091 OFFCURVE",
"1321 671 CURVE SMOOTH",
"1321 271 OFFCURVE",
"1116 49 OFFCURVE",
"780 49 CURVE SMOOTH"
);
}
);
width = 1562;
},
{
anchors = (
{
name = bottom;
position = "{814, 0}";
},
{
name = center;
position = "{813, 701}";
},
{
name = ogonek;
position = "{1215, 109}";
},
{
name = top;
position = "{813, 1400}";
},
{
name = topleft;
position = "{29, 1400}";
},
{
name = topright;
position = "{1230, 1260}";
}
);
layerId = "72F22432-F665-4153-96BB-74D91BCC5F28";
paths = (
{
closed = 1;
nodes = (
"1245 -18 OFFCURVE",
"1532 283 OFFCURVE",
"1532 698 CURVE SMOOTH",
"1532 1113 OFFCURVE",
"1245 1416 OFFCURVE",
"813 1416 CURVE SMOOTH",
"375 1416 OFFCURVE",
"95 1113 OFFCURVE",
"95 698 CURVE SMOOTH",
"95 283 OFFCURVE",
"377 -18 OFFCURVE",
"813 -18 CURVE SMOOTH"
);
},
{
closed = 1;
nodes = (
"475 52 OFFCURVE",
"431 438 OFFCURVE",
"431 748 CURVE SMOOTH",
"431 1058 OFFCURVE",
"475 1348 OFFCURVE",
"813 1348 CURVE SMOOTH",
"1149 1348 OFFCURVE",
"1195 960 OFFCURVE",
"1195 648 CURVE SMOOTH",
"1195 336 OFFCURVE",
"1149 52 OFFCURVE",
"813 52 CURVE SMOOTH"
);
}
);
width = 1627;
}
);
leftKerningGroup = O;
rightKerningGroup = O;
unicode = 004F;
},
{
glyphname = Ohorn;
lastChange = "2020-10-13 20:11:19 +0000";
layers = (
{
anchors = (
{
name = bottom;
position = "{781, 0}";
},
{
name = top;
position = "{781, 1400}";
}
);
components = (
{
name = horncomb;
transform = "{1, 0, 0, 1, 1140, 332}";
}
);
layerId = "14A1E899-FED4-4F52-86F4-A1F822586E10";
paths = (
{
closed = 1;
nodes = (
"1160 -18 OFFCURVE",
"1462 248 OFFCURVE",
"1462 698 CURVE SMOOTH",
"1462 1148 OFFCURVE",
"1160 1416 OFFCURVE",
"780 1416 CURVE SMOOTH",
"394 1416 OFFCURVE",
"100 1148 OFFCURVE",
"100 698 CURVE SMOOTH",
"100 248 OFFCURVE",
"396 -18 OFFCURVE",
"780 -18 CURVE SMOOTH"
);
},
{
closed = 1;
nodes = (
"433 42 OFFCURVE",
"243 327 OFFCURVE",
"243 725 CURVE SMOOTH",
"243 1123 OFFCURVE",
"433 1358 OFFCURVE",
"780 1358 CURVE SMOOTH",
"1126 1358 OFFCURVE",
"1318 1071 OFFCURVE",
"1318 671 CURVE SMOOTH",
"1318 271 OFFCURVE",
"1126 42 OFFCURVE",
"780 42 CURVE SMOOTH"
);
}
);
width = 1615;
},
{
anchors = (
{
name = bottom;
position = "{849, 0}";
},
{
name = top;
position = "{849, 1400}";
}
);
components = (
{
name = horncomb;
transform = "{1, 0, 0, 1, 1190, 332}";
}
);
layerId = "72F22432-F665-4153-96BB-74D91BCC5F28";
paths = (
{
closed = 1;
nodes = (
"1280 -18 OFFCURVE",
"1603 283 OFFCURVE",
"1603 698 CURVE SMOOTH",
"1603 1113 OFFCURVE",
"1280 1416 OFFCURVE",
"848 1416 CURVE SMOOTH",
"411 1416 OFFCURVE",
"95 1113 OFFCURVE",
"95 698 CURVE SMOOTH",
"95 283 OFFCURVE",
"412 -18 OFFCURVE",
"848 -18 CURVE SMOOTH"
);
},
{
closed = 1;
nodes = (
"501 42 OFFCURVE",
"467 437 OFFCURVE",
"467 748 CURVE SMOOTH",
"467 1058 OFFCURVE",
"501 1358 OFFCURVE",
"848 1358 CURVE SMOOTH",
"1195 1358 OFFCURVE",
"1231 960 OFFCURVE",
"1231 648 CURVE SMOOTH",
"1231 337 OFFCURVE",
"1195 42 OFFCURVE",
"848 42 CURVE SMOOTH"
);
}
);
width = 1698;
}
);
leftKerningGroup = O;
leftMetricsKey = O;
rightKerningGroup = O;
rightMetricsKey = O;
unicode = 01A0;
},
{
glyphname = Oslash;
lastChange = "2020-10-13 20:10:10 +0000";
layers = (
{
anchors = (
{
name = bottom;
position = "{849, 0}";
},
{
name = top;
position = "{849, 1400}";
}
);
components = (
{
name = O;
}
);
layerId = "14A1E899-FED4-4F52-86F4-A1F822586E10";
paths = (
{
closed = 1;
nodes = (
"605 -155 LINE",
"1183 1524 LINE",
"1095 1554 LINE",
"514 -125 LINE"
);
}
);
width = 1697;
},
{
anchors = (
{
name = bottom;
position = "{806, 0}";
},
{
name = top;
position = "{806, 1400}";
}
);
components = (
{
name = O;
}
);
layerId = "72F22432-F665-4153-96BB-74D91BCC5F28";
paths = (
{
closed = 1;
nodes = (
"574 -155 LINE",
"1124 1524 LINE",
"1040 1554 LINE",
"488 -125 LINE"
);
}
);
width = 1697;
}
);
unicode = 00D8;
},
{
glyphname = OE;
lastChange = "2020-10-13 20:24:18 +0000";
layers = (
{
anchors = (
{
name = bottom;
position = "{1212, 0}";
},
{
name = top;
position = "{1212, 1400}";
}
);
components = (
{
name = O;
}
);
layerId = "14A1E899-FED4-4F52-86F4-A1F822586E10";
paths = (
{
closed = 1;
nodes = (
"1773 703 LINE SMOOTH",
"1899 703 OFFCURVE",
"1912 652 OFFCURVE",
"1912 526 CURVE",
"1986 526 LINE",
"1986 934 LINE",
"1912 934 LINE",
"1912 826 OFFCURVE",
"1899 767 OFFCURVE",
"1773 767 CURVE SMOOTH",
"1448 767 LINE",
"1448 703 LINE"
);
},
{
closed = 1;
nodes = (
"1461 1336 LINE",
"1948 1336 LINE SMOOTH",
"2069 1336 OFFCURVE",
"2133 1184 OFFCURVE",
"2167 1044 CURVE",
"2225 1044 LINE",
"2177 1400 LINE",
"1345 1400 LINE",
"1345 0 LINE",
"2206 0 LINE",
"2253 396 LINE",
"2196 396 LINE",
"2161 246 OFFCURVE",
"2107 64 OFFCURVE",
"1951 64 CURVE SMOOTH",
"1461 64 LINE"
);
}
);
width = 2334;
},
{
anchors = (
{
name = bottom;
position = "{1151, 0}";
},
{
name = top;
position = "{1151, 1400}";
}
);
components = (
{
name = O;
}
);
layerId = "72F22432-F665-4153-96BB-74D91BCC5F28";
paths = (
{
closed = 1;
nodes = (
"1779 703 LINE SMOOTH",
"1773 703 OFFCURVE",
"1893 617 OFFCURVE",
"1893 509 CURVE",
"1999 509 LINE",
"1999 952 LINE",
"1893 952 LINE",
"1893 861 OFFCURVE",
"1773 767 OFFCURVE",
"1779 767 CURVE SMOOTH",
"1511 767 LINE",
"1511 703 LINE"
);
},
{
closed = 1;
nodes = (
"1536 1336 LINE",
"1874 1336 LINE SMOOTH",
"1988 1336 OFFCURVE",
"2157 1219 OFFCURVE",
"2189 1079 CURVE",
"2333 1079 LINE",
"2270 1400 LINE",
"1265 1400 LINE",
"1265 0 LINE",
"2333 0 LINE",
"2396 361 LINE",
"2252 361 LINE",
"2219 211 OFFCURVE",
"2060 64 OFFCURVE",
"1912 64 CURVE SMOOTH",
"1536 64 LINE"
);
}
);
width = 2477;
}
);
leftKerningGroup = O;
leftMetricsKey = O;
rightKerningGroup = E;
rightMetricsKey = E;
unicode = 0152;
},
{
glyphname = P;
lastChange = "2020-10-13 20:25:34 +0000";
layers = (
{
anchors = (
{
name = bottom;
position = "{571, 0}";
},
{
name = top;
position = "{571, 1400}";
}
);
layerId = "14A1E899-FED4-4F52-86F4-A1F822586E10";
paths = (
{
closed = 1;
nodes = (
"571 0 LINE",
"571 64 LINE",
"443 64 OFFCURVE",
"387 66 OFFCURVE",
"387 136 CURVE SMOOTH",
"387 1336 LINE",
"598 1336 LINE SMOOTH",
"845 1336 OFFCURVE",
"1005 1248 OFFCURVE",
"1005 958 CURVE SMOOTH",
"1005 698 OFFCURVE",
"845 608 OFFCURVE",
"598 608 CURVE SMOOTH",
"337 608 LINE",
"337 542 LINE",
"607 542 LINE SMOOTH",
"887 542 OFFCURVE",
"1149 710 OFFCURVE",
"1149 988 CURVE SMOOTH",
"1149 1266 OFFCURVE",
"887 1400 OFFCURVE",
"607 1400 CURVE SMOOTH",
"100 1400 LINE",
"100 1336 LINE",
"229 1336 OFFCURVE",
"284 1335 OFFCURVE",
"284 1285 CURVE SMOOTH",
"284 136 LINE SMOOTH",
"284 66 OFFCURVE",
"241 64 OFFCURVE",
"100 64 CURVE",
"100 0 LINE"
);
}
);
width = 1209;
},
{
anchors = (
{
name = bottom;
position = "{721, 0}";
},
{
name = top;
position = "{721, 1400}";
}
);
layerId = "72F22432-F665-4153-96BB-74D91BCC5F28";
paths = (
{
closed = 1;
nodes = (
"721 0 LINE",
"721 64 LINE",
"600 64 OFFCURVE",
"546 77 OFFCURVE",
"546 171 CURVE SMOOTH",
"546 1336 LINE",
"711 1336 LINE SMOOTH",
"952 1336 OFFCURVE",
"1008 1104 OFFCURVE",
"1008 958 CURVE SMOOTH",
"1008 788 OFFCURVE",
"951 608 OFFCURVE",
"711 608 CURVE SMOOTH",
"499 608 LINE",
"499 542 LINE",
"720 542 LINE SMOOTH",
"1057 542 OFFCURVE",
"1306 693 OFFCURVE",
"1306 988 CURVE SMOOTH",
"1306 1283 OFFCURVE",
"1057 1400 OFFCURVE",
"720 1400 CURVE SMOOTH",
"95 1400 LINE",
"95 1336 LINE",
"218 1336 OFFCURVE",
"270 1325 OFFCURVE",
"270 1250 CURVE SMOOTH",
"270 171 LINE SMOOTH",
"270 77 OFFCURVE",
"229 64 OFFCURVE",
"95 64 CURVE",
"95 0 LINE"
);
}
);
width = 1361;
}
);
leftKerningGroup = H;
leftMetricsKey = H;
rightKerningGroup = P;
rightMetricsKey = B;
unicode = 0050;
},
{
glyphname = Thorn;
lastChange = "2020-10-13 20:11:19 +0000";
layers = (
{
anchors = (
{
name = bottom;
position = "{559, 0}";
},
{
name = top;
position = "{559, 1400}";
}
);
components = (
{
name = I;
}
);
layerId = "14A1E899-FED4-4F52-86F4-A1F822586E10";
paths = (
{
closed = 1;
nodes = (
"356 1093 LINE",
"356 1029 LINE",
"487 1029 LINE SMOOTH",
"754 1029 OFFCURVE",
"894 951 OFFCURVE",
"894 731 CURVE SMOOTH",
"894 501 OFFCURVE",
"754 401 OFFCURVE",
"487 401 CURVE SMOOTH",
"326 401 LINE",
"326 335 LINE",
"496 335 LINE SMOOTH",
"786 335 OFFCURVE",
"1018 473 OFFCURVE",
"1018 731 CURVE SMOOTH",
"1018 989 OFFCURVE",
"786 1093 OFFCURVE",
"496 1093 CURVE SMOOTH"
);
}
);
width = 1118;
},
{
anchors = (
{
name = bottom;
position = "{656, 0}";
},
{
name = top;
position = "{656, 1400}";
}
);
components = (
{
name = I;
}
);
layerId = "72F22432-F665-4153-96BB-74D91BCC5F28";
paths = (
{
closed = 1;
nodes = (
"463 1128 LINE",
"463 1064 LINE",
"641 1064 LINE SMOOTH",
"884 1064 OFFCURVE",
"903 917 OFFCURVE",
"903 749 CURVE SMOOTH",
"903 538 OFFCURVE",
"870 366 OFFCURVE",
"641 366 CURVE SMOOTH",
"399 366 LINE",
"399 300 LINE",
"650 300 LINE SMOOTH",
"979 300 OFFCURVE",
"1217 473 OFFCURVE",
"1217 731 CURVE SMOOTH",
"1217 989 OFFCURVE",
"979 1128 OFFCURVE",
"650 1128 CURVE SMOOTH"
);
}
);
width = 1312;
}
);
leftKerningGroup = I;
leftMetricsKey = I;
rightMetricsKey = O;
unicode = 00DE;
},
{
glyphname = Q;
lastChange = "2020-11-04 18:28:52 +0000";
layers = (
{
anchors = (
{
name = bottom;
position = "{851, 0}";
},
{
name = top;
position = "{851, 1400}";
}
);
components = (
{
name = O;
}
);
layerId = "14A1E899-FED4-4F52-86F4-A1F822586E10";
paths = (
{
closed = 1;
nodes = (
"766 -180 OFFCURVE",
"872 -115 OFFCURVE",
"949 -115 CURVE SMOOTH",
"992 -115 OFFCURVE",
"1031 -123 OFFCURVE",
"1132 -151 CURVE SMOOTH",
"1207 -172 OFFCURVE",
"1279 -191 OFFCURVE",
"1344 -191 CURVE SMOOTH",
"1454 -191 OFFCURVE",
"1529 -144 OFFCURVE",
"1578 -86 CURVE",
"1534 -51 LINE",
"1498 -90 OFFCURVE",
"1430 -121 OFFCURVE",
"1382 -121 CURVE SMOOTH",
"1340 -121 OFFCURVE",
"1271 -96 OFFCURVE",
"1222 -78 CURVE SMOOTH",
"1148 -51 OFFCURVE",
"1098 -36 OFFCURVE",
"1040 -36 CURVE SMOOTH",
"907 -36 OFFCURVE",
"799 -83 OFFCURVE",
"723 -170 CURVE",
"712 -238 LINE"
);
},
{
closed = 1;
nodes = (
"781 -86 OFFCURVE",
"868 -28 OFFCURVE",
"1030 28 CURVE",
"811 -12 LINE",
"733 -44 OFFCURVE",
"667 -126 OFFCURVE",
"643 -192 CURVE",
"712 -238 LINE"
);
}
);
width = 1518;
},
{
anchors = (
{
name = bottom;
position = "{809, 0}";
},
{
name = top;
position = "{809, 1400}";
}
);
components = (
{
name = O;
}
);
layerId = "72F22432-F665-4153-96BB-74D91BCC5F28";
paths = (
{
closed = 1;
nodes = (
"825 -180 OFFCURVE",
"840 -166 OFFCURVE",
"948 -166 CURVE SMOOTH",
"1003 -166 OFFCURVE",
"1084 -179 OFFCURVE",
"1156 -200 CURVE SMOOTH",
"1231 -222 OFFCURVE",
"1301 -223 OFFCURVE",
"1359 -223 CURVE SMOOTH",
"1497 -223 OFFCURVE",
"1656 -160 OFFCURVE",
"1718 -86 CURVE",
"1670 -34 LINE",
"1600 -91 OFFCURVE",
"1558 -100 OFFCURVE",
"1513 -100 CURVE SMOOTH",
"1453 -100 OFFCURVE",
"1396 -82 OFFCURVE",
"1337 -59 CURVE SMOOTH",
"1276 -35 OFFCURVE",
"1224 -18 OFFCURVE",
"1132 -18 CURVE SMOOTH",
"966 -18 OFFCURVE",
"869 -83 OFFCURVE",
"797 -170 CURVE",
"777 -238 LINE"
);
},
{
closed = 1;
nodes = (
"842 -88 OFFCURVE",
"899 -32 OFFCURVE",
"1079 25 CURVE",
"873 18 LINE",
"800 -13 OFFCURVE",
"726 -91 OFFCURVE",
"703 -192 CURVE",
"777 -238 LINE"
);
}
);
width = 1653;
}
);
leftKerningGroup = O;
leftMetricsKey = O;
rightKerningGroup = O;
rightMetricsKey = "=O-160";
unicode = 0051;
},
{
glyphname = R;
lastChange = "2020-11-04 18:49:10 +0000";
layers = (
{
anchors = (
{
name = bottom;
position = "{688, 0}";
},
{
name = top;
position = "{688, 1400}";
}
);
layerId = "14A1E899-FED4-4F52-86F4-A1F822586E10";
paths = (
{
closed = 1;
nodes = (
"1268 0 LINE",
"1268 64 LINE",
"1158 64 OFFCURVE",
"1131 81 OFFCURVE",
"1084 163 CURVE SMOOTH",
"819 625 LINE SMOOTH",
"791 674 OFFCURVE",
"760 682 OFFCURVE",
"739 686 CURVE",
"871 703 OFFCURVE",
"1142 795 OFFCURVE",
"1142 1077 CURVE SMOOTH",
"1142 1315 OFFCURVE",
"939 1400 OFFCURVE",
"695 1400 CURVE SMOOTH",
"385 1400 LINE",
"385 1334 LINE",
"674 1334 LINE SMOOTH",
"866 1334 OFFCURVE",
"1004 1278 OFFCURVE",
"1004 1064 CURVE SMOOTH",
"1004 842 OFFCURVE",
"820 736 OFFCURVE",
"590 736 CURVE SMOOTH",
"329 736 LINE",
"329 672 LINE",
"571 672 LINE SMOOTH",
"641 672 OFFCURVE",
"682 627 OFFCURVE",
"733 539 CURVE SMOOTH",
"1047 0 LINE"
);
},
{
closed = 1;
nodes = (
"587 0 LINE",
"587 64 LINE",
"452 64 OFFCURVE",
"397 67 OFFCURVE",
"397 146 CURVE SMOOTH",
"397 1400 LINE",
"100 1400 LINE",
"100 1336 LINE",
"222 1336 OFFCURVE",
"291 1335 OFFCURVE",
"291 1274 CURVE SMOOTH",
"291 146 LINE SMOOTH",
"291 67 OFFCURVE",
"236 64 OFFCURVE",
"100 64 CURVE",
"100 0 LINE"
);
}
);
width = 1329;
},
{
anchors = (
{
name = bottom;
position = "{832, 0}";
},
{
name = top;
position = "{832, 1400}";
}
);
layerId = "72F22432-F665-4153-96BB-74D91BCC5F28";
paths = (
{
closed = 1;
nodes = (
"1452 0 LINE",
"1452 64 LINE",
"1378 64 OFFCURVE",
"1316 123 OFFCURVE",
"1271 193 CURVE SMOOTH",
"1023 578 LINE SMOOTH",
"993 625 OFFCURVE",
"960 689 OFFCURVE",
"882 694 CURVE",
"1005 699 OFFCURVE",
"1309 811 OFFCURVE",
"1309 1085 CURVE SMOOTH",
"1309 1338 OFFCURVE",
"1075 1400 OFFCURVE",
"783 1400 CURVE SMOOTH",
"545 1400 LINE",
"545 1334 LINE",
"763 1334 LINE SMOOTH",
"942 1334 OFFCURVE",
"1012 1238 OFFCURVE",
"1012 1054 CURVE SMOOTH",
"1012 875 OFFCURVE",
"903 736 OFFCURVE",
"739 736 CURVE SMOOTH",
"531 736 LINE",
"531 672 LINE",
"554 672 LINE SMOOTH",
"621 672 OFFCURVE",
"655 622 OFFCURVE",
"708 539 CURVE SMOOTH",
"1054 0 LINE"
);
},
{
closed = 1;
nodes = (
"736 0 LINE",
"736 64 LINE",
"608 64 OFFCURVE",
"556 83 OFFCURVE",
"556 181 CURVE SMOOTH",
"556 1400 LINE",
"95 1400 LINE",
"95 1336 LINE",
"225 1336 OFFCURVE",
"276 1324 OFFCURVE",
"276 1222 CURVE SMOOTH",
"276 181 LINE SMOOTH",
"276 83 OFFCURVE",
"224 64 OFFCURVE",
"95 64 CURVE",
"95 0 LINE"
);
}
);
width = 1513;
}
);
leftKerningGroup = H;
leftMetricsKey = H;
rightKerningGroup = R;
rightMetricsKey = "=E-20";
unicode = 0052;
},
{
glyphname = S;
lastChange = "2020-11-04 18:51:44 +0000";
layers = (
{
anchors = (
{
name = bottom;
position = "{522, 0}";
},
{
name = top;
position = "{532, 1400}";
}
);
layerId = "14A1E899-FED4-4F52-86F4-A1F822586E10";
paths = (
{
closed = 1;
nodes = (
"724 -26 OFFCURVE",
"972 92 OFFCURVE",
"972 370 CURVE SMOOTH",
"972 612 OFFCURVE",
"756 733 OFFCURVE",
"550 810 CURVE SMOOTH",
"352 884 OFFCURVE",
"194 967 OFFCURVE",
"194 1122 CURVE SMOOTH",
"194 1318 OFFCURVE",
"406 1356 OFFCURVE",
"528 1356 CURVE SMOOTH",
"673 1356 OFFCURVE",
"817 1308 OFFCURVE",
"845 1006 CURVE",
"883 1006 LINE",
"908 1318 LINE",
"864 1350 OFFCURVE",
"705 1422 OFFCURVE",
"531 1422 CURVE SMOOTH",
"329 1422 OFFCURVE",
"103 1344 OFFCURVE",
"103 1088 CURVE SMOOTH",
"103 861 OFFCURVE",
"299 777 OFFCURVE",
"520 694 CURVE SMOOTH",
"701 626 OFFCURVE",
"860 515 OFFCURVE",
"860 318 CURVE SMOOTH",
"860 132 OFFCURVE",
"686 40 OFFCURVE",
"535 40 CURVE SMOOTH",
"333 40 OFFCURVE",
"176 120 OFFCURVE",
"148 488 CURVE",
"110 488 LINE",
"80 135 LINE",
"179 28 OFFCURVE",
"330 -26 OFFCURVE",
"525 -26 CURVE SMOOTH"
);
}
);
width = 1062;
},
{
anchors = (
{
name = bottom;
position = "{647, 0}";
},
{
name = top;
position = "{656, 1400}";
}
);
layerId = "72F22432-F665-4153-96BB-74D91BCC5F28";
paths = (
{
closed = 1;
nodes = (
"891 -26 OFFCURVE",
"1243 37 OFFCURVE",
"1243 386 CURVE SMOOTH",
"1243 671 OFFCURVE",
"986 762 OFFCURVE",
"741 828 CURVE SMOOTH",
"548 880 OFFCURVE",
"342 948 OFFCURVE",
"342 1115 CURVE SMOOTH",
"342 1311 OFFCURVE",
"513 1356 OFFCURVE",
"682 1356 CURVE SMOOTH",
"933 1356 OFFCURVE",
"997 1193 OFFCURVE",
"1025 992 CURVE",
"1147 992 LINE",
"1198 1269 LINE",
"1127 1334 OFFCURVE",
"968 1422 OFFCURVE",
"679 1422 CURVE SMOOTH",
"434 1422 OFFCURVE",
"129 1309 OFFCURVE",
"129 1051 CURVE SMOOTH",
"129 808 OFFCURVE",
"316 682 OFFCURVE",
"548 613 CURVE SMOOTH",
"780 544 OFFCURVE",
"997 454 OFFCURVE",
"997 279 CURVE SMOOTH",
"997 93 OFFCURVE",
"839 40 OFFCURVE",
"661 40 CURVE SMOOTH",
"455 40 OFFCURVE",
"306 200 OFFCURVE",
"300 453 CURVE",
"178 453 LINE",
"114 83 LINE",
"244 28 OFFCURVE",
"472 -26 OFFCURVE",
"670 -26 CURVE SMOOTH"
);
}
);
width = 1339;
}
);
leftKerningGroup = S;
rightKerningGroup = S;
unicode = 0053;
},
{
glyphname = Germandbls;
lastChange = "2020-10-13 20:11:19 +0000";
layers = (
{
anchors = (
{
name = bottom;
position = "{583, 0}";
},
{
name = top;
position = "{583, 1400}";
}
);
layerId = "14A1E899-FED4-4F52-86F4-A1F822586E10";
paths = (
{
closed = 1;
nodes = (
"1028 1336 LINE",
"1028 1400 LINE",
"249 1400 LINE",
"249 132 LINE SMOOTH",
"249 70 OFFCURVE",
"206 64 OFFCURVE",
"100 64 CURVE",
"100 0 LINE",
"357 0 LINE",
"357 1324 LINE",
"932 1324 LINE",
"935 1349 LINE",
"560 918 LINE",
"580 838 LINE",
"800 833 OFFCURVE",
"980 742 OFFCURVE",
"980 406 CURVE SMOOTH",
"980 120 OFFCURVE",
"819 42 OFFCURVE",
"724 42 CURVE SMOOTH",
"605 42 OFFCURVE",
"556 67 OFFCURVE",
"545 245 CURVE",
"498 245 LINE",
"436 58 LINE",
"495 9 OFFCURVE",
"585 -24 OFFCURVE",
"703 -24 CURVE SMOOTH",
"849 -24 OFFCURVE",
"1106 70 OFFCURVE",
"1106 444 CURVE SMOOTH",
"1106 800 OFFCURVE",
"810 905 OFFCURVE",
"650 905 CURVE"
);
}
);
width = 1166;
},
{
anchors = (
{
name = bottom;
position = "{650, 0}";
},
{
name = top;
position = "{650, 1400}";
}
);
layerId = "72F22432-F665-4153-96BB-74D91BCC5F28";
paths = (
{
closed = 1;
nodes = (
"1116 1336 LINE",
"1116 1400 LINE",
"237 1400 LINE",
"237 167 LINE SMOOTH",
"237 105 OFFCURVE",
"196 64 OFFCURVE",
"95 64 CURVE",
"95 0 LINE",
"479 0 LINE",
"479 1324 LINE",
"1025 1324 LINE",
"1010 1349 LINE",
"654 918 LINE",
"673 838 LINE",
"828 835 OFFCURVE",
"981 724 OFFCURVE",
"981 389 CURVE SMOOTH",
"981 103 OFFCURVE",
"919 49 OFFCURVE",
"829 49 CURVE SMOOTH",
"716 49 OFFCURVE",
"685 112 OFFCURVE",
"673 264 CURVE",
"593 264 LINE",
"534 41 LINE",
"608 9 OFFCURVE",
"695 -24 OFFCURVE",
"807 -24 CURVE SMOOTH",
"946 -24 OFFCURVE",
"1244 53 OFFCURVE",
"1244 462 CURVE SMOOTH",
"1244 835 OFFCURVE",
"908 905 OFFCURVE",
"757 905 CURVE"
);
}
);
width = 1299;
}
);
leftKerningGroup = L;
leftMetricsKey = L;
rightKerningGroup = B;
rightMetricsKey = B;
unicode = 1E9E;
},
{
glyphname = T;
lastChange = "2020-10-13 20:29:42 +0000";
layers = (
{
anchors = (
{
name = bottom;
position = "{680, 0}";
},
{
name = center;
position = "{680, 700}";
},
{
name = top;
position = "{680, 1400}";
}
);
layerId = "14A1E899-FED4-4F52-86F4-A1F822586E10";
paths = (
{
closed = 1;
nodes = (
"921 0 LINE",
"921 64 LINE",
"803 64 OFFCURVE",
"737 64 OFFCURVE",
"737 153 CURVE SMOOTH",
"737 1400 LINE",
"624 1400 LINE",
"624 153 LINE SMOOTH",
"624 66 OFFCURVE",
"568 64 OFFCURVE",
"440 64 CURVE",
"440 0 LINE"
);
},
{
closed = 1;
nodes = (
"126 994 LINE",
"161 1164 OFFCURVE",
"210 1336 OFFCURVE",
"367 1336 CURVE SMOOTH",
"675 1336 LINE",
"675 1400 LINE",
"106 1400 LINE",
"59 994 LINE"
);
},
{
closed = 1;
nodes = (
"1300 994 LINE",
"1253 1400 LINE",
"684 1400 LINE",
"684 1336 LINE",
"992 1336 LINE SMOOTH",
"1149 1336 OFFCURVE",
"1198 1164 OFFCURVE",
"1233 994 CURVE"
);
}
);
width = 1359;
},
{
anchors = (
{
name = bottom;
position = "{768, 0}";
},
{
name = center;
position = "{768, 700}";
},
{
name = top;
position = "{768, 1400}";
}
);
layerId = "72F22432-F665-4153-96BB-74D91BCC5F28";
paths = (
{
closed = 1;
nodes = (
"1077 0 LINE",
"1077 64 LINE",
"965 64 OFFCURVE",
"902 87 OFFCURVE",
"902 188 CURVE SMOOTH",
"902 1400 LINE",
"634 1400 LINE",
"634 188 LINE SMOOTH",
"634 89 OFFCURVE",
"581 64 OFFCURVE",
"459 64 CURVE",
"459 0 LINE"
);
},
{
closed = 1;
nodes = (
"183 1049 LINE",
"218 1170 OFFCURVE",
"347 1336 OFFCURVE",
"431 1336 CURVE SMOOTH",
"693 1336 LINE",
"693 1400 LINE",
"99 1400 LINE",
"66 1049 LINE"
);
},
{
closed = 1;
nodes = (
"1470 1049 LINE",
"1437 1400 LINE",
"843 1400 LINE",
"843 1336 LINE",
"1105 1336 LINE SMOOTH",
"1190 1336 OFFCURVE",
"1320 1169 OFFCURVE",
"1353 1049 CURVE"
);
}
);
width = 1536;
}
);
leftKerningGroup = T;
rightKerningGroup = T;
unicode = 0054;
},
{
glyphname = Tbar;
lastChange = "2020-10-13 20:10:10 +0000";
layers = (
{
components = (
{
name = T;
}
);
layerId = "14A1E899-FED4-4F52-86F4-A1F822586E10";
paths = (
{
closed = 1;
nodes = (
"991 669 LINE",
"991 741 LINE",
"369 741 LINE",
"369 669 LINE"
);
}
);
width = 1359;
},
{
components = (
{
name = T;
}
);
layerId = "72F22432-F665-4153-96BB-74D91BCC5F28";
paths = (
{
closed = 1;
nodes = (
"1160 652 LINE",
"1160 741 LINE",
"376 741 LINE",
"376 652 LINE"
);
}
);
width = 1496;
}
);
unicode = 0166;
},
{
glyphname = U;
lastChange = "2020-11-04 18:26:19 +0000";
layers = (
{
anchors = (
{
name = bottom;
position = "{768, 0}";
},
{
name = ogonek;
position = "{1180, 157}";
},
{
name = top;
position = "{768, 1400}";
},
{
name = topright;
position = "{1445, 1400}";
}
);
layerId = "14A1E899-FED4-4F52-86F4-A1F822586E10";
paths = (
{
closed = 1;
nodes = (
"1038 -34 OFFCURVE",
"1283 114 OFFCURVE",
"1283 520 CURVE SMOOTH",
"1283 1286 LINE SMOOTH",
"1283 1335 OFFCURVE",
"1338 1336 OFFCURVE",
"1467 1336 CURVE",
"1467 1400 LINE",
"1000 1400 LINE",
"1000 1336 LINE",
"1128 1336 OFFCURVE",
"1184 1335 OFFCURVE",
"1184 1286 CURVE SMOOTH",
"1184 494 LINE SMOOTH",
"1184 164 OFFCURVE",
"992 44 OFFCURVE",
"799 44 CURVE SMOOTH",
"543 44 OFFCURVE",
"369 154 OFFCURVE",
"369 494 CURVE SMOOTH",
"369 1286 LINE SMOOTH",
"369 1335 OFFCURVE",
"425 1336 OFFCURVE",
"553 1336 CURVE",
"553 1400 LINE",
"70 1400 LINE",
"70 1336 LINE",
"199 1336 OFFCURVE",
"254 1335 OFFCURVE",
"254 1286 CURVE SMOOTH",
"254 500 LINE SMOOTH",
"254 74 OFFCURVE",
"516 -34 OFFCURVE",
"776 -34 CURVE SMOOTH"
);
}
);
width = 1537;
},
{
anchors = (
{
name = bottom;
position = "{800, 0}";
},
{
name = ogonek;
position = "{1273, 157}";
},
{
name = top;
position = "{820, 1400}";
},
{
name = topright;
position = "{1496, 1400}";
}
);
layerId = "72F22432-F665-4153-96BB-74D91BCC5F28";
paths = (
{
closed = 1;
nodes = (
"1091 -34 OFFCURVE",
"1378 69 OFFCURVE",
"1378 490 CURVE SMOOTH",
"1378 1251 LINE SMOOTH",
"1378 1323 OFFCURVE",
"1430 1336 OFFCURVE",
"1553 1336 CURVE",
"1553 1400 LINE",
"1074 1400 LINE",
"1074 1336 LINE",
"1195 1336 OFFCURVE",
"1248 1323 OFFCURVE",
"1248 1251 CURVE SMOOTH",
"1248 442 LINE SMOOTH",
"1248 164 OFFCURVE",
"1085 44 OFFCURVE",
"914 44 CURVE SMOOTH",
"674 44 OFFCURVE",
"524 189 OFFCURVE",
"524 494 CURVE SMOOTH",
"524 1251 LINE SMOOTH",
"524 1323 OFFCURVE",
"577 1336 OFFCURVE",
"699 1336 CURVE",
"699 1400 LINE",
"65 1400 LINE",
"65 1336 LINE",
"188 1336 OFFCURVE",
"240 1323 OFFCURVE",
"240 1251 CURVE SMOOTH",
"240 500 LINE SMOOTH",
"240 74 OFFCURVE",
"543 -34 OFFCURVE",
"843 -34 CURVE SMOOTH"
);
}
);
width = 1618;
}
);
leftKerningGroup = U;
leftMetricsKey = "=H-30";
rightKerningGroup = U;
rightMetricsKey = "=H-30";
unicode = 0055;
},
{
glyphname = Uhorn;
lastChange = "2020-10-14 21:21:20 +0000";
layers = (
{
anchors = (
{
name = bottom;
position = "{774, 0}";
},
{
name = top;
position = "{774, 1400}";
}
);
components = (
{
name = horncomb;
transform = "{1, 0, 0, 1, 1368, 472}";
}
);
layerId = "14A1E899-FED4-4F52-86F4-A1F822586E10";
paths = (
{
closed = 1;
nodes = (
"1038 -34 OFFCURVE",
"1283 114 OFFCURVE",
"1283 520 CURVE SMOOTH",
"1283 1286 LINE SMOOTH",
"1283 1335 OFFCURVE",
"1338 1336 OFFCURVE",
"1467 1336 CURVE",
"1467 1400 LINE",
"1000 1400 LINE",
"1000 1336 LINE",
"1128 1336 OFFCURVE",
"1184 1335 OFFCURVE",
"1184 1286 CURVE SMOOTH",
"1184 494 LINE SMOOTH",
"1184 164 OFFCURVE",
"992 44 OFFCURVE",
"799 44 CURVE SMOOTH",
"543 44 OFFCURVE",
"369 154 OFFCURVE",
"369 494 CURVE SMOOTH",
"369 1286 LINE SMOOTH",
"369 1335 OFFCURVE",
"425 1336 OFFCURVE",
"553 1336 CURVE",
"553 1400 LINE",
"70 1400 LINE",
"70 1336 LINE",
"199 1336 OFFCURVE",
"254 1335 OFFCURVE",
"254 1286 CURVE SMOOTH",
"254 500 LINE SMOOTH",
"254 74 OFFCURVE",
"516 -34 OFFCURVE",
"776 -34 CURVE SMOOTH"
);
}
);
width = 1613;
},
{
anchors = (
{
name = bottom;
position = "{805, 0}";
},
{
name = top;
position = "{805, 1400}";
}
);
components = (
{
name = horncomb;
transform = "{1, 0, 0, 1, 1459, 472}";
}
);
layerId = "72F22432-F665-4153-96BB-74D91BCC5F28";
paths = (
{
closed = 1;
nodes = (
"1091 -34 OFFCURVE",
"1378 79 OFFCURVE",
"1378 520 CURVE SMOOTH",
"1378 1251 LINE SMOOTH",
"1378 1323 OFFCURVE",
"1430 1336 OFFCURVE",
"1553 1336 CURVE",
"1553 1400 LINE",
"1074 1400 LINE",
"1074 1336 LINE",
"1195 1336 OFFCURVE",
"1248 1323 OFFCURVE",
"1248 1251 CURVE SMOOTH",
"1248 442 LINE SMOOTH",
"1248 164 OFFCURVE",
"1085 44 OFFCURVE",
"954 44 CURVE SMOOTH",
"694 44 OFFCURVE",
"524 189 OFFCURVE",
"524 494 CURVE SMOOTH",
"524 1251 LINE SMOOTH",
"524 1323 OFFCURVE",
"577 1336 OFFCURVE",
"699 1336 CURVE",
"699 1400 LINE",
"65 1400 LINE",
"65 1336 LINE",
"188 1336 OFFCURVE",
"240 1323 OFFCURVE",
"240 1251 CURVE SMOOTH",
"240 500 LINE SMOOTH",
"240 74 OFFCURVE",
"543 -34 OFFCURVE",
"843 -34 CURVE SMOOTH"
);
}
);
width = 1706;
}
);
leftKerningGroup = U;
leftMetricsKey = U;
rightKerningGroup = U;
rightMetricsKey = "=U-200";
unicode = 01AF;
},
{
glyphname = V;
lastChange = "2020-10-29 17:03:03 +0000";
layers = (
{
anchors = (
{
name = bottom;
position = "{650, 0}";
},
{
name = top;
position = "{650, 1400}";
}
);
layerId = "14A1E899-FED4-4F52-86F4-A1F822586E10";
paths = (
{
closed = 1;
nodes = (
"714 0 LINE",
"1181 1272 LINE SMOOTH",
"1203 1331 OFFCURVE",
"1252 1336 OFFCURVE",
"1346 1336 CURVE",
"1346 1400 LINE",
"946 1400 LINE",
"946 1336 LINE",
"1069 1336 OFFCURVE",
"1106 1334 OFFCURVE",
"1106 1305 CURVE SMOOTH",
"1106 1295 OFFCURVE",
"1102 1275 OFFCURVE",
"1094 1254 CURVE SMOOTH",
"713 227 LINE",
"328 1265 LINE SMOOTH",
"321 1284 OFFCURVE",
"317 1296 OFFCURVE",
"317 1310 CURVE SMOOTH",
"317 1334 OFFCURVE",
"347 1336 OFFCURVE",
"481 1336 CURVE",
"481 1400 LINE",
"25 1400 LINE",
"25 1336 LINE",
"121 1336 OFFCURVE",
"181 1331 OFFCURVE",
"203 1272 CURVE SMOOTH",
"673 0 LINE"
);
}
);
width = 1368;
},
{
anchors = (
{
name = bottom;
position = "{797, 0}";
},
{
name = top;
position = "{797, 1400}";
}
);
layerId = "72F22432-F665-4153-96BB-74D91BCC5F28";
paths = (
{
closed = 1;
nodes = (
"822 0 LINE",
"1373 1272 LINE SMOOTH",
"1399 1331 OFFCURVE",
"1492 1336 OFFCURVE",
"1581 1336 CURVE",
"1581 1400 LINE",
"1119 1400 LINE",
"1119 1336 LINE",
"1204 1336 OFFCURVE",
"1265 1332 OFFCURVE",
"1265 1286 CURVE SMOOTH",
"1265 1272 OFFCURVE",
"1262 1255 OFFCURVE",
"1254 1236 CURVE SMOOTH",
"880 346 LINE",
"550 1228 LINE SMOOTH",
"542 1249 OFFCURVE",
"537 1270 OFFCURVE",
"537 1282 CURVE SMOOTH",
"537 1334 OFFCURVE",
"602 1336 OFFCURVE",
"681 1336 CURVE",
"681 1400 LINE",
"24 1400 LINE",
"24 1336 LINE",
"115 1336 OFFCURVE",
"205 1331 OFFCURVE",
"229 1272 CURVE SMOOTH",
"747 0 LINE"
);
}
);
width = 1605;
}
);
leftKerningGroup = V;
leftMetricsKey = A;
rightKerningGroup = V;
rightMetricsKey = A;
unicode = 0056;
},
{
glyphname = W;
lastChange = "2020-10-29 17:03:03 +0000";
layers = (
{
anchors = (
{
name = bottom;
position = "{1045, 0}";
},
{
name = top;
position = "{1050, 1400}";
}
);
layerId = "14A1E899-FED4-4F52-86F4-A1F822586E10";
paths = (
{
closed = 1;
nodes = (
"1394 0 LINE",
"1831 1272 LINE SMOOTH",
"1851 1331 OFFCURVE",
"1902 1336 OFFCURVE",
"1996 1336 CURVE",
"1996 1400 LINE",
"1596 1400 LINE",
"1596 1336 LINE",
"1719 1336 OFFCURVE",
"1756 1334 OFFCURVE",
"1756 1305 CURVE SMOOTH",
"1756 1292 OFFCURVE",
"1751 1275 OFFCURVE",
"1744 1254 CURVE SMOOTH",
"1395 237 LINE",
"1038 1265 LINE SMOOTH",
"1031 1286 OFFCURVE",
"1028 1296 OFFCURVE",
"1028 1310 CURVE SMOOTH",
"1028 1334 OFFCURVE",
"1057 1336 OFFCURVE",
"1191 1336 CURVE",
"1191 1400 LINE",
"735 1400 LINE",
"735 1336 LINE",
"831 1336 OFFCURVE",
"893 1331 OFFCURVE",
"913 1272 CURVE SMOOTH",
"1353 0 LINE"
);
},
{
closed = 1;
nodes = (
"684 0 LINE",
"1063 1102 LINE",
"1007 1174 LINE",
"685 237 LINE",
"328 1265 LINE SMOOTH",
"321 1286 OFFCURVE",
"318 1296 OFFCURVE",
"318 1310 CURVE SMOOTH",
"318 1334 OFFCURVE",
"347 1336 OFFCURVE",
"481 1336 CURVE",
"481 1400 LINE",
"25 1400 LINE",
"25 1336 LINE",
"120 1336 OFFCURVE",
"183 1331 OFFCURVE",
"203 1272 CURVE SMOOTH",
"643 0 LINE"
);
}
);
width = 2018;
},
{
anchors = (
{
name = bottom;
position = "{1164, 0}";
},
{
name = top;
position = "{1166, 1400}";
}
);
layerId = "72F22432-F665-4153-96BB-74D91BCC5F28";
paths = (
{
closed = 1;
nodes = (
"1596 0 LINE",
"2078 1272 LINE SMOOTH",
"2100 1331 OFFCURVE",
"2198 1336 OFFCURVE",
"2288 1336 CURVE",
"2288 1400 LINE",
"1827 1400 LINE",
"1827 1336 LINE",
"1913 1336 OFFCURVE",
"1978 1334 OFFCURVE",
"1978 1288 CURVE SMOOTH",
"1978 1275 OFFCURVE",
"1971 1258 OFFCURVE",
"1963 1236 CURVE SMOOTH",
"1660 410 LINE",
"1370 1228 LINE SMOOTH",
"1363 1248 OFFCURVE",
"1358 1268 OFFCURVE",
"1358 1282 CURVE SMOOTH",
"1358 1334 OFFCURVE",
"1464 1336 OFFCURVE",
"1543 1336 CURVE",
"1543 1400 LINE",
"868 1400 LINE",
"868 1336 LINE",
"959 1336 OFFCURVE",
"1010 1331 OFFCURVE",
"1032 1272 CURVE SMOOTH",
"1511 0 LINE"
);
},
{
closed = 1;
nodes = (
"793 0 LINE",
"1242 1183 LINE",
"1182 1297 LINE",
"853 410 LINE",
"567 1228 LINE SMOOTH",
"561 1245 OFFCURVE",
"554 1268 OFFCURVE",
"554 1282 CURVE SMOOTH",
"554 1334 OFFCURVE",
"619 1336 OFFCURVE",
"699 1336 CURVE",
"699 1400 LINE",
"24 1400 LINE",
"24 1336 LINE",
"114 1336 OFFCURVE",
"207 1331 OFFCURVE",
"229 1272 CURVE SMOOTH",
"708 0 LINE"
);
}
);
width = 2312;
}
);
leftKerningGroup = V;
leftMetricsKey = V;
rightKerningGroup = V;
rightMetricsKey = V;
unicode = 0057;
},
{
glyphname = X;
lastChange = "2020-10-29 17:03:03 +0000";
layers = (
{
anchors = (
{
name = bottom;
position = "{735, 0}";
},
{
name = top;
position = "{735, 1400}";
}
);
layerId = "14A1E899-FED4-4F52-86F4-A1F822586E10";
paths = (
{
closed = 1;
nodes = (
"1484 0 LINE",
"1484 64 LINE",
"1367 64 OFFCURVE",
"1324 65 OFFCURVE",
"1276 128 CURVE SMOOTH",
"425 1244 LINE SMOOTH",
"409 1265 OFFCURVE",
"395 1286 OFFCURVE",
"395 1299 CURVE SMOOTH",
"395 1335 OFFCURVE",
"438 1336 OFFCURVE",
"538 1336 CURVE",
"538 1400 LINE",
"104 1400 LINE",
"104 1336 LINE",
"204 1336 OFFCURVE",
"237 1312 OFFCURVE",
"267 1272 CURVE SMOOTH",
"1125 142 LINE SMOOTH",
"1141 121 OFFCURVE",
"1150 109 OFFCURVE",
"1150 97 CURVE SMOOTH",
"1150 75 OFFCURVE",
"1111 64 OFFCURVE",
"1002 64 CURVE",
"1002 0 LINE"
);
},
{
closed = 1;
nodes = (
"498 0 LINE",
"498 64 LINE",
"384 64 OFFCURVE",
"333 76 OFFCURVE",
"333 111 CURVE SMOOTH",
"333 124 OFFCURVE",
"340 139 OFFCURVE",
"353 156 CURVE SMOOTH",
"772 693 LINE",
"725 758 LINE",
"226 128 LINE SMOOTH",
"189 81 OFFCURVE",
"165 64 OFFCURVE",
"25 64 CURVE",
"25 0 LINE"
);
},
{
closed = 1;
nodes = (
"1230 1272 LINE SMOOTH",
"1264 1314 OFFCURVE",
"1280 1336 OFFCURVE",
"1431 1336 CURVE",
"1431 1400 LINE",
"958 1400 LINE",
"958 1336 LINE",
"1072 1336 OFFCURVE",
"1123 1322 OFFCURVE",
"1123 1287 CURVE SMOOTH",
"1123 1274 OFFCURVE",
"1116 1261 OFFCURVE",
"1103 1244 CURVE SMOOTH",
"684 707 LINE",
"731 642 LINE"
);
}
);
width = 1506;
},
{
anchors = (
{
name = bottom;
position = "{802, 0}";
},
{
name = top;
position = "{802, 1400}";
}
);
layerId = "72F22432-F665-4153-96BB-74D91BCC5F28";
paths = (
{
closed = 1;
nodes = (
"1532 0 LINE",
"1532 64 LINE",
"1420 64 OFFCURVE",
"1380 65 OFFCURVE",
"1334 128 CURVE SMOOTH",
"526 1244 LINE SMOOTH",
"511 1265 OFFCURVE",
"510 1276 OFFCURVE",
"510 1289 CURVE SMOOTH",
"510 1333 OFFCURVE",
"623 1336 OFFCURVE",
"669 1336 CURVE",
"669 1400 LINE",
"24 1400 LINE",
"24 1336 LINE",
"114 1336 OFFCURVE",
"147 1316 OFFCURVE",
"179 1272 CURVE SMOOTH",
"976 166 LINE SMOOTH",
"991 145 OFFCURVE",
"1010 116 OFFCURVE",
"1010 105 CURVE SMOOTH",
"1010 66 OFFCURVE",
"937 64 OFFCURVE",
"841 64 CURVE",
"841 0 LINE"
);
},
{
closed = 1;
nodes = (
"573 0 LINE",
"573 64 LINE",
"465 64 OFFCURVE",
"417 76 OFFCURVE",
"417 111 CURVE SMOOTH",
"417 122 OFFCURVE",
"423 139 OFFCURVE",
"436 156 CURVE SMOOTH",
"834 693 LINE",
"757 758 LINE",
"283 128 LINE SMOOTH",
"248 81 OFFCURVE",
"191 64 OFFCURVE",
"56 64 CURVE",
"56 0 LINE"
);
},
{
closed = 1;
nodes = (
"1305 1272 LINE SMOOTH",
"1340 1319 OFFCURVE",
"1398 1336 OFFCURVE",
"1531 1336 CURVE",
"1531 1400 LINE",
"1014 1400 LINE",
"1014 1336 LINE",
"1122 1336 OFFCURVE",
"1171 1322 OFFCURVE",
"1171 1287 CURVE SMOOTH",
"1171 1272 OFFCURVE",
"1163 1259 OFFCURVE",
"1152 1244 CURVE SMOOTH",
"754 707 LINE",
"831 642 LINE"
);
}
);
width = 1556;
}
);
leftKerningGroup = X;
leftMetricsKey = A;
rightKerningGroup = X;
rightMetricsKey = A;
unicode = 0058;
},
{
glyphname = Y;
lastChange = "2020-11-04 18:25:56 +0000";
layers = (
{
anchors = (
{
name = bottom;
position = "{600, 0}";
},
{
name = top;
position = "{600, 1400}";
},
{
name = topleft;
position = "{-123, 1400}";
}
);
layerId = "14A1E899-FED4-4F52-86F4-A1F822586E10";
paths = (
{
closed = 1;
nodes = (
"900 0 LINE",
"900 64 LINE",
"764 64 OFFCURVE",
"709 69 OFFCURVE",
"709 136 CURVE SMOOTH",
"709 639 LINE",
"1111 1272 LINE SMOOTH",
"1145 1325 OFFCURVE",
"1154 1336 OFFCURVE",
"1275 1336 CURVE",
"1275 1400 LINE",
"900 1400 LINE",
"900 1336 LINE",
"1014 1336 OFFCURVE",
"1026 1331 OFFCURVE",
"1026 1307 CURVE SMOOTH",
"1026 1293 OFFCURVE",
"1019 1272 OFFCURVE",
"1009 1257 CURVE SMOOTH",
"673 725 LINE",
"338 1251 LINE SMOOTH",
"321 1277 OFFCURVE",
"314 1294 OFFCURVE",
"314 1307 CURVE SMOOTH",
"314 1329 OFFCURVE",
"350 1336 OFFCURVE",
"442 1336 CURVE",
"442 1400 LINE",
"25 1400 LINE",
"25 1336 LINE",
"147 1336 OFFCURVE",
"161 1315 OFFCURVE",
"189 1272 CURVE SMOOTH",
"603 639 LINE",
"603 136 LINE SMOOTH",
"603 69 OFFCURVE",
"548 64 OFFCURVE",
"412 64 CURVE",
"412 0 LINE"
);
}
);
width = 1297;
},
{
anchors = (
{
name = bottom;
position = "{785, 0}";
},
{
name = top;
position = "{785, 1400}";
},
{
name = topleft;
position = "{98, 1400}";
}
);
layerId = "72F22432-F665-4153-96BB-74D91BCC5F28";
paths = (
{
closed = 1;
nodes = (
"1070 0 LINE",
"1070 64 LINE",
"941 64 OFFCURVE",
"888 69 OFFCURVE",
"888 171 CURVE SMOOTH",
"888 639 LINE",
"1270 1272 LINE SMOOTH",
"1306 1332 OFFCURVE",
"1342 1336 OFFCURVE",
"1462 1336 CURVE",
"1462 1400 LINE",
"1052 1400 LINE",
"1052 1336 LINE",
"1160 1336 OFFCURVE",
"1172 1331 OFFCURVE",
"1172 1307 CURVE SMOOTH",
"1172 1291 OFFCURVE",
"1165 1272 OFFCURVE",
"1156 1257 CURVE SMOOTH",
"852 765 LINE",
"554 1251 LINE SMOOTH",
"538 1277 OFFCURVE",
"531 1294 OFFCURVE",
"531 1307 CURVE SMOOTH",
"531 1329 OFFCURVE",
"565 1336 OFFCURVE",
"653 1336 CURVE",
"653 1400 LINE",
"24 1400 LINE",
"24 1336 LINE",
"166 1336 OFFCURVE",
"191 1311 OFFCURVE",
"215 1272 CURVE SMOOTH",
"609 639 LINE",
"609 171 LINE SMOOTH",
"609 69 OFFCURVE",
"557 64 OFFCURVE",
"427 64 CURVE",
"427 0 LINE"
);
}
);
width = 1486;
}
);
leftKerningGroup = V;
leftMetricsKey = V;
rightKerningGroup = V;
rightMetricsKey = V;
unicode = 0059;
},
{
glyphname = Z;
lastChange = "2020-10-13 20:30:52 +0000";
layers = (
{
anchors = (
{
name = bottom;
position = "{673, 0}";
},
{
name = center;
position = "{673, 700}";
},
{
name = top;
position = "{673, 1400}";
}
);
layerId = "14A1E899-FED4-4F52-86F4-A1F822586E10";
paths = (
{
closed = 1;
nodes = (
"661 0 LINE",
"619 64 LINE",
"269 64 LINE",
"1131 1338 LINE",
"1131 1400 LINE",
"689 1400 LINE",
"623 1336 LINE",
"1011 1336 LINE",
"145 64 LINE",
"145 0 LINE"
);
},
{
closed = 1;
nodes = (
"1079 0 LINE",
"1126 406 LINE",
"1059 406 LINE",
"1024 236 OFFCURVE",
"970 64 OFFCURVE",
"813 64 CURVE SMOOTH",
"550 64 LINE",
"550 0 LINE"
);
},
{
closed = 1;
nodes = (
"220 994 LINE",
"255 1164 OFFCURVE",
"309 1336 OFFCURVE",
"466 1336 CURVE SMOOTH",
"749 1336 LINE",
"749 1400 LINE",
"200 1400 LINE",
"153 994 LINE"
);
}
);
width = 1212;
},
{
anchors = (
{
name = bottom;
position = "{639, 0}";
},
{
name = center;
position = "{639, 700}";
},
{
name = top;
position = "{639, 1400}";
}
);
layerId = "72F22432-F665-4153-96BB-74D91BCC5F28";
paths = (
{
closed = 1;
nodes = (
"713 0 LINE",
"673 64 LINE",
"345 64 LINE",
"1195 1338 LINE",
"1195 1400 LINE",
"581 1400 LINE",
"518 1336 LINE",
"902 1336 LINE",
"48 64 LINE",
"48 0 LINE"
);
},
{
closed = 1;
nodes = (
"1146 0 LINE",
"1190 404 LINE",
"1089 404 LINE",
"1057 268 OFFCURVE",
"954 64 OFFCURVE",
"805 64 CURVE SMOOTH",
"578 64 LINE",
"578 0 LINE"
);
},
{
closed = 1;
nodes = (
"189 1067 LINE",
"222 1184 OFFCURVE",
"322 1336 OFFCURVE",
"408 1336 CURVE SMOOTH",
"646 1336 LINE",
"646 1400 LINE",
"134 1400 LINE",
"90 1067 LINE"
);
}
);
width = 1276;
}
);
leftKerningGroup = Z;
rightKerningGroup = Z;
rightMetricsKey = L;
unicode = 005A;
},
{
glyphname = a;
lastChange = "2020-11-04 18:51:14 +0000";
layers = (
{
anchors = (
{
name = bottom;
position = "{415, 0}";
},
{
name = ogonek;
position = "{799, 10}";
},
{
name = top;
position = "{402, 826}";
}
);
layerId = "14A1E899-FED4-4F52-86F4-A1F822586E10";
paths = (
{
closed = 1;
nodes = (
"397 -28 OFFCURVE",
"457 6 OFFCURVE",
"605 96 CURVE",
"615 -1 OFFCURVE",
"678 -19 OFFCURVE",
"723 -19 CURVE SMOOTH",
"760 -19 OFFCURVE",
"808 -9 OFFCURVE",
"835 22 CURVE",
"805 66 LINE",
"754 28 OFFCURVE",
"714 37 OFFCURVE",
"714 96 CURVE SMOOTH",
"714 506 LINE SMOOTH",
"714 810 OFFCURVE",
"544 847 OFFCURVE",
"422 847 CURVE SMOOTH",
"322 847 OFFCURVE",
"259 814 OFFCURVE",
"107 730 CURVE",
"107 504 LINE",
"250 561 LINE",
"198 693 LINE",
"264 735 OFFCURVE",
"343 781 OFFCURVE",
"419 781 CURVE SMOOTH",
"507 781 OFFCURVE",
"596 717 OFFCURVE",
"596 552 CURVE SMOOTH",
"596 504 LINE",
"288 409 LINE SMOOTH",
"146 365 OFFCURVE",
"65 307 OFFCURVE",
"65 177 CURVE SMOOTH",
"65 14 OFFCURVE",
"195 -28 OFFCURVE",
"288 -28 CURVE SMOOTH"
);
},
{
closed = 1;
nodes = (
"254 48 OFFCURVE",
"195 67 OFFCURVE",
"195 180 CURVE SMOOTH",
"195 266 OFFCURVE",
"234 314 OFFCURVE",
"296 335 CURVE SMOOTH",
"596 434 LINE",
"596 164 LINE",
"448 76 OFFCURVE",
"390 48 OFFCURVE",
"308 48 CURVE SMOOTH"
);
}
);
width = 845;
},
{
anchors = (
{
name = bottom;
position = "{466, 0}";
},
{
name = ogonek;
position = "{831, 10}";
},
{
name = top;
position = "{454, 826}";
}
);
layerId = "72F22432-F665-4153-96BB-74D91BCC5F28";
paths = (
{
closed = 1;
nodes = (
"422 -28 OFFCURVE",
"504 6 OFFCURVE",
"611 96 CURVE",
"620 34 OFFCURVE",
"681 -19 OFFCURVE",
"794 -19 CURVE SMOOTH",
"849 -19 OFFCURVE",
"919 -1 OFFCURVE",
"947 22 CURVE",
"918 76 LINE",
"873 41 OFFCURVE",
"832 53 OFFCURVE",
"832 106 CURVE SMOOTH",
"832 506 LINE SMOOTH",
"832 791 OFFCURVE",
"685 847 OFFCURVE",
"463 847 CURVE SMOOTH",
"381 847 OFFCURVE",
"252 791 OFFCURVE",
"97 719 CURVE",
"97 493 LINE",
"304 550 LINE",
"252 695 LINE",
"315 732 OFFCURVE",
"390 773 OFFCURVE",
"470 773 CURVE SMOOTH",
"553 773 OFFCURVE",
"602 717 OFFCURVE",
"602 552 CURVE SMOOTH",
"602 536 LINE",
"327 434 LINE SMOOTH",
"194 385 OFFCURVE",
"62 324 OFFCURVE",
"62 177 CURVE SMOOTH",
"62 15 OFFCURVE",
"184 -28 OFFCURVE",
"312 -28 CURVE SMOOTH"
);
},
{
closed = 1;
nodes = (
"353 71 OFFCURVE",
"313 111 OFFCURVE",
"313 205 CURVE SMOOTH",
"313 317 OFFCURVE",
"366 373 OFFCURVE",
"458 407 CURVE SMOOTH",
"602 461 LINE",
"602 179 LINE",
"501 88 OFFCURVE",
"457 71 OFFCURVE",
"404 71 CURVE SMOOTH"
);
}
);
width = 956;
}
);
leftKerningGroup = a;
leftMetricsKey = o;
rightKerningGroup = a;
unicode = 0061;
},
{
glyphname = ae;
lastChange = "2020-11-04 18:51:14 +0000";
layers = (
{
anchors = (
{
name = bottom;
position = "{687, 0}";
},
{
name = top;
position = "{666, 821}";
}
);
components = (
{
name = e;
transform = "{1, 0, 0, 1, 536, 0}";
}
);
layerId = "14A1E899-FED4-4F52-86F4-A1F822586E10";
paths = (
{
closed = 1;
nodes = (
"397 -28 OFFCURVE",
"457 6 OFFCURVE",
"605 96 CURVE SMOOTH",
"661 130 OFFCURVE",
"714 187 OFFCURVE",
"714 260 CURVE",
"714 506 LINE SMOOTH",
"714 810 OFFCURVE",
"544 842 OFFCURVE",
"412 842 CURVE SMOOTH",
"319 842 OFFCURVE",
"245 808 OFFCURVE",
"93 724 CURVE",
"93 498 LINE",
"236 555 LINE",
"184 687 LINE",
"250 729 OFFCURVE",
"343 776 OFFCURVE",
"419 776 CURVE SMOOTH",
"507 776 OFFCURVE",
"596 717 OFFCURVE",
"596 552 CURVE",
"596 538 LINE",
"288 419 LINE SMOOTH",
"148 365 OFFCURVE",
"65 317 OFFCURVE",
"65 187 CURVE SMOOTH",
"65 24 OFFCURVE",
"195 -28 OFFCURVE",
"288 -28 CURVE SMOOTH"
);
},
{
closed = 1;
nodes = (
"254 48 OFFCURVE",
"195 87 OFFCURVE",
"195 200 CURVE SMOOTH",
"195 266 OFFCURVE",
"224 317 OFFCURVE",
"285 341 CURVE SMOOTH",
"596 464 LINE",
"596 164 LINE",
"448 76 OFFCURVE",
"390 48 OFFCURVE",
"308 48 CURVE SMOOTH"
);
}
);
width = 1414;
},
{
anchors = (
{
name = bottom;
position = "{832, 0}";
},
{
name = top;
position = "{847, 821}";
}
);
components = (
{
name = e;
transform = "{1, 0, 0, 1, 661, 0}";
}
);
layerId = "72F22432-F665-4153-96BB-74D91BCC5F28";
paths = (
{
closed = 1;
nodes = (
"523 -28 OFFCURVE",
"618 14 OFFCURVE",
"706 73 CURVE SMOOTH",
"787 127 OFFCURVE",
"841 187 OFFCURVE",
"911 274 CURVE",
"911 471 LINE SMOOTH",
"911 745 OFFCURVE",
"800 842 OFFCURVE",
"535 842 CURVE SMOOTH",
"452 842 OFFCURVE",
"282 781 OFFCURVE",
"124 708 CURVE",
"124 430 LINE",
"350 487 LINE",
"291 691 LINE",
"359 730 OFFCURVE",
"434 776 OFFCURVE",
"523 776 CURVE SMOOTH",
"617 776 OFFCURVE",
"692 722 OFFCURVE",
"692 517 CURVE SMOOTH",
"692 522 LINE",
"417 436 LINE SMOOTH",
"248 383 OFFCURVE",
"62 313 OFFCURVE",
"62 189 CURVE SMOOTH",
"62 -44 OFFCURVE",
"274 -28 OFFCURVE",
"381 -28 CURVE SMOOTH"
);
},
{
closed = 1;
nodes = (
"401 43 OFFCURVE",
"337 108 OFFCURVE",
"337 230 CURVE SMOOTH",
"337 349 OFFCURVE",
"373 344 OFFCURVE",
"487 383 CURVE SMOOTH",
"692 454 LINE",
"692 147 LINE",
"628 99 OFFCURVE",
"549 43 OFFCURVE",
"470 43 CURVE SMOOTH"
);
}
);
width = 1625;
}
);
leftKerningGroup = a;
leftMetricsKey = a;
rightKerningGroup = e;
rightMetricsKey = e;
unicode = 00E6;
},
{
glyphname = b;
lastChange = "2020-10-29 17:06:37 +0000";
layers = (
{
anchors = (
{
name = bottom;
position = "{427, 0}";
},
{
name = top;
position = "{191, 1500}";
}
);
layerId = "14A1E899-FED4-4F52-86F4-A1F822586E10";
paths = (
{
closed = 1;
nodes = (
"684 -20 OFFCURVE",
"882 134 OFFCURVE",
"882 418 CURVE SMOOTH",
"882 754 OFFCURVE",
"686 847 OFFCURVE",
"545 847 CURVE SMOOTH",
"448 847 OFFCURVE",
"325 758 OFFCURVE",
"252 705 CURVE",
"252 617 LINE",
"345 690 OFFCURVE",
"447 769 OFFCURVE",
"526 769 CURVE SMOOTH",
"603 769 OFFCURVE",
"764 726 OFFCURVE",
"764 410 CURVE SMOOTH",
"764 187 OFFCURVE",
"629 51 OFFCURVE",
"495 51 CURVE SMOOTH",
"378 51 OFFCURVE",
"295 111 OFFCURVE",
"252 314 CURVE",
"208 224 LINE",
"244 30 OFFCURVE",
"385 -20 OFFCURVE",
"489 -20 CURVE SMOOTH"
);
},
{
closed = 1;
nodes = (
"216 0 LINE",
"253 214 LINE",
"253 1500 LINE",
"208 1500 LINE",
"-2 1430 LINE",
"-2 1376 LINE",
"119 1396 OFFCURVE",
"147 1399 OFFCURVE",
"147 1338 CURVE SMOOTH",
"147 0 LINE"
);
}
);
width = 947;
},
{
anchors = (
{
name = bottom;
position = "{513, 0}";
},
{
name = top;
position = "{288, 1500}";
}
);
layerId = "72F22432-F665-4153-96BB-74D91BCC5F28";
paths = (
{
closed = 1;
nodes = (
"756 -20 OFFCURVE",
"1016 134 OFFCURVE",
"1016 418 CURVE SMOOTH",
"1016 754 OFFCURVE",
"820 847 OFFCURVE",
"617 847 CURVE SMOOTH",
"525 847 OFFCURVE",
"415 775 OFFCURVE",
"346 723 CURVE",
"346 635 LINE",
"432 708 OFFCURVE",
"506 769 OFFCURVE",
"581 769 CURVE SMOOTH",
"690 769 OFFCURVE",
"763 633 OFFCURVE",
"763 352 CURVE SMOOTH",
"763 129 OFFCURVE",
"692 51 OFFCURVE",
"577 51 CURVE SMOOTH",
"466 51 OFFCURVE",
"387 111 OFFCURVE",
"346 314 CURVE",
"251 224 LINE",
"285 30 OFFCURVE",
"474 -20 OFFCURVE",
"572 -20 CURVE SMOOTH"
);
},
{
closed = 1;
nodes = (
"187 0 LINE",
"347 214 LINE",
"347 1500 LINE",
"295 1500 LINE",
"-20 1413 LINE",
"-20 1341 LINE",
"108 1363 OFFCURVE",
"122 1359 OFFCURVE",
"122 1303 CURVE SMOOTH",
"122 0 LINE"
);
}
);
width = 1078;
}
);
leftKerningGroup = b;
leftMetricsKey = "=i-50";
rightKerningGroup = o;
rightMetricsKey = o;
unicode = 0062;
},
{
glyphname = c;
lastChange = "2020-10-29 17:06:42 +0000";
layers = (
{
anchors = (
{
name = bottom;
position = "{443, 0}";
},
{
name = top;
position = "{460, 826}";
}
);
layerId = "14A1E899-FED4-4F52-86F4-A1F822586E10";
paths = (
{
closed = 1;
nodes = (
"619 -22 OFFCURVE",
"728 59 OFFCURVE",
"842 152 CURVE",
"802 206 LINE",
"708 128 OFFCURVE",
"620 57 OFFCURVE",
"484 57 CURVE SMOOTH",
"311 57 OFFCURVE",
"185 170 OFFCURVE",
"185 446 CURVE SMOOTH",
"185 684 OFFCURVE",
"349 784 OFFCURVE",
"478 784 CURVE SMOOTH",
"595 784 OFFCURVE",
"683 718 OFFCURVE",
"700 648 CURVE",
"668 476 LINE",
"811 506 LINE",
"792 676 LINE",
"733 774 OFFCURVE",
"644 850 OFFCURVE",
"482 850 CURVE SMOOTH",
"270 850 OFFCURVE",
"65 708 OFFCURVE",
"65 416 CURVE SMOOTH",
"65 150 OFFCURVE",
"240 -22 OFFCURVE",
"472 -22 CURVE SMOOTH"
);
}
);
width = 877;
},
{
anchors = (
{
name = bottom;
position = "{493, 0}";
},
{
name = top;
position = "{509, 826}";
}
);
layerId = "72F22432-F665-4153-96BB-74D91BCC5F28";
paths = (
{
closed = 1;
nodes = (
"713 -22 OFFCURVE",
"799 49 OFFCURVE",
"907 142 CURVE",
"869 196 LINE",
"750 99 OFFCURVE",
"688 73 OFFCURVE",
"615 73 CURVE SMOOTH",
"433 73 OFFCURVE",
"319 258 OFFCURVE",
"319 481 CURVE SMOOTH",
"319 701 OFFCURVE",
"439 784 OFFCURVE",
"526 784 CURVE SMOOTH",
"627 784 OFFCURVE",
"653 718 OFFCURVE",
"669 648 CURVE",
"635 476 LINE",
"860 506 LINE",
"842 676 LINE",
"786 774 OFFCURVE",
"683 850 OFFCURVE",
"530 850 CURVE SMOOTH",
"294 850 OFFCURVE",
"62 701 OFFCURVE",
"62 409 CURVE SMOOTH",
"62 143 OFFCURVE",
"246 -22 OFFCURVE",
"538 -22 CURVE SMOOTH"
);
}
);
width = 939;
}
);
leftKerningGroup = o;
leftMetricsKey = o;
rightKerningGroup = o;
rightMetricsKey = "=o-30";
unicode = 0063;
},
{
glyphname = d;
lastChange = "2020-11-04 18:50:12 +0000";
layers = (
{
anchors = (
{
name = bottom;
position = "{503, 0}";
},
{
name = center;
position = "{737, 1216}";
},
{
name = top;
position = "{503, 1500}";
},
{
name = topright;
position = "{934, 826}";
}
);
layerId = "14A1E899-FED4-4F52-86F4-A1F822586E10";
paths = (
{
closed = 1;
nodes = (
"526 -27 OFFCURVE",
"592 19 OFFCURVE",
"702 99 CURVE",
"702 -6 LINE",
"736 -27 LINE",
"913 0 LINE",
"913 53 LINE",
"831 53 OFFCURVE",
"809 59 OFFCURVE",
"809 121 CURVE SMOOTH",
"809 1500 LINE",
"764 1500 LINE",
"530 1430 LINE",
"530 1374 LINE",
"669 1404 OFFCURVE",
"702 1404 OFFCURVE",
"702 1340 CURVE SMOOTH",
"702 669 LINE",
"674 747 OFFCURVE",
"573 848 OFFCURVE",
"437 848 CURVE SMOOTH",
"251 848 OFFCURVE",
"65 724 OFFCURVE",
"65 418 CURVE SMOOTH",
"65 97 OFFCURVE",
"237 -27 OFFCURVE",
"410 -27 CURVE SMOOTH"
);
},
{
closed = 1;
nodes = (
"285 36 OFFCURVE",
"186 203 OFFCURVE",
"186 447 CURVE SMOOTH",
"186 663 OFFCURVE",
"312 777 OFFCURVE",
"438 777 CURVE SMOOTH",
"580 777 OFFCURVE",
"682 609 OFFCURVE",
"702 494 CURVE",
"702 174 LINE",
"607 100 OFFCURVE",
"518 36 OFFCURVE",
"434 36 CURVE SMOOTH"
);
}
);
width = 961;
},
{
anchors = (
{
name = bottom;
position = "{504, 0}";
},
{
name = center;
position = "{835, 1188}";
},
{
name = top;
position = "{540, 1500}";
},
{
name = topright;
position = "{949, 826}";
}
);
layerId = "72F22432-F665-4153-96BB-74D91BCC5F28";
paths = (
{
closed = 1;
nodes = (
"550 -27 OFFCURVE",
"619 13 OFFCURVE",
"729 95 CURVE",
"729 0 LINE",
"763 -23 LINE",
"1054 0 LINE",
"1054 71 LINE",
"965 71 OFFCURVE",
"955 83 OFFCURVE",
"955 129 CURVE SMOOTH",
"955 1500 LINE",
"903 1500 LINE",
"565 1413 LINE",
"565 1339 LINE",
"714 1373 OFFCURVE",
"729 1363 OFFCURVE",
"729 1305 CURVE SMOOTH",
"729 729 LINE",
"703 773 OFFCURVE",
"596 850 OFFCURVE",
"467 850 CURVE SMOOTH",
"257 850 OFFCURVE",
"62 724 OFFCURVE",
"62 418 CURVE SMOOTH",
"62 97 OFFCURVE",
"270 -27 OFFCURVE",
"433 -27 CURVE SMOOTH"
);
},
{
closed = 1;
nodes = (
"376 54 OFFCURVE",
"310 239 OFFCURVE",
"310 482 CURVE SMOOTH",
"310 698 OFFCURVE",
"394 779 OFFCURVE",
"478 779 CURVE SMOOTH",
"633 779 OFFCURVE",
"709 622 OFFCURVE",
"729 512 CURVE",
"729 170 LINE",
"628 96 OFFCURVE",
"559 54 OFFCURVE",
"518 54 CURVE SMOOTH"
);
}
);
width = 1084;
}
);
leftKerningGroup = o;
leftMetricsKey = o;
rightKerningGroup = l;
rightMetricsKey = i;
unicode = 0064;
},
{
glyphname = eth;
lastChange = "2020-10-13 20:11:19 +0000";
layers = (
{
components = (
{
name = o;
}
);
layerId = "14A1E899-FED4-4F52-86F4-A1F822586E10";
paths = (
{
closed = 1;
nodes = (
"555 1321 OFFCURVE",
"783 1008 OFFCURVE",
"783 512 CURVE",
"919 412 LINE",
"919 1026 OFFCURVE",
"590 1386 OFFCURVE",
"264 1442 CURVE",
"230 1385 LINE"
);
},
{
closed = 1;
nodes = (
"400 1089 LINE",
"711 1401 LINE",
"662 1450 LINE",
"351 1138 LINE"
);
}
);
width = 984;
},
{
components = (
{
name = o;
}
);
layerId = "72F22432-F665-4153-96BB-74D91BCC5F28";
paths = (
{
closed = 1;
nodes = (
"581 1321 OFFCURVE",
"726 930 OFFCURVE",
"726 512 CURVE",
"981 412 LINE",
"981 1025 OFFCURVE",
"615 1386 OFFCURVE",
"251 1442 CURVE",
"219 1385 LINE"
);
},
{
closed = 1;
nodes = (
"381 1089 LINE",
"676 1401 LINE",
"629 1450 LINE",
"334 1138 LINE"
);
}
);
width = 1043;
}
);
leftKerningGroup = o;
leftMetricsKey = o;
rightKerningGroup = o;
rightMetricsKey = o;
unicode = 00F0;
},
{
glyphname = dcroat;
lastChange = "2020-11-04 18:46:56 +0000";
layers = (
{
components = (
{
name = d;
}
);
layerId = "14A1E899-FED4-4F52-86F4-A1F822586E10";
paths = (
{
closed = 1;
nodes = (
"968 1147 LINE",
"968 1209 LINE",
"396 1209 LINE",
"396 1147 LINE"
);
}
);
width = 986;
},
{
components = (
{
name = d;
}
);
layerId = "72F22432-F665-4153-96BB-74D91BCC5F28";
paths = (
{
closed = 1;
nodes = (
"1081 1130 LINE",
"1081 1209 LINE",
"448 1209 LINE",
"448 1130 LINE"
);
}
);
width = 1081;
}
);
leftKerningGroup = d;
leftMetricsKey = d;
rightKerningGroup = d;
rightMetricsKey = "=d-30";
unicode = 0111;
},
{
glyphname = e;
lastChange = "2020-11-04 18:48:34 +0000";
layers = (
{
anchors = (
{
name = bottom;
position = "{459, 0}";
},
{
name = ogonek;
position = "{843, 142}";
},
{
name = top;
position = "{459, 826}";
}
);
layerId = "14A1E899-FED4-4F52-86F4-A1F822586E10";
paths = (
{
closed = 1;
nodes = (
"596 -22 OFFCURVE",
"701 60 OFFCURVE",
"813 152 CURVE",
"770 208 LINE",
"674 126 OFFCURVE",
"591 56 OFFCURVE",
"465 56 CURVE SMOOTH",
"320 56 OFFCURVE",
"189 156 OFFCURVE",
"189 465 CURVE",
"800 465 LINE",
"800 709 OFFCURVE",
"647 846 OFFCURVE",
"463 846 CURVE SMOOTH",
"271 846 OFFCURVE",
"65 715 OFFCURVE",
"65 433 CURVE SMOOTH",
"65 120 OFFCURVE",
"266 -22 OFFCURVE",
"448 -22 CURVE SMOOTH"
);
},
{
closed = 1;
nodes = (
"210 660 OFFCURVE",
"301 771 OFFCURVE",
"458 771 CURVE SMOOTH",
"601 771 OFFCURVE",
"663 671 OFFCURVE",
"676 539 CURVE",
"194 539 LINE"
);
}
);
width = 878;
},
{
anchors = (
{
name = bottom;
position = "{489, 0}";
},
{
name = ogonek;
position = "{925, 142}";
},
{
name = top;
position = "{489, 826}";
}
);
layerId = "72F22432-F665-4153-96BB-74D91BCC5F28";
paths = (
{
closed = 1;
nodes = (
"692 -22 OFFCURVE",
"783 44 OFFCURVE",
"897 142 CURVE",
"856 198 LINE",
"741 98 OFFCURVE",
"686 74 OFFCURVE",
"602 74 CURVE SMOOTH",
"438 74 OFFCURVE",
"322 224 OFFCURVE",
"322 448 CURVE",
"902 448 LINE",
"902 691 OFFCURVE",
"736 848 OFFCURVE",
"501 848 CURVE SMOOTH",
"272 848 OFFCURVE",
"62 715 OFFCURVE",
"62 416 CURVE SMOOTH",
"62 150 OFFCURVE",
"227 -22 OFFCURVE",
"524 -22 CURVE SMOOTH"
);
},
{
closed = 1;
nodes = (
"325 660 OFFCURVE",
"395 773 OFFCURVE",
"490 773 CURVE SMOOTH",
"590 773 OFFCURVE",
"654 666 OFFCURVE",
"656 522 CURVE",
"324 522 LINE"
);
}
);
width = 964;
}
);
leftKerningGroup = o;
leftMetricsKey = o;
rightKerningGroup = o;
rightMetricsKey = o;
unicode = 0065;
},
{
glyphname = f;
lastChange = "2020-10-29 17:41:49 +0000";
layers = (
{
anchors = (
{
name = bottom;
position = "{330, 0}";
},
{
name = top;
position = "{330, 1500}";
}
);
layerId = "14A1E899-FED4-4F52-86F4-A1F822586E10";
paths = (
{
closed = 1;
nodes = (
"461 0 LINE",
"461 64 LINE",
"351 64 OFFCURVE",
"323 65 OFFCURVE",
"323 122 CURVE SMOOTH",
"323 756 LINE",
"570 756 LINE",
"585 826 LINE",
"323 826 LINE",
"323 1264 LINE SMOOTH",
"323 1316 OFFCURVE",
"501 1447 OFFCURVE",
"535 1447 CURVE SMOOTH",
"551 1447 OFFCURVE",
"560 1436 OFFCURVE",
"560 1427 CURVE",
"543 1269 LINE",
"686 1299 LINE",
"659 1476 LINE",
"639 1494 OFFCURVE",
"595 1517 OFFCURVE",
"562 1517 CURVE SMOOTH",
"475 1517 OFFCURVE",
"213 1329 OFFCURVE",
"213 1264 CURVE SMOOTH",
"213 826 LINE",
"60 826 LINE",
"45 756 LINE",
"213 756 LINE",
"213 122 LINE SMOOTH",
"213 65 OFFCURVE",
"185 64 OFFCURVE",
"75 64 CURVE",
"75 0 LINE"
);
}
);
width = 686;
},
{
anchors = (
{
name = bottom;
position = "{374, 0}";
},
{
name = top;
position = "{374, 1500}";
}
);
layerId = "72F22432-F665-4153-96BB-74D91BCC5F28";
paths = (
{
closed = 1;
nodes = (
"534 0 LINE",
"534 64 LINE",
"430 64 OFFCURVE",
"421 91 OFFCURVE",
"421 157 CURVE SMOOTH",
"421 740 LINE",
"632 740 LINE",
"652 826 LINE",
"421 826 LINE",
"421 1317 LINE SMOOTH",
"421 1368 OFFCURVE",
"539 1430 OFFCURVE",
"561 1430 CURVE SMOOTH",
"567 1430 OFFCURVE",
"573 1427 OFFCURVE",
"577 1422 CURVE",
"565 1199 LINE",
"784 1269 LINE",
"758 1459 LINE",
"739 1475 OFFCURVE",
"679 1517 OFFCURVE",
"612 1517 CURVE SMOOTH",
"531 1517 OFFCURVE",
"204 1347 OFFCURVE",
"204 1282 CURVE SMOOTH",
"204 826 LINE",
"59 826 LINE",
"39 740 LINE",
"204 740 LINE",
"204 157 LINE SMOOTH",
"204 91 OFFCURVE",
"195 64 OFFCURVE",
"91 64 CURVE",
"91 0 LINE"
);
}
);
width = 775;
}
);
leftKerningGroup = f;
rightKerningGroup = f;
unicode = 0066;
},
{
glyphname = g;
lastChange = "2020-11-04 18:53:44 +0000";
layers = (
{
anchors = (
{
name = bottom;
position = "{468, -430}";
},
{
name = top;
position = "{488, 826}";
}
);
layerId = "14A1E899-FED4-4F52-86F4-A1F822586E10";
paths = (
{
closed = 1;
nodes = (
"662 -450 OFFCURVE",
"864 -356 OFFCURVE",
"864 -166 CURVE SMOOTH",
"864 23 OFFCURVE",
"662 51 OFFCURVE",
"440 76 CURVE SMOOTH",
"277 94 OFFCURVE",
"213 111 OFFCURVE",
"213 161 CURVE SMOOTH",
"213 195 OFFCURVE",
"226 218 OFFCURVE",
"261 241 CURVE",
"281 231 OFFCURVE",
"370 202 OFFCURVE",
"459 202 CURVE SMOOTH",
"632 202 OFFCURVE",
"838 293 OFFCURVE",
"838 524 CURVE SMOOTH",
"838 751 OFFCURVE",
"626 846 OFFCURVE",
"460 846 CURVE SMOOTH",
"303 846 OFFCURVE",
"82 752 OFFCURVE",
"82 524 CURVE SMOOTH",
"82 376 OFFCURVE",
"174 297 OFFCURVE",
"216 266 CURVE",
"173 239 OFFCURVE",
"128 202 OFFCURVE",
"128 143 CURVE SMOOTH",
"128 74 OFFCURVE",
"181 39 OFFCURVE",
"232 25 CURVE",
"184 12 OFFCURVE",
"56 -40 OFFCURVE",
"56 -177 CURVE SMOOTH",
"56 -369 OFFCURVE",
"263 -450 OFFCURVE",
"458 -450 CURVE SMOOTH"
);
},
{
closed = 1;
nodes = (
"292 -384 OFFCURVE",
"166 -325 OFFCURVE",
"166 -161 CURVE SMOOTH",
"166 -52 OFFCURVE",
"242 -16 OFFCURVE",
"291 4 CURVE",
"320 -4 OFFCURVE",
"352 -9 OFFCURVE",
"488 -25 CURVE SMOOTH",
"659 -45 OFFCURVE",
"763 -76 OFFCURVE",
"763 -195 CURVE SMOOTH",
"763 -302 OFFCURVE",
"623 -384 OFFCURVE",
"473 -384 CURVE SMOOTH"
);
},
{
closed = 1;
nodes = (
"341 268 OFFCURVE",
"202 325 OFFCURVE",
"202 533 CURVE SMOOTH",
"202 693 OFFCURVE",
"332 778 OFFCURVE",
"460 778 CURVE SMOOTH",
"604 778 OFFCURVE",
"726 700 OFFCURVE",
"726 501 CURVE SMOOTH",
"726 314 OFFCURVE",
"575 268 OFFCURVE",
"461 268 CURVE SMOOTH"
);
},
{
closed = 1;
nodes = (
"935 847 LINE",
"868 913 LINE",
"679 721 LINE",
"717 684 LINE"
);
}
);
width = 935;
},
{
anchors = (
{
name = bottom;
position = "{535, -430}";
},
{
name = top;
position = "{535, 826}";
}
);
layerId = "72F22432-F665-4153-96BB-74D91BCC5F28";
paths = (
{
closed = 1;
nodes = (
"715 -455 OFFCURVE",
"999 -349 OFFCURVE",
"999 -124 CURVE SMOOTH",
"999 65 OFFCURVE",
"777 98 OFFCURVE",
"548 129 CURVE SMOOTH",
"459 141 OFFCURVE",
"292 167 OFFCURVE",
"292 214 CURVE SMOOTH",
"292 227 OFFCURVE",
"318 247 OFFCURVE",
"351 260 CURVE",
"369 251 OFFCURVE",
"420 237 OFFCURVE",
"507 237 CURVE SMOOTH",
"715 237 OFFCURVE",
"916 351 OFFCURVE",
"916 547 CURVE SMOOTH",
"916 782 OFFCURVE",
"675 847 OFFCURVE",
"503 847 CURVE SMOOTH",
"318 847 OFFCURVE",
"100 777 OFFCURVE",
"100 547 CURVE SMOOTH",
"100 381 OFFCURVE",
"204 318 OFFCURVE",
"258 287 CURVE",
"142 244 OFFCURVE",
"123 183 OFFCURVE",
"123 140 CURVE SMOOTH",
"123 56 OFFCURVE",
"179 11 OFFCURVE",
"227 -5 CURVE",
"164 -24 OFFCURVE",
"53 -78 OFFCURVE",
"53 -197 CURVE SMOOTH",
"53 -396 OFFCURVE",
"283 -455 OFFCURVE",
"523 -455 CURVE SMOOTH"
);
},
{
closed = 1;
nodes = (
"329 -379 OFFCURVE",
"232 -308 OFFCURVE",
"232 -179 CURVE SMOOTH",
"232 -96 OFFCURVE",
"267 -59 OFFCURVE",
"304 -37 CURVE",
"330 -47 OFFCURVE",
"378 -59 OFFCURVE",
"567 -89 CURVE SMOOTH",
"758 -119 OFFCURVE",
"815 -140 OFFCURVE",
"815 -228 CURVE SMOOTH",
"815 -319 OFFCURVE",
"685 -379 OFFCURVE",
"542 -379 CURVE SMOOTH"
);
},
{
closed = 1;
nodes = (
"394 312 OFFCURVE",
"340 391 OFFCURVE",
"340 548 CURVE SMOOTH",
"340 690 OFFCURVE",
"406 779 OFFCURVE",
"510 779 CURVE SMOOTH",
"619 779 OFFCURVE",
"677 693 OFFCURVE",
"677 539 CURVE SMOOTH",
"677 392 OFFCURVE",
"616 312 OFFCURVE",
"509 312 CURVE SMOOTH"
);
},
{
closed = 1;
nodes = (
"1048 874 LINE",
"948 978 LINE",
"739 771 LINE",
"800 703 LINE"
);
}
);
width = 1045;
}
);
leftKerningGroup = o;
leftMetricsKey = "=o-9";
rightMetricsKey = "=o-65";
unicode = 0067;
},
{
glyphname = h;
lastChange = "2020-11-04 18:46:56 +0000";
layers = (
{
anchors = (
{
name = bottom;
position = "{491, 0}";
},
{
name = center;
position = "{491, 750}";
},
{
name = top;
position = "{248, 1400}";
}
);
layerId = "14A1E899-FED4-4F52-86F4-A1F822586E10";
paths = (
{
closed = 1;
nodes = (
"431 0 LINE",
"431 64 LINE",
"321 64 OFFCURVE",
"303 69 OFFCURVE",
"303 122 CURVE SMOOTH",
"303 603 LINE",
"442 709 OFFCURVE",
"528 767 OFFCURVE",
"597 767 CURVE SMOOTH",
"666 767 OFFCURVE",
"748 729 OFFCURVE",
"748 592 CURVE SMOOTH",
"748 122 LINE SMOOTH",
"748 69 OFFCURVE",
"730 64 OFFCURVE",
"620 64 CURVE",
"620 0 LINE",
"984 0 LINE",
"984 64 LINE",
"874 64 OFFCURVE",
"856 69 OFFCURVE",
"856 122 CURVE SMOOTH",
"856 564 LINE SMOOTH",
"856 779 OFFCURVE",
"770 847 OFFCURVE",
"620 847 CURVE SMOOTH",
"516 847 OFFCURVE",
"409 771 OFFCURVE",
"303 694 CURVE",
"303 1500 LINE",
"258 1500 LINE",
"48 1430 LINE",
"48 1376 LINE",
"177 1396 OFFCURVE",
"197 1395 OFFCURVE",
"197 1334 CURVE SMOOTH",
"197 126 LINE SMOOTH",
"197 69 OFFCURVE",
"163 64 OFFCURVE",
"66 64 CURVE",
"66 0 LINE"
);
}
);
width = 1032;
},
{
anchors = (
{
name = bottom;
position = "{576, 0}";
},
{
name = center;
position = "{576, 750}";
},
{
name = top;
position = "{281, 1400}";
}
);
layerId = "72F22432-F665-4153-96BB-74D91BCC5F28";
paths = (
{
closed = 1;
nodes = (
"519 0 LINE",
"519 64 LINE",
"414 64 OFFCURVE",
"397 88 OFFCURVE",
"397 157 CURVE SMOOTH",
"397 621 LINE",
"518 721 OFFCURVE",
"575 766 OFFCURVE",
"631 766 CURVE SMOOTH",
"705 766 OFFCURVE",
"731 715 OFFCURVE",
"731 592 CURVE SMOOTH",
"731 157 LINE SMOOTH",
"731 88 OFFCURVE",
"714 64 OFFCURVE",
"609 64 CURVE",
"609 0 LINE",
"1080 0 LINE",
"1080 64 LINE",
"976 64 OFFCURVE",
"958 88 OFFCURVE",
"958 157 CURVE SMOOTH",
"958 485 LINE SMOOTH",
"958 699 OFFCURVE",
"894 846 OFFCURVE",
"681 846 CURVE SMOOTH",
"584 846 OFFCURVE",
"503 789 OFFCURVE",
"397 712 CURVE",
"397 1500 LINE",
"345 1500 LINE",
"30 1413 LINE",
"30 1341 LINE",
"167 1363 OFFCURVE",
"172 1352 OFFCURVE",
"172 1282 CURVE SMOOTH",
"172 161 LINE SMOOTH",
"172 88 OFFCURVE",
"139 64 OFFCURVE",
"47 64 CURVE",
"47 0 LINE"
);
}
);
width = 1110;
}
);
leftKerningGroup = h;
leftMetricsKey = i;
rightKerningGroup = n;
rightMetricsKey = i;
unicode = 0068;
},
{
glyphname = hbar;
lastChange = "2020-10-13 20:10:10 +0000";
layers = (
{
components = (
{
name = h;
}
);
layerId = "14A1E899-FED4-4F52-86F4-A1F822586E10";
paths = (
{
closed = 1;
nodes = (
"619 1140 LINE",
"619 1202 LINE",
"47 1202 LINE",
"47 1140 LINE"
);
}
);
width = 1128;
},
{
components = (
{
name = h;
}
);
layerId = "72F22432-F665-4153-96BB-74D91BCC5F28";
paths = (
{
closed = 1;
nodes = (
"678 1123 LINE",
"678 1202 LINE",
"45 1202 LINE",
"45 1123 LINE"
);
}
);
width = 1128;
}
);
unicode = 0127;
},
{
glyphname = i;
lastChange = "2020-11-04 18:46:52 +0000";
layers = (
{
anchors = (
{
name = bottom;
position = "{245, 0}";
}
);
layerId = "14A1E899-FED4-4F52-86F4-A1F822586E10";
paths = (
{
closed = 1;
nodes = (
"453 0 LINE",
"453 64 LINE",
"347 64 OFFCURVE",
"303 70 OFFCURVE",
"303 122 CURVE SMOOTH",
"303 855 LINE",
"258 855 LINE",
"58 799 LINE",
"58 745 LINE",
"173 774 OFFCURVE",
"197 765 OFFCURVE",
"197 670 CURVE SMOOTH",
"197 119 LINE SMOOTH",
"197 70 OFFCURVE",
"154 64 OFFCURVE",
"48 64 CURVE",
"48 0 LINE"
);
},
{
closed = 1;
nodes = (
"286 1046 OFFCURVE",
"327 1087 OFFCURVE",
"327 1137 CURVE SMOOTH",
"327 1186 OFFCURVE",
"286 1227 OFFCURVE",
"237 1227 CURVE SMOOTH",
"187 1227 OFFCURVE",
"146 1186 OFFCURVE",
"146 1137 CURVE SMOOTH",
"146 1087 OFFCURVE",
"187 1046 OFFCURVE",
"237 1046 CURVE SMOOTH"
);
}
);
width = 501;
},
{
anchors = (
{
name = bottom;
position = "{297, 0}";
}
);
layerId = "72F22432-F665-4153-96BB-74D91BCC5F28";
paths = (
{
closed = 1;
nodes = (
"548 0 LINE",
"548 64 LINE",
"448 64 OFFCURVE",
"406 88 OFFCURVE",
"406 157 CURVE SMOOTH",
"406 855 LINE",
"353 855 LINE",
"30 770 LINE",
"30 698 LINE",
"174 733 OFFCURVE",
"180 712 OFFCURVE",
"180 613 CURVE SMOOTH",
"180 154 LINE SMOOTH",
"180 88 OFFCURVE",
"139 64 OFFCURVE",
"38 64 CURVE",
"38 0 LINE"
);
},
{
closed = 1;
nodes = (
"365 1048 OFFCURVE",
"427 1112 OFFCURVE",
"427 1190 CURVE SMOOTH",
"427 1266 OFFCURVE",
"365 1330 OFFCURVE",
"289 1330 CURVE SMOOTH",
"213 1330 OFFCURVE",
"151 1266 OFFCURVE",
"151 1190 CURVE SMOOTH",
"151 1112 OFFCURVE",
"213 1048 OFFCURVE",
"289 1048 CURVE SMOOTH"
);
}
);
width = 578;
}
);
leftKerningGroup = i;
rightKerningGroup = i;
unicode = 0069;
},
{
glyphname = idotless;
lastChange = "2020-10-13 20:10:10 +0000";
layers = (
{
anchors = (
{
name = bottom;
position = "{253, 0}";
},
{
name = ogonek;
position = "{453, 0}";
},
{
name = top;
position = "{249, 826}";
}
);
layerId = "14A1E899-FED4-4F52-86F4-A1F822586E10";
paths = (
{
closed = 1;
nodes = (
"453 0 LINE",
"453 64 LINE",
"347 64 OFFCURVE",
"303 70 OFFCURVE",
"303 122 CURVE SMOOTH",
"303 841 LINE",
"258 841 LINE",
"58 785 LINE",
"58 731 LINE",
"173 760 OFFCURVE",
"197 751 OFFCURVE",
"197 670 CURVE SMOOTH",
"197 119 LINE SMOOTH",
"197 70 OFFCURVE",
"154 64 OFFCURVE",
"48 64 CURVE",
"48 0 LINE"
);
}
);
width = 501;
},
{
anchors = (
{
name = bottom;
position = "{297, 0}";
},
{
name = ogonek;
position = "{555, 0}";
},
{
name = top;
position = "{294, 826}";
}
);
layerId = "72F22432-F665-4153-96BB-74D91BCC5F28";
paths = (
{
closed = 1;
nodes = (
"555 0 LINE",
"555 64 LINE",
"455 64 OFFCURVE",
"413 88 OFFCURVE",
"413 157 CURVE SMOOTH",
"413 841 LINE",
"370 841 LINE",
"37 726 LINE",
"37 654 LINE",
"181 689 OFFCURVE",
"187 668 OFFCURVE",
"187 583 CURVE SMOOTH",
"187 154 LINE SMOOTH",
"187 88 OFFCURVE",
"146 64 OFFCURVE",
"45 64 CURVE",
"45 0 LINE"
);
}
);
width = 601;
}
);
unicode = 0131;
},
{
glyphname = j;
lastChange = "2020-10-29 17:42:03 +0000";
layers = (
{
layerId = "14A1E899-FED4-4F52-86F4-A1F822586E10";
paths = (
{
closed = 1;
nodes = (
"259 -441 OFFCURVE",
"340 -290 OFFCURVE",
"340 -42 CURVE SMOOTH",
"340 856 LINE",
"295 856 LINE",
"94 796 LINE",
"94 745 LINE",
"210 774 OFFCURVE",
"234 759 OFFCURVE",
"234 688 CURVE SMOOTH",
"234 -48 LINE SMOOTH",
"234 -294 OFFCURVE",
"165 -374 OFFCURVE",
"68 -374 CURVE SMOOTH",
"-20 -374 OFFCURVE",
"-32 -340 OFFCURVE",
"-39 -307 CURVE",
"-105 -385 LINE",
"-73 -415 OFFCURVE",
"-29 -441 OFFCURVE",
"53 -441 CURVE SMOOTH"
);
},
{
closed = 1;
nodes = (
"-28 -351 LINE",
"10 -211 LINE",
"-105 -230 LINE",
"-105 -385 LINE"
);
},
{
closed = 1;
nodes = (
"316 1046 OFFCURVE",
"357 1087 OFFCURVE",
"357 1137 CURVE SMOOTH",
"357 1186 OFFCURVE",
"316 1227 OFFCURVE",
"267 1227 CURVE SMOOTH",
"217 1227 OFFCURVE",
"176 1186 OFFCURVE",
"176 1137 CURVE SMOOTH",
"176 1087 OFFCURVE",
"217 1046 OFFCURVE",
"267 1046 CURVE SMOOTH"
);
}
);
width = 472;
},
{
layerId = "72F22432-F665-4153-96BB-74D91BCC5F28";
paths = (
{
closed = 1;
nodes = (
"266 -441 OFFCURVE",
"397 -290 OFFCURVE",
"397 -42 CURVE SMOOTH",
"397 854 LINE",
"344 854 LINE",
"20 772 LINE",
"20 698 LINE",
"157 730 OFFCURVE",
"171 726 OFFCURVE",
"171 658 CURVE SMOOTH",
"171 -48 LINE SMOOTH",
"171 -295 OFFCURVE",
"167 -357 OFFCURVE",
"85 -357 CURVE SMOOTH",
"20 -357 OFFCURVE",
"15 -286 OFFCURVE",
"19 -272 CURVE",
"-115 -403 LINE",
"-66 -433 OFFCURVE",
"-5 -441 OFFCURVE",
"71 -441 CURVE SMOOTH"
);
},
{
closed = 1;
nodes = (
"39 -351 LINE",
"66 -194 LINE",
"-115 -213 LINE",
"-115 -403 LINE"
);
},
{
closed = 1;
nodes = (
"353 1048 OFFCURVE",
"415 1112 OFFCURVE",
"415 1190 CURVE SMOOTH",
"415 1266 OFFCURVE",
"353 1330 OFFCURVE",
"278 1330 CURVE SMOOTH",
"202 1330 OFFCURVE",
"139 1266 OFFCURVE",
"139 1190 CURVE SMOOTH",
"139 1112 OFFCURVE",
"202 1048 OFFCURVE",
"278 1048 CURVE SMOOTH"
);
}
);
width = 527;
}
);
leftKerningGroup = j;
rightMetricsKey = "=o+50";
unicode = 006A;
},
{
glyphname = jdotless;
lastChange = "2020-10-13 20:11:19 +0000";
layers = (
{
anchors = (
{
name = bottom;
position = "{261, -500}";
},
{
name = top;
position = "{261, 826}";
}
);
layerId = "14A1E899-FED4-4F52-86F4-A1F822586E10";
paths = (
{
closed = 1;
nodes = (
"269 -441 OFFCURVE",
"350 -290 OFFCURVE",
"350 -42 CURVE SMOOTH",
"350 841 LINE",
"305 841 LINE",
"104 781 LINE",
"104 730 LINE",
"220 759 OFFCURVE",
"244 744 OFFCURVE",
"244 673 CURVE SMOOTH",
"244 -48 LINE SMOOTH",
"244 -294 OFFCURVE",
"175 -374 OFFCURVE",
"78 -374 CURVE SMOOTH",
"-10 -374 OFFCURVE",
"-22 -340 OFFCURVE",
"-29 -307 CURVE",
"-95 -385 LINE",
"-63 -415 OFFCURVE",
"-19 -441 OFFCURVE",
"63 -441 CURVE SMOOTH"
);
},
{
closed = 1;
nodes = (
"-18 -351 LINE",
"20 -211 LINE",
"-95 -230 LINE",
"-95 -385 LINE"
);
}
);
width = 465;
},
{
anchors = (
{
name = bottom;
position = "{303, -395}";
},
{
name = top;
position = "{303, 826}";
}
);
layerId = "72F22432-F665-4153-96BB-74D91BCC5F28";
paths = (
{
closed = 1;
nodes = (
"255 -441 OFFCURVE",
"386 -290 OFFCURVE",
"386 -42 CURVE SMOOTH",
"386 841 LINE",
"343 841 LINE",
"9 729 LINE",
"9 655 LINE",
"146 687 OFFCURVE",
"160 683 OFFCURVE",
"160 615 CURVE SMOOTH",
"160 -48 LINE SMOOTH",
"160 -295 OFFCURVE",
"166 -357 OFFCURVE",
"74 -357 CURVE SMOOTH",
"9 -357 OFFCURVE",
"4 -286 OFFCURVE",
"8 -272 CURVE",
"-126 -403 LINE",
"-77 -433 OFFCURVE",
"-16 -441 OFFCURVE",
"60 -441 CURVE SMOOTH"
);
},
{
closed = 1;
nodes = (
"28 -351 LINE",
"55 -194 LINE",
"-126 -213 LINE",
"-126 -403 LINE"
);
}
);
width = 498;
}
);
rightMetricsKey = "=o+50";
unicode = 0237;
},
{
glyphname = k;
lastChange = "2020-11-04 18:30:25 +0000";
layers = (
{
anchors = (
{
name = bottom;
position = "{494, 0}";
},
{
name = top;
position = "{494, 1500}";
}
);
layerId = "14A1E899-FED4-4F52-86F4-A1F822586E10";
paths = (
{
closed = 1;
nodes = (
"431 0 LINE",
"431 64 LINE",
"321 64 OFFCURVE",
"303 70 OFFCURVE",
"303 132 CURVE SMOOTH",
"303 359 LINE",
"490 492 LINE",
"767 124 LINE SMOOTH",
"780 107 OFFCURVE",
"788 95 OFFCURVE",
"788 81 CURVE SMOOTH",
"788 66 OFFCURVE",
"767 64 OFFCURVE",
"669 64 CURVE",
"669 0 LINE",
"1023 0 LINE",
"1023 64 LINE",
"938 64 OFFCURVE",
"916 82 OFFCURVE",
"876 136 CURVE SMOOTH",
"568 552 LINE",
"787 714 LINE SMOOTH",
"837 751 OFFCURVE",
"856 762 OFFCURVE",
"955 762 CURVE",
"955 826 LINE",
"587 826 LINE",
"587 762 LINE",
"684 762 OFFCURVE",
"713 761 OFFCURVE",
"713 749 CURVE SMOOTH",
"713 742 OFFCURVE",
"706 735 OFFCURVE",
"688 722 CURVE SMOOTH",
"303 447 LINE",
"303 1500 LINE",
"258 1500 LINE",
"48 1430 LINE",
"48 1376 LINE",
"177 1396 OFFCURVE",
"197 1396 OFFCURVE",
"197 1330 CURVE SMOOTH",
"197 126 LINE SMOOTH",
"197 73 OFFCURVE",
"147 64 OFFCURVE",
"66 64 CURVE",
"66 0 LINE"
);
}
);
width = 1028;
},
{
anchors = (
{
name = bottom;
position = "{579, 0}";
},
{
name = top;
position = "{579, 1500}";
}
);
layerId = "72F22432-F665-4153-96BB-74D91BCC5F28";
paths = (
{
closed = 1;
nodes = (
"519 0 LINE",
"519 64 LINE",
"409 64 OFFCURVE",
"397 106 OFFCURVE",
"397 162 CURVE SMOOTH",
"397 345 LINE",
"520 450 LINE",
"669 176 LINE SMOOTH",
"695 129 OFFCURVE",
"700 118 OFFCURVE",
"700 96 CURVE SMOOTH",
"700 67 OFFCURVE",
"657 64 OFFCURVE",
"581 64 CURVE",
"581 0 LINE",
"1114 0 LINE",
"1114 64 LINE",
"1081 64 OFFCURVE",
"1009 72 OFFCURVE",
"974 136 CURVE SMOOTH",
"718 605 LINE",
"843 714 LINE SMOOTH",
"897 761 OFFCURVE",
"946 762 OFFCURVE",
"1009 762 CURVE",
"1009 826 LINE",
"631 826 LINE",
"631 762 LINE",
"713 762 OFFCURVE",
"730 758 OFFCURVE",
"730 743 CURVE SMOOTH",
"730 735 OFFCURVE",
"728 730 OFFCURVE",
"718 722 CURVE SMOOTH",
"397 465 LINE",
"397 1500 LINE",
"345 1500 LINE",
"30 1413 LINE",
"30 1341 LINE",
"148 1383 OFFCURVE",
"172 1370 OFFCURVE",
"172 1295 CURVE SMOOTH",
"172 161 LINE SMOOTH",
"172 68 OFFCURVE",
"124 64 OFFCURVE",
"47 64 CURVE",
"47 0 LINE"
);
}
);
width = 1119;
}
);
leftKerningGroup = h;
leftMetricsKey = i;
rightKerningGroup = k;
unicode = 006B;
},
{
glyphname = l;
lastChange = "2020-11-04 18:46:56 +0000";
layers = (
{
anchors = (
{
name = bottom;
position = "{213, 0}";
},
{
name = center;
position = "{253, 750}";
},
{
name = top;
position = "{245, 1457}";
},
{
name = topright;
position = "{472, 1500}";
}
);
layerId = "14A1E899-FED4-4F52-86F4-A1F822586E10";
paths = (
{
closed = 1;
nodes = (
"449 0 LINE",
"449 64 LINE",
"343 64 OFFCURVE",
"303 65 OFFCURVE",
"303 122 CURVE SMOOTH",
"303 1500 LINE",
"258 1500 LINE",
"48 1430 LINE",
"48 1376 LINE",
"177 1396 OFFCURVE",
"197 1390 OFFCURVE",
"197 1334 CURVE SMOOTH",
"197 122 LINE SMOOTH",
"197 65 OFFCURVE",
"154 64 OFFCURVE",
"48 64 CURVE",
"48 0 LINE"
);
}
);
width = 497;
},
{
anchors = (
{
name = bottom;
position = "{276, 0}";
},
{
name = center;
position = "{288, 750}";
},
{
name = top;
position = "{278, 1447}";
},
{
name = topright;
position = "{558, 1500}";
}
);
layerId = "72F22432-F665-4153-96BB-74D91BCC5F28";
paths = (
{
closed = 1;
nodes = (
"536 0 LINE",
"536 64 LINE",
"436 64 OFFCURVE",
"397 109 OFFCURVE",
"397 175 CURVE SMOOTH",
"397 1500 LINE",
"355 1500 LINE",
"30 1413 LINE",
"30 1341 LINE",
"167 1383 OFFCURVE",
"172 1361 OFFCURVE",
"172 1282 CURVE SMOOTH",
"172 175 LINE SMOOTH",
"172 109 OFFCURVE",
"130 64 OFFCURVE",
"30 64 CURVE",
"30 0 LINE"
);
}
);
width = 566;
}
);
leftKerningGroup = h;
leftMetricsKey = i;
rightKerningGroup = l;
rightMetricsKey = i;
unicode = 006C;
},
{
glyphname = lslash;
lastChange = "2020-10-13 20:10:10 +0000";
layers = (
{
components = (
{
name = l;
transform = "{1, 0, 0, 1, 95, 0}";
}
);
layerId = "14A1E899-FED4-4F52-86F4-A1F822586E10";
paths = (
{
closed = 1;
nodes = (
"75 381 LINE",
"671 942 LINE",
"619 997 LINE",
"22 437 LINE"
);
}
);
width = 735;
},
{
components = (
{
name = l;
transform = "{1, 0, 0, 1, 91, 0}";
}
);
layerId = "72F22432-F665-4153-96BB-74D91BCC5F28";
paths = (
{
closed = 1;
nodes = (
"54 323 LINE",
"752 1007 LINE",
"681 1083 LINE",
"-18 400 LINE"
);
}
);
width = 735;
}
);
unicode = 0142;
},
{
glyphname = m;
lastChange = "2020-11-04 18:46:56 +0000";
layers = (
{
anchors = (
{
name = bottom;
position = "{803, 0}";
},
{
name = top;
position = "{822, 826}";
}
);
layerId = "14A1E899-FED4-4F52-86F4-A1F822586E10";
paths = (
{
closed = 1;
nodes = (
"435 0 LINE",
"435 64 LINE",
"325 64 OFFCURVE",
"307 68 OFFCURVE",
"307 122 CURVE SMOOTH",
"307 855 LINE",
"262 855 LINE",
"48 785 LINE",
"48 731 LINE",
"165 751 OFFCURVE",
"197 753 OFFCURVE",
"197 679 CURVE SMOOTH",
"197 116 LINE SMOOTH",
"197 68 OFFCURVE",
"163 64 OFFCURVE",
"66 64 CURVE",
"66 0 LINE"
);
},
{
closed = 1;
nodes = (
"972 0 LINE",
"972 64 LINE",
"862 64 OFFCURVE",
"844 68 OFFCURVE",
"844 122 CURVE SMOOTH",
"844 599 LINE SMOOTH",
"844 787 OFFCURVE",
"742 841 OFFCURVE",
"621 841 CURVE SMOOTH",
"541 841 OFFCURVE",
"428 771 OFFCURVE",
"301 692 CURVE",
"301 604 LINE",
"450 707 OFFCURVE",
"548 759 OFFCURVE",
"603 759 CURVE SMOOTH",
"667 759 OFFCURVE",
"734 726 OFFCURVE",
"734 604 CURVE SMOOTH",
"734 122 LINE SMOOTH",
"734 68 OFFCURVE",
"716 64 OFFCURVE",
"606 64 CURVE",
"606 0 LINE"
);
},
{
closed = 1;
nodes = (
"1494 0 LINE",
"1494 64 LINE",
"1384 64 OFFCURVE",
"1366 68 OFFCURVE",
"1366 122 CURVE SMOOTH",
"1366 599 LINE SMOOTH",
"1366 787 OFFCURVE",
"1264 841 OFFCURVE",
"1143 841 CURVE SMOOTH",
"1063 841 OFFCURVE",
"950 771 OFFCURVE",
"823 692 CURVE",
"823 604 LINE",
"972 707 OFFCURVE",
"1070 759 OFFCURVE",
"1125 759 CURVE SMOOTH",
"1189 759 OFFCURVE",
"1256 726 OFFCURVE",
"1256 604 CURVE SMOOTH",
"1256 122 LINE SMOOTH",
"1256 68 OFFCURVE",
"1238 64 OFFCURVE",
"1128 64 CURVE",
"1128 0 LINE"
);
}
);
width = 1542;
},
{
anchors = (
{
name = bottom;
position = "{819, 0}";
},
{
name = top;
position = "{837, 826}";
}
);
layerId = "72F22432-F665-4153-96BB-74D91BCC5F28";
paths = (
{
closed = 1;
nodes = (
"526 0 LINE",
"526 64 LINE",
"422 64 OFFCURVE",
"405 124 OFFCURVE",
"405 192 CURVE SMOOTH",
"405 856 LINE",
"362 856 LINE",
"30 771 LINE",
"30 699 LINE",
"154 737 OFFCURVE",
"172 720 OFFCURVE",
"172 647 CURVE SMOOTH",
"172 186 LINE SMOOTH",
"172 124 OFFCURVE",
"139 64 OFFCURVE",
"47 64 CURVE",
"47 0 LINE"
);
},
{
closed = 1;
nodes = (
"1112 0 LINE",
"1112 64 LINE",
"1007 64 OFFCURVE",
"990 124 OFFCURVE",
"990 192 CURVE SMOOTH",
"990 556 LINE SMOOTH",
"990 794 OFFCURVE",
"841 843 OFFCURVE",
"741 843 CURVE SMOOTH",
"640 843 OFFCURVE",
"486 745 OFFCURVE",
"399 689 CURVE",
"399 601 LINE",
"479 659 OFFCURVE",
"576 729 OFFCURVE",
"666 729 CURVE SMOOTH",
"741 729 OFFCURVE",
"775 682 OFFCURVE",
"775 525 CURVE SMOOTH",
"775 192 LINE SMOOTH",
"775 124 OFFCURVE",
"758 64 OFFCURVE",
"653 64 CURVE",
"653 0 LINE"
);
},
{
closed = 1;
nodes = (
"1663 0 LINE",
"1663 64 LINE",
"1558 64 OFFCURVE",
"1541 124 OFFCURVE",
"1541 192 CURVE SMOOTH",
"1541 556 LINE SMOOTH",
"1541 794 OFFCURVE",
"1383 843 OFFCURVE",
"1282 843 CURVE SMOOTH",
"1183 843 OFFCURVE",
"1038 748 OFFCURVE",
"950 689 CURVE",
"950 601 LINE",
"1028 659 OFFCURVE",
"1128 729 OFFCURVE",
"1217 729 CURVE SMOOTH",
"1292 729 OFFCURVE",
"1324 682 OFFCURVE",
"1324 525 CURVE SMOOTH",
"1324 192 LINE SMOOTH",
"1324 124 OFFCURVE",
"1307 64 OFFCURVE",
"1203 64 CURVE",
"1203 0 LINE"
);
}
);
width = 1693;
}
);
leftKerningGroup = n;
leftMetricsKey = i;
rightKerningGroup = n;
rightMetricsKey = i;
unicode = 006D;
},
{
glyphname = n;
lastChange = "2020-11-04 18:46:56 +0000";
layers = (
{
anchors = (
{
name = bottom;
position = "{515, 0}";
},
{
name = top;
position = "{498, 826}";
}
);
layerId = "14A1E899-FED4-4F52-86F4-A1F822586E10";
paths = (
{
closed = 1;
nodes = (
"992 0 LINE",
"992 64 LINE",
"882 64 OFFCURVE",
"864 68 OFFCURVE",
"864 122 CURVE SMOOTH",
"864 599 LINE SMOOTH",
"864 787 OFFCURVE",
"762 841 OFFCURVE",
"631 841 CURVE SMOOTH",
"536 841 OFFCURVE",
"425 771 OFFCURVE",
"301 692 CURVE",
"301 604 LINE",
"450 707 OFFCURVE",
"543 759 OFFCURVE",
"613 759 CURVE SMOOTH",
"687 759 OFFCURVE",
"754 726 OFFCURVE",
"754 604 CURVE SMOOTH",
"754 122 LINE SMOOTH",
"754 68 OFFCURVE",
"736 64 OFFCURVE",
"626 64 CURVE",
"626 0 LINE"
);
},
{
closed = 1;
nodes = (
"435 0 LINE",
"435 64 LINE",
"325 64 OFFCURVE",
"307 68 OFFCURVE",
"307 122 CURVE SMOOTH",
"307 856 LINE",
"262 856 LINE",
"48 786 LINE",
"48 732 LINE",
"165 752 OFFCURVE",
"197 754 OFFCURVE",
"197 680 CURVE SMOOTH",
"197 116 LINE SMOOTH",
"197 68 OFFCURVE",
"163 64 OFFCURVE",
"66 64 CURVE",
"66 0 LINE"
);
}
);
width = 1040;
},
{
anchors = (
{
name = bottom;
position = "{563, 0}";
},
{
name = top;
position = "{547, 826}";
}
);
layerId = "72F22432-F665-4153-96BB-74D91BCC5F28";
paths = (
{
closed = 1;
nodes = (
"1088 0 LINE",
"1088 64 LINE",
"983 64 OFFCURVE",
"966 124 OFFCURVE",
"966 192 CURVE SMOOTH",
"966 565 LINE SMOOTH",
"966 764 OFFCURVE",
"875 841 OFFCURVE",
"701 841 CURVE SMOOTH",
"613 841 OFFCURVE",
"522 791 OFFCURVE",
"395 710 CURVE",
"395 622 LINE",
"535 723 OFFCURVE",
"589 759 OFFCURVE",
"656 759 CURVE SMOOTH",
"725 759 OFFCURVE",
"736 675 OFFCURVE",
"736 581 CURVE SMOOTH",
"736 192 LINE SMOOTH",
"736 124 OFFCURVE",
"719 64 OFFCURVE",
"615 64 CURVE",
"615 0 LINE"
);
},
{
closed = 1;
nodes = (
"523 0 LINE",
"523 64 LINE",
"418 64 OFFCURVE",
"401 124 OFFCURVE",
"401 192 CURVE SMOOTH",
"401 855 LINE",
"348 855 LINE",
"30 768 LINE",
"30 696 LINE",
"156 739 OFFCURVE",
"172 685 OFFCURVE",
"172 627 CURVE SMOOTH",
"172 186 LINE SMOOTH",
"172 124 OFFCURVE",
"139 64 OFFCURVE",
"47 64 CURVE",
"47 0 LINE"
);
}
);
width = 1118;
}
);
leftKerningGroup = i;
leftMetricsKey = i;
rightKerningGroup = n;
rightMetricsKey = i;
unicode = 006E;
},
{
glyphname = eng;
lastChange = "2020-11-04 18:46:56 +0000";
layers = (
{
anchors = (
{
name = bottom;
position = "{567, 0}";
},
{
name = top;
position = "{567, 926}";
}
);
layerId = "14A1E899-FED4-4F52-86F4-A1F822586E10";
paths = (
{
closed = 1;
nodes = (
"864 -49 LINE",
"864 599 LINE SMOOTH",
"864 787 OFFCURVE",
"762 841 OFFCURVE",
"631 841 CURVE SMOOTH",
"536 841 OFFCURVE",
"425 771 OFFCURVE",
"301 692 CURVE",
"301 604 LINE",
"450 707 OFFCURVE",
"543 759 OFFCURVE",
"613 759 CURVE SMOOTH",
"687 759 OFFCURVE",
"754 726 OFFCURVE",
"754 604 CURVE SMOOTH",
"754 -49 LINE"
);
},
{
closed = 1;
nodes = (
"493 -351 LINE",
"531 -211 LINE",
"416 -230 LINE",
"416 -385 LINE"
);
},
{
closed = 1;
nodes = (
"780 -441 OFFCURVE",
"864 -297 OFFCURVE",
"864 -49 CURVE",
"754 -49 LINE",
"754 -295 OFFCURVE",
"686 -374 OFFCURVE",
"589 -374 CURVE SMOOTH",
"501 -374 OFFCURVE",
"489 -340 OFFCURVE",
"482 -307 CURVE",
"416 -385 LINE",
"448 -415 OFFCURVE",
"492 -441 OFFCURVE",
"574 -441 CURVE SMOOTH"
);
},
{
closed = 1;
nodes = (
"435 0 LINE",
"435 64 LINE",
"325 64 OFFCURVE",
"307 68 OFFCURVE",
"307 122 CURVE SMOOTH",
"307 841 LINE",
"262 841 LINE",
"48 771 LINE",
"48 717 LINE",
"165 737 OFFCURVE",
"197 739 OFFCURVE",
"197 665 CURVE SMOOTH",
"197 116 LINE SMOOTH",
"197 68 OFFCURVE",
"163 64 OFFCURVE",
"66 64 CURVE",
"66 0 LINE"
);
}
);
width = 912;
},
{
anchors = (
{
name = bottom;
position = "{523, 0}";
},
{
name = top;
position = "{523, 926}";
}
);
layerId = "72F22432-F665-4153-96BB-74D91BCC5F28";
paths = (
{
closed = 1;
nodes = (
"966 37 LINE",
"966 547 LINE SMOOTH",
"966 746 OFFCURVE",
"891 841 OFFCURVE",
"691 841 CURVE SMOOTH",
"603 841 OFFCURVE",
"522 791 OFFCURVE",
"395 710 CURVE",
"395 622 LINE",
"535 723 OFFCURVE",
"589 759 OFFCURVE",
"656 759 CURVE SMOOTH",
"735 759 OFFCURVE",
"736 685 OFFCURVE",
"736 571 CURVE SMOOTH",
"736 37 LINE"
);
},
{
closed = 1;
nodes = (
"617 -313 LINE",
"657 -89 LINE",
"428 -127 LINE",
"456 -347 LINE"
);
},
{
closed = 1;
nodes = (
"838 -403 OFFCURVE",
"966 -246 OFFCURVE",
"966 37 CURVE",
"736 37 LINE",
"736 -243 OFFCURVE",
"722 -292 OFFCURVE",
"657 -292 CURVE SMOOTH",
"590 -292 OFFCURVE",
"528 -246 OFFCURVE",
"519 -234 CURVE",
"456 -347 LINE",
"507 -378 OFFCURVE",
"567 -403 OFFCURVE",
"642 -403 CURVE SMOOTH"
);
},
{
closed = 1;
nodes = (
"523 0 LINE",
"523 64 LINE",
"418 64 OFFCURVE",
"401 124 OFFCURVE",
"401 192 CURVE SMOOTH",
"401 841 LINE",
"358 841 LINE",
"30 754 LINE",
"30 682 LINE",
"156 725 OFFCURVE",
"172 671 OFFCURVE",
"172 613 CURVE SMOOTH",
"172 186 LINE SMOOTH",
"172 124 OFFCURVE",
"139 64 OFFCURVE",
"47 64 CURVE",
"47 0 LINE"
);
}
);
width = 996;
}
);
leftKerningGroup = n;
leftMetricsKey = n;
rightKerningGroup = n;
rightMetricsKey = n;
unicode = 014B;
},
{
glyphname = o;
lastChange = "2020-10-29 17:09:00 +0000";
layers = (
{
anchors = (
{
name = bottom;
position = "{492, 0}";
},
{
name = center;
position = "{492, 463}";
},
{
name = ogonek;
position = "{767, 71}";
},
{
name = top;
position = "{492, 826}";
},
{
name = topright;
position = "{753, 736}";
}
);
layerId = "14A1E899-FED4-4F52-86F4-A1F822586E10";
paths = (
{
closed = 1;
nodes = (
"717 -24 OFFCURVE",
"919 159 OFFCURVE",
"919 412 CURVE SMOOTH",
"919 666 OFFCURVE",
"717 848 OFFCURVE",
"492 848 CURVE SMOOTH",
"266 848 OFFCURVE",
"65 666 OFFCURVE",
"65 412 CURVE SMOOTH",
"65 159 OFFCURVE",
"266 -24 OFFCURVE",
"492 -24 CURVE SMOOTH"
);
},
{
closed = 1;
nodes = (
"294 46 OFFCURVE",
"197 224 OFFCURVE",
"197 432 CURVE SMOOTH",
"197 639 OFFCURVE",
"293 778 OFFCURVE",
"492 778 CURVE SMOOTH",
"700 778 OFFCURVE",
"788 600 OFFCURVE",
"788 392 CURVE SMOOTH",
"788 185 OFFCURVE",
"700 46 OFFCURVE",
"492 46 CURVE SMOOTH"
);
}
);
width = 984;
},
{
anchors = (
{
name = bottom;
position = "{522, 0}";
},
{
name = center;
position = "{522, 413}";
},
{
name = ogonek;
position = "{783, 71}";
},
{
name = top;
position = "{521, 826}";
},
{
name = topright;
position = "{769, 736}";
}
);
layerId = "72F22432-F665-4153-96BB-74D91BCC5F28";
paths = (
{
closed = 1;
nodes = (
"788 -24 OFFCURVE",
"981 159 OFFCURVE",
"981 412 CURVE SMOOTH",
"981 666 OFFCURVE",
"788 851 OFFCURVE",
"521 851 CURVE SMOOTH",
"253 851 OFFCURVE",
"62 666 OFFCURVE",
"62 412 CURVE SMOOTH",
"62 159 OFFCURVE",
"253 -24 OFFCURVE",
"521 -24 CURVE SMOOTH"
);
},
{
closed = 1;
nodes = (
"340 46 OFFCURVE",
"317 289 OFFCURVE",
"317 467 CURVE SMOOTH",
"317 643 OFFCURVE",
"339 781 OFFCURVE",
"521 781 CURVE SMOOTH",
"695 781 OFFCURVE",
"726 531 OFFCURVE",
"726 357 CURVE SMOOTH",
"726 184 OFFCURVE",
"695 46 OFFCURVE",
"521 46 CURVE SMOOTH"
);
}
);
width = 1043;
}
);
leftKerningGroup = o;
rightKerningGroup = o;
unicode = 006F;
},
{
glyphname = ohorn;
lastChange = "2020-11-04 18:45:01 +0000";
layers = (
{
anchors = (
{
name = bottom;
position = "{496, 0}";
},
{
name = top;
position = "{496, 826}";
}
);
components = (
{
name = horncomb;
transform = "{1, 0, 0, 1, 595, -143}";
}
);
layerId = "14A1E899-FED4-4F52-86F4-A1F822586E10";
paths = (
{
closed = 1;
nodes = (
"717 -24 OFFCURVE",
"919 159 OFFCURVE",
"919 412 CURVE SMOOTH",
"919 666 OFFCURVE",
"717 841 OFFCURVE",
"492 841 CURVE SMOOTH",
"266 841 OFFCURVE",
"65 666 OFFCURVE",
"65 412 CURVE SMOOTH",
"65 159 OFFCURVE",
"266 -24 OFFCURVE",
"492 -24 CURVE SMOOTH"
);
},
{
closed = 1;
nodes = (
"294 46 OFFCURVE",
"202 224 OFFCURVE",
"202 432 CURVE SMOOTH",
"202 639 OFFCURVE",
"293 771 OFFCURVE",
"492 771 CURVE SMOOTH",
"700 771 OFFCURVE",
"783 600 OFFCURVE",
"783 392 CURVE SMOOTH",
"783 185 OFFCURVE",
"700 46 OFFCURVE",
"492 46 CURVE SMOOTH"
);
}
);
width = 955;
},
{
anchors = (
{
name = bottom;
position = "{518, 0}";
},
{
name = top;
position = "{518, 826}";
}
);
components = (
{
name = horncomb;
transform = "{1, 0, 0, 1, 646, -143}";
}
);
layerId = "72F22432-F665-4153-96BB-74D91BCC5F28";
paths = (
{
closed = 1;
nodes = (
"788 -24 OFFCURVE",
"981 159 OFFCURVE",
"981 412 CURVE SMOOTH",
"981 666 OFFCURVE",
"788 841 OFFCURVE",
"521 841 CURVE SMOOTH",
"253 841 OFFCURVE",
"62 666 OFFCURVE",
"62 412 CURVE SMOOTH",
"62 159 OFFCURVE",
"253 -24 OFFCURVE",
"521 -24 CURVE SMOOTH"
);
},
{
closed = 1;
nodes = (
"278 46 OFFCURVE",
"335 380 OFFCURVE",
"335 467 CURVE SMOOTH",
"335 553 OFFCURVE",
"279 771 OFFCURVE",
"521 771 CURVE SMOOTH",
"755 771 OFFCURVE",
"708 442 OFFCURVE",
"708 357 CURVE SMOOTH",
"708 276 OFFCURVE",
"755 46 OFFCURVE",
"521 46 CURVE SMOOTH"
);
}
);
width = 1003;
}
);
leftKerningGroup = o;
leftMetricsKey = o;
rightKerningGroup = o;
rightMetricsKey = "=o-80";
unicode = 01A1;
},
{
glyphname = oslash;
lastChange = "2020-11-04 18:33:24 +0000";
layers = (
{
anchors = (
{
name = top;
position = "{488, 826}";
}
);
components = (
{
name = o;
}
);
layerId = "14A1E899-FED4-4F52-86F4-A1F822586E10";
paths = (
{
closed = 1;
nodes = (
"263 -111 LINE",
"796 904 LINE",
"728 934 LINE",
"192 -81 LINE"
);
}
);
width = 984;
},
{
anchors = (
{
name = top;
position = "{524, 826}";
}
);
components = (
{
name = o;
}
);
layerId = "72F22432-F665-4153-96BB-74D91BCC5F28";
paths = (
{
closed = 1;
nodes = (
"306 -109 LINE",
"813 906 LINE",
"739 936 LINE",
"230 -79 LINE"
);
}
);
width = 1079;
}
);
unicode = 00F8;
},
{
glyphname = oe;
lastChange = "2020-10-14 21:21:20 +0000";
layers = (
{
anchors = (
{
name = bottom;
position = "{845, 0}";
},
{
name = top;
position = "{845, 826}";
}
);
components = (
{
alignment = -1;
name = e;
transform = "{1, 0, 0, 1, 731, 0}";
}
);
layerId = "14A1E899-FED4-4F52-86F4-A1F822586E10";
paths = (
{
closed = 1;
nodes = (
"717 -24 OFFCURVE",
"919 159 OFFCURVE",
"919 412 CURVE SMOOTH",
"919 666 OFFCURVE",
"717 841 OFFCURVE",
"492 841 CURVE SMOOTH",
"266 841 OFFCURVE",
"65 666 OFFCURVE",
"65 412 CURVE SMOOTH",
"65 159 OFFCURVE",
"266 -24 OFFCURVE",
"492 -24 CURVE SMOOTH"
);
},
{
closed = 1;
nodes = (
"294 46 OFFCURVE",
"202 224 OFFCURVE",
"202 432 CURVE SMOOTH",
"202 639 OFFCURVE",
"293 771 OFFCURVE",
"492 771 CURVE SMOOTH",
"700 771 OFFCURVE",
"783 600 OFFCURVE",
"783 392 CURVE SMOOTH",
"783 185 OFFCURVE",
"700 46 OFFCURVE",
"492 46 CURVE SMOOTH"
);
}
);
width = 1609;
},
{
anchors = (
{
name = bottom;
position = "{783, 0}";
},
{
name = top;
position = "{783, 826}";
}
);
components = (
{
alignment = -1;
name = e;
transform = "{1, 0, 0, 1, 675, 0}";
}
);
layerId = "72F22432-F665-4153-96BB-74D91BCC5F28";
paths = (
{
closed = 1;
nodes = (
"788 -24 OFFCURVE",
"981 159 OFFCURVE",
"981 412 CURVE SMOOTH",
"981 666 OFFCURVE",
"788 841 OFFCURVE",
"521 841 CURVE SMOOTH",
"253 841 OFFCURVE",
"62 666 OFFCURVE",
"62 412 CURVE SMOOTH",
"62 159 OFFCURVE",
"253 -24 OFFCURVE",
"521 -24 CURVE SMOOTH"
);
},
{
closed = 1;
nodes = (
"280 46 OFFCURVE",
"317 379 OFFCURVE",
"317 467 CURVE SMOOTH",
"317 553 OFFCURVE",
"279 771 OFFCURVE",
"521 771 CURVE SMOOTH",
"755 771 OFFCURVE",
"726 441 OFFCURVE",
"726 357 CURVE SMOOTH",
"726 274 OFFCURVE",
"755 46 OFFCURVE",
"521 46 CURVE SMOOTH"
);
}
);
width = 1639;
}
);
leftKerningGroup = o;
leftMetricsKey = o;
rightKerningGroup = e;
rightMetricsKey = e;
unicode = 0153;
},
{
glyphname = p;
lastChange = "2020-10-29 17:09:20 +0000";
layers = (
{
anchors = (
{
name = bottom;
position = "{477, 0}";
},
{
name = top;
position = "{517, 826}";
}
);
layerId = "14A1E899-FED4-4F52-86F4-A1F822586E10";
paths = (
{
closed = 1;
nodes = (
"431 -430 LINE",
"431 -366 LINE",
"321 -366 OFFCURVE",
"303 -359 OFFCURVE",
"303 -288 CURVE SMOOTH",
"303 854 LINE",
"258 854 LINE",
"48 784 LINE",
"48 730 LINE",
"186 750 OFFCURVE",
"197 751 OFFCURVE",
"197 688 CURVE SMOOTH",
"197 -294 LINE SMOOTH",
"197 -360 OFFCURVE",
"154 -366 OFFCURVE",
"48 -366 CURVE",
"48 -430 LINE"
);
},
{
closed = 1;
nodes = (
"713 -20 OFFCURVE",
"911 134 OFFCURVE",
"911 418 CURVE SMOOTH",
"911 754 OFFCURVE",
"715 851 OFFCURVE",
"574 851 CURVE SMOOTH",
"497 851 OFFCURVE",
"374 762 OFFCURVE",
"301 705 CURVE",
"301 617 LINE",
"394 694 OFFCURVE",
"496 773 OFFCURVE",
"555 773 CURVE SMOOTH",
"632 773 OFFCURVE",
"793 726 OFFCURVE",
"793 410 CURVE SMOOTH",
"793 187 OFFCURVE",
"658 51 OFFCURVE",
"544 51 CURVE SMOOTH",
"427 51 OFFCURVE",
"344 111 OFFCURVE",
"301 314 CURVE",
"257 224 LINE",
"293 30 OFFCURVE",
"434 -20 OFFCURVE",
"538 -20 CURVE SMOOTH"
);
}
);
width = 976;
},
{
anchors = (
{
name = bottom;
position = "{563, 0}";
},
{
name = top;
position = "{601, 826}";
}
);
layerId = "72F22432-F665-4153-96BB-74D91BCC5F28";
paths = (
{
closed = 1;
nodes = (
"519 -430 LINE",
"519 -366 LINE",
"401 -366 OFFCURVE",
"397 -348 OFFCURVE",
"397 -271 CURVE SMOOTH",
"397 855 LINE",
"345 855 LINE",
"30 768 LINE",
"30 696 LINE",
"172 737 OFFCURVE",
"172 712 OFFCURVE",
"172 654 CURVE SMOOTH",
"172 -259 LINE SMOOTH",
"172 -360 OFFCURVE",
"131 -366 OFFCURVE",
"30 -366 CURVE",
"30 -430 LINE"
);
},
{
closed = 1;
nodes = (
"804 -20 OFFCURVE",
"1054 134 OFFCURVE",
"1054 418 CURVE SMOOTH",
"1054 754 OFFCURVE",
"868 851 OFFCURVE",
"665 851 CURVE SMOOTH",
"573 851 OFFCURVE",
"463 775 OFFCURVE",
"394 723 CURVE",
"394 635 LINE",
"479 709 OFFCURVE",
"554 773 OFFCURVE",
"629 773 CURVE SMOOTH",
"738 773 OFFCURVE",
"801 633 OFFCURVE",
"801 352 CURVE SMOOTH",
"801 129 OFFCURVE",
"740 51 OFFCURVE",
"625 51 CURVE SMOOTH",
"514 51 OFFCURVE",
"435 111 OFFCURVE",
"394 314 CURVE",
"299 224 LINE",
"333 30 OFFCURVE",
"522 -20 OFFCURVE",
"620 -20 CURVE SMOOTH"
);
}
);
width = 1116;
}
);
leftMetricsKey = i;
rightKerningGroup = o;
rightMetricsKey = o;
unicode = 0070;
},
{
glyphname = thorn;
lastChange = "2020-10-13 20:10:10 +0000";
layers = (
{
anchors = (
{
name = bottom;
position = "{561, 0}";
},
{
name = top;
position = "{561, 926}";
}
);
layerId = "14A1E899-FED4-4F52-86F4-A1F822586E10";
paths = (
{
closed = 1;
nodes = (
"509 -436 LINE",
"509 -372 LINE",
"399 -372 OFFCURVE",
"381 -364 OFFCURVE",
"381 -302 CURVE SMOOTH",
"381 1500 LINE",
"336 1500 LINE",
"126 1430 LINE",
"126 1376 LINE",
"264 1396 OFFCURVE",
"275 1388 OFFCURVE",
"275 1334 CURVE SMOOTH",
"275 -300 LINE SMOOTH",
"275 -366 OFFCURVE",
"232 -372 OFFCURVE",
"126 -372 CURVE",
"126 -436 LINE"
);
},
{
closed = 1;
nodes = (
"811 -20 OFFCURVE",
"1009 134 OFFCURVE",
"1009 418 CURVE SMOOTH",
"1009 754 OFFCURVE",
"813 841 OFFCURVE",
"672 841 CURVE SMOOTH",
"575 841 OFFCURVE",
"452 758 OFFCURVE",
"379 705 CURVE",
"379 617 LINE",
"472 690 OFFCURVE",
"574 763 OFFCURVE",
"653 763 CURVE SMOOTH",
"730 763 OFFCURVE",
"891 726 OFFCURVE",
"891 410 CURVE SMOOTH",
"891 187 OFFCURVE",
"756 51 OFFCURVE",
"622 51 CURVE SMOOTH",
"505 51 OFFCURVE",
"422 111 OFFCURVE",
"379 314 CURVE",
"335 224 LINE",
"371 30 OFFCURVE",
"512 -20 OFFCURVE",
"616 -20 CURVE SMOOTH"
);
}
);
width = 1122;
},
{
anchors = (
{
name = bottom;
position = "{533, 0}";
},
{
name = top;
position = "{54, 1931}";
}
);
layerId = "72F22432-F665-4153-96BB-74D91BCC5F28";
paths = (
{
closed = 1;
nodes = (
"484 -426 LINE",
"484 -362 LINE",
"375 -362 OFFCURVE",
"362 -298 OFFCURVE",
"362 -243 CURVE SMOOTH",
"362 1500 LINE",
"320 1500 LINE",
"-5 1413 LINE",
"-5 1341 LINE",
"137 1382 OFFCURVE",
"137 1363 OFFCURVE",
"137 1299 CURVE SMOOTH",
"137 -255 LINE SMOOTH",
"137 -347 OFFCURVE",
"108 -362 OFFCURVE",
"-5 -362 CURVE",
"-5 -426 LINE"
);
},
{
closed = 1;
nodes = (
"765 -20 OFFCURVE",
"1025 134 OFFCURVE",
"1025 418 CURVE SMOOTH",
"1025 754 OFFCURVE",
"838 841 OFFCURVE",
"616 841 CURVE SMOOTH",
"524 841 OFFCURVE",
"425 776 OFFCURVE",
"355 723 CURVE",
"355 635 LINE",
"444 708 OFFCURVE",
"505 763 OFFCURVE",
"580 763 CURVE SMOOTH",
"689 763 OFFCURVE",
"772 632 OFFCURVE",
"772 352 CURVE SMOOTH",
"772 130 OFFCURVE",
"731 51 OFFCURVE",
"586 51 CURVE SMOOTH",
"474 51 OFFCURVE",
"396 111 OFFCURVE",
"355 314 CURVE",
"260 224 LINE",
"294 30 OFFCURVE",
"482 -20 OFFCURVE",
"580 -20 CURVE SMOOTH"
);
}
);
width = 1066;
}
);
unicode = 00FE;
},
{
glyphname = q;
lastChange = "2020-11-04 18:49:55 +0000";
layers = (
{
anchors = (
{
name = bottom;
position = "{457, 0}";
},
{
name = top;
position = "{457, 826}";
}
);
layerId = "14A1E899-FED4-4F52-86F4-A1F822586E10";
paths = (
{
closed = 1;
nodes = (
"672 538 LINE",
"672 -308 LINE SMOOTH",
"672 -366 OFFCURVE",
"654 -366 OFFCURVE",
"544 -366 CURVE",
"544 -430 LINE",
"906 -430 LINE",
"906 -366 LINE",
"796 -366 OFFCURVE",
"778 -365 OFFCURVE",
"778 -308 CURVE SMOOTH",
"778 840 LINE",
"711 840 LINE"
);
},
{
closed = 1;
nodes = (
"233 851 OFFCURVE",
"65 687 OFFCURVE",
"65 403 CURVE SMOOTH",
"65 67 OFFCURVE",
"271 -20 OFFCURVE",
"412 -20 CURVE SMOOTH",
"499 -20 OFFCURVE",
"602 53 OFFCURVE",
"675 106 CURVE",
"675 194 LINE",
"582 121 OFFCURVE",
"500 58 OFFCURVE",
"431 58 CURVE SMOOTH",
"354 58 OFFCURVE",
"183 95 OFFCURVE",
"183 411 CURVE SMOOTH",
"183 634 OFFCURVE",
"288 780 OFFCURVE",
"422 780 CURVE SMOOTH",
"539 780 OFFCURVE",
"612 710 OFFCURVE",
"675 507 CURVE",
"719 597 LINE",
"663 791 OFFCURVE",
"532 851 OFFCURVE",
"428 851 CURVE SMOOTH"
);
}
);
width = 874;
},
{
anchors = (
{
name = bottom;
position = "{499, 0}";
},
{
name = top;
position = "{499, 826}";
}
);
layerId = "72F22432-F665-4153-96BB-74D91BCC5F28";
paths = (
{
closed = 1;
nodes = (
"703 538 LINE",
"703 -273 LINE",
"703 -338 OFFCURVE",
"686 -366 OFFCURVE",
"581 -366 CURVE",
"581 -430 LINE",
"1047 -430 LINE",
"1047 -366 LINE",
"942 -366 OFFCURVE",
"925 -337 OFFCURVE",
"925 -273 CURVE SMOOTH",
"925 831 LINE",
"829 831 LINE"
);
},
{
closed = 1;
nodes = (
"240 849 OFFCURVE",
"62 712 OFFCURVE",
"62 428 CURVE SMOOTH",
"62 92 OFFCURVE",
"222 -20 OFFCURVE",
"445 -20 CURVE SMOOTH",
"546 -20 OFFCURVE",
"646 38 OFFCURVE",
"713 96 CURVE",
"713 184 LINE",
"625 104 OFFCURVE",
"563 58 OFFCURVE",
"481 58 CURVE SMOOTH",
"372 58 OFFCURVE",
"315 244 OFFCURVE",
"315 484 CURVE SMOOTH",
"315 671 OFFCURVE",
"363 778 OFFCURVE",
"473 778 CURVE SMOOTH",
"584 778 OFFCURVE",
"669 675 OFFCURVE",
"729 437 CURVE",
"816 517 LINE",
"763 746 OFFCURVE",
"599 849 OFFCURVE",
"460 849 CURVE SMOOTH"
);
}
);
width = 997;
}
);
leftKerningGroup = o;
leftMetricsKey = o;
rightMetricsKey = "=i-80";
unicode = 0071;
},
{
glyphname = r;
lastChange = "2020-11-04 18:50:52 +0000";
layers = (
{
anchors = (
{
name = bottom;
position = "{213, 0}";
},
{
name = top;
position = "{443, 826}";
}
);
layerId = "14A1E899-FED4-4F52-86F4-A1F822586E10";
paths = (
{
closed = 1;
nodes = (
"448 0 LINE",
"448 64 LINE",
"338 64 OFFCURVE",
"302 80 OFFCURVE",
"302 142 CURVE SMOOTH",
"302 855 LINE",
"257 855 LINE",
"48 785 LINE",
"48 731 LINE",
"173 751 OFFCURVE",
"197 752 OFFCURVE",
"197 679 CURVE SMOOTH",
"197 146 LINE SMOOTH",
"197 80 OFFCURVE",
"154 64 OFFCURVE",
"48 64 CURVE",
"48 0 LINE"
);
},
{
closed = 1;
nodes = (
"412 685 OFFCURVE",
"515 761 OFFCURVE",
"537 761 CURVE",
"658 814 LINE",
"643 824 OFFCURVE",
"595 851 OFFCURVE",
"569 851 CURVE SMOOTH",
"537 851 OFFCURVE",
"388 742 OFFCURVE",
"289 662 CURVE",
"299 589 LINE"
);
},
{
closed = 1;
nodes = (
"676 649 LINE",
"658 814 LINE",
"527 766 LINE",
"514 619 LINE"
);
}
);
width = 734;
},
{
anchors = (
{
name = bottom;
position = "{316, 0}";
},
{
name = top;
position = "{534, 826}";
}
);
layerId = "72F22432-F665-4153-96BB-74D91BCC5F28";
paths = (
{
closed = 1;
nodes = (
"539 0 LINE",
"539 64 LINE",
"435 64 OFFCURVE",
"400 115 OFFCURVE",
"400 177 CURVE SMOOTH",
"400 855 LINE",
"348 855 LINE",
"30 768 LINE",
"30 696 LINE",
"164 738 OFFCURVE",
"172 685 OFFCURVE",
"172 627 CURVE SMOOTH",
"172 216 LINE SMOOTH",
"172 80 OFFCURVE",
"131 64 OFFCURVE",
"30 64 CURVE",
"30 0 LINE"
);
},
{
closed = 1;
nodes = (
"502 659 OFFCURVE",
"585 727 OFFCURVE",
"605 727 CURVE",
"802 814 LINE",
"787 825 OFFCURVE",
"724 851 OFFCURVE",
"689 851 CURVE SMOOTH",
"659 851 OFFCURVE",
"482 730 OFFCURVE",
"388 662 CURVE",
"398 571 LINE"
);
},
{
closed = 1;
nodes = (
"819 594 LINE",
"802 814 LINE",
"605 770 LINE",
"583 529 LINE"
);
}
);
width = 865;
}
);
leftKerningGroup = i;
leftMetricsKey = i;
rightKerningGroup = r;
unicode = 0072;
},
{
glyphname = s;
lastChange = "2020-10-29 17:19:59 +0000";
layers = (
{
anchors = (
{
name = bottom;
position = "{352, 0}";
},
{
name = top;
position = "{352, 826}";
}
);
layerId = "14A1E899-FED4-4F52-86F4-A1F822586E10";
paths = (
{
closed = 1;
nodes = (
"484 -24 OFFCURVE",
"640 65 OFFCURVE",
"640 220 CURVE SMOOTH",
"640 371 OFFCURVE",
"547 419 OFFCURVE",
"401 468 CURVE SMOOTH",
"269 512 OFFCURVE",
"160 555 OFFCURVE",
"160 652 CURVE SMOOTH",
"160 751 OFFCURVE",
"260 784 OFFCURVE",
"353 784 CURVE SMOOTH",
"443 784 OFFCURVE",
"531 724 OFFCURVE",
"542 589 CURVE",
"595 589 LINE",
"605 759 LINE",
"570 791 OFFCURVE",
"482 851 OFFCURVE",
"353 851 CURVE SMOOTH",
"231 851 OFFCURVE",
"73 795 OFFCURVE",
"73 635 CURVE SMOOTH",
"73 498 OFFCURVE",
"147 437 OFFCURVE",
"284 392 CURVE SMOOTH",
"418 348 OFFCURVE",
"548 288 OFFCURVE",
"548 194 CURVE SMOOTH",
"548 97 OFFCURVE",
"448 44 OFFCURVE",
"342 44 CURVE SMOOTH",
"201 44 OFFCURVE",
"147 111 OFFCURVE",
"128 264 CURVE",
"75 264 LINE",
"65 70 LINE",
"118 19 OFFCURVE",
"209 -24 OFFCURVE",
"344 -24 CURVE SMOOTH"
);
}
);
width = 705;
},
{
anchors = (
{
name = bottom;
position = "{388, 0}";
},
{
name = top;
position = "{388, 826}";
}
);
layerId = "72F22432-F665-4153-96BB-74D91BCC5F28";
paths = (
{
closed = 1;
nodes = (
"567 -24 OFFCURVE",
"733 41 OFFCURVE",
"733 231 CURVE SMOOTH",
"733 392 OFFCURVE",
"546 468 OFFCURVE",
"398 528 CURVE SMOOTH",
"289 572 OFFCURVE",
"238 609 OFFCURVE",
"238 670 CURVE SMOOTH",
"238 751 OFFCURVE",
"317 774 OFFCURVE",
"379 774 CURVE SMOOTH",
"463 774 OFFCURVE",
"548 719 OFFCURVE",
"577 562 CURVE",
"663 562 LINE",
"690 765 LINE",
"636 805 OFFCURVE",
"536 851 OFFCURVE",
"407 851 CURVE SMOOTH",
"265 851 OFFCURVE",
"87 786 OFFCURVE",
"87 609 CURVE SMOOTH",
"87 442 OFFCURVE",
"245 368 OFFCURVE",
"377 315 CURVE SMOOTH",
"505 264 OFFCURVE",
"560 210 OFFCURVE",
"560 137 CURVE SMOOTH",
"560 78 OFFCURVE",
"489 53 OFFCURVE",
"415 53 CURVE SMOOTH",
"317 53 OFFCURVE",
"194 132 OFFCURVE",
"175 297 CURVE",
"89 297 LINE",
"62 53 LINE",
"151 9 OFFCURVE",
"274 -24 OFFCURVE",
"399 -24 CURVE SMOOTH"
);
}
);
width = 795;
}
);
leftKerningGroup = s;
leftMetricsKey = o;
rightKerningGroup = s;
rightMetricsKey = o;
unicode = 0073;
},
{
glyphname = germandbls;
lastChange = "2020-10-15 16:52:55 +0000";
layers = (
{
layerId = "14A1E899-FED4-4F52-86F4-A1F822586E10";
paths = (
{
closed = 1;
nodes = (
"755 781 OFFCURVE",
"958 911 OFFCURVE",
"958 1094 CURVE SMOOTH",
"958 1317 OFFCURVE",
"799 1422 OFFCURVE",
"633 1422 CURVE SMOOTH",
"499 1422 OFFCURVE",
"431 1393 OFFCURVE",
"305 1288 CURVE SMOOTH",
"256 1247 OFFCURVE",
"197 1173 OFFCURVE",
"197 1127 CURVE SMOOTH",
"197 152 LINE SMOOTH",
"197 90 OFFCURVE",
"154 64 OFFCURVE",
"48 64 CURVE",
"48 0 LINE",
"313 0 LINE",
"313 1151 LINE SMOOTH",
"313 1214 OFFCURVE",
"488 1340 OFFCURVE",
"582 1340 CURVE SMOOTH",
"702 1340 OFFCURVE",
"838 1311 OFFCURVE",
"838 1082 CURVE SMOOTH",
"838 904 OFFCURVE",
"660 789 OFFCURVE",
"526 768 CURVE",
"526 718 LINE",
"716 714 OFFCURVE",
"896 622 OFFCURVE",
"896 356 CURVE SMOOTH",
"896 120 OFFCURVE",
"796 50 OFFCURVE",
"671 50 CURVE SMOOTH",
"562 50 OFFCURVE",
"496 107 OFFCURVE",
"481 252 CURVE",
"434 252 LINE",
"411 48 LINE",
"470 -1 OFFCURVE",
"561 -24 OFFCURVE",
"669 -24 CURVE SMOOTH",
"805 -24 OFFCURVE",
"1022 80 OFFCURVE",
"1022 384 CURVE SMOOTH",
"1022 650 OFFCURVE",
"767 753 OFFCURVE",
"637 753 CURVE"
);
}
);
width = 1087;
},
{
layerId = "72F22432-F665-4153-96BB-74D91BCC5F28";
paths = (
{
closed = 1;
nodes = (
"827 786 OFFCURVE",
"1002 912 OFFCURVE",
"1002 1094 CURVE SMOOTH",
"1002 1317 OFFCURVE",
"873 1422 OFFCURVE",
"657 1422 CURVE SMOOTH",
"530 1422 OFFCURVE",
"465 1393 OFFCURVE",
"346 1288 CURVE SMOOTH",
"305 1252 OFFCURVE",
"172 1156 OFFCURVE",
"172 1110 CURVE SMOOTH",
"172 152 LINE SMOOTH",
"172 90 OFFCURVE",
"131 64 OFFCURVE",
"30 64 CURVE",
"30 0 LINE",
"389 0 LINE",
"389 1151 LINE SMOOTH",
"389 1214 OFFCURVE",
"520 1323 OFFCURVE",
"555 1323 CURVE SMOOTH",
"669 1323 OFFCURVE",
"759 1159 OFFCURVE",
"759 1012 CURVE SMOOTH",
"759 835 OFFCURVE",
"683 789 OFFCURVE",
"556 768 CURVE",
"556 718 LINE",
"736 714 OFFCURVE",
"818 569 OFFCURVE",
"818 304 CURVE SMOOTH",
"818 137 OFFCURVE",
"776 50 OFFCURVE",
"729 50 CURVE SMOOTH",
"570 50 OFFCURVE",
"527 162 OFFCURVE",
"513 270 CURVE",
"450 270 LINE",
"428 31 LINE",
"502 -1 OFFCURVE",
"590 -24 OFFCURVE",
"709 -24 CURVE SMOOTH",
"856 -24 OFFCURVE",
"1080 98 OFFCURVE",
"1080 402 CURVE SMOOTH",
"1080 667 OFFCURVE",
"892 758 OFFCURVE",
"715 758 CURVE"
);
}
);
width = 1142;
}
);
leftMetricsKey = l;
rightMetricsKey = b;
unicode = 00DF;
},
{
glyphname = t;
lastChange = "2020-11-04 18:52:20 +0000";
layers = (
{
anchors = (
{
name = bottom;
position = "{251, 0}";
},
{
name = center;
position = "{251, 463}";
},
{
name = top;
position = "{228, 1129}";
},
{
name = topright;
position = "{506, 825}";
}
);
layerId = "14A1E899-FED4-4F52-86F4-A1F822586E10";
paths = (
{
closed = 1;
nodes = (
"392 -16 OFFCURVE",
"430 10 OFFCURVE",
"511 92 CURVE",
"479 134 LINE",
"430 90 OFFCURVE",
"396 62 OFFCURVE",
"358 62 CURVE SMOOTH",
"293 62 OFFCURVE",
"263 112 OFFCURVE",
"263 262 CURVE SMOOTH",
"263 761 LINE",
"519 761 LINE",
"537 826 LINE",
"263 826 LINE",
"263 1129 LINE",
"204 1129 LINE",
"161 900 OFFCURVE",
"149 839 OFFCURVE",
"38 826 CURVE",
"38 761 LINE",
"156 761 LINE",
"156 228 LINE SMOOTH",
"156 24 OFFCURVE",
"242 -16 OFFCURVE",
"320 -16 CURVE SMOOTH"
);
}
);
width = 547;
},
{
anchors = (
{
name = bottom;
position = "{341, 0}";
},
{
name = center;
position = "{337, 422}";
},
{
name = top;
position = "{322, 1130}";
},
{
name = topright;
position = "{597, 825}";
}
);
layerId = "72F22432-F665-4153-96BB-74D91BCC5F28";
paths = (
{
closed = 1;
nodes = (
"478 -16 OFFCURVE",
"540 10 OFFCURVE",
"637 92 CURVE",
"607 134 LINE",
"540 90 OFFCURVE",
"493 80 OFFCURVE",
"456 80 CURVE SMOOTH",
"387 80 OFFCURVE",
"366 127 OFFCURVE",
"366 262 CURVE SMOOTH",
"366 750 LINE",
"635 750 LINE",
"652 826 LINE",
"366 826 LINE",
"366 1129 LINE",
"275 1129 LINE",
"211 971 OFFCURVE",
"142 896 OFFCURVE",
"27 825 CURVE",
"27 749 LINE",
"139 749 LINE",
"139 228 LINE SMOOTH",
"139 24 OFFCURVE",
"301 -16 OFFCURVE",
"410 -16 CURVE SMOOTH"
);
}
);
width = 653;
}
);
leftKerningGroup = t;
rightKerningGroup = t;
rightMetricsKey = "=f+10";
unicode = 0074;
},
{
glyphname = tbar;
lastChange = "2020-10-13 20:48:00 +0000";
layers = (
{
components = (
{
name = t;
}
);
layerId = "14A1E899-FED4-4F52-86F4-A1F822586E10";
paths = (
{
closed = 1;
nodes = (
"522 432 LINE",
"522 504 LINE",
"30 504 LINE",
"30 432 LINE"
);
}
);
width = 547;
},
{
components = (
{
name = t;
}
);
layerId = "72F22432-F665-4153-96BB-74D91BCC5F28";
paths = (
{
closed = 1;
nodes = (
"628 411 LINE",
"628 493 LINE",
"26 493 LINE",
"26 411 LINE"
);
}
);
width = 673;
}
);
unicode = 0167;
},
{
glyphname = u;
lastChange = "2020-11-04 18:47:05 +0000";
layers = (
{
anchors = (
{
name = bottom;
position = "{507, 0}";
},
{
name = ogonek;
position = "{930, 0}";
},
{
name = top;
position = "{477, 826}";
},
{
name = topright;
position = "{771, 826}";
}
);
layerId = "14A1E899-FED4-4F52-86F4-A1F822586E10";
paths = (
{
closed = 1;
nodes = (
"496 -15 OFFCURVE",
"614 69 OFFCURVE",
"731 153 CURVE",
"719 232 LINE",
"604 141 OFFCURVE",
"504 67 OFFCURVE",
"427 67 CURVE SMOOTH",
"353 67 OFFCURVE",
"266 99 OFFCURVE",
"266 241 CURVE SMOOTH",
"266 826 LINE",
"28 826 LINE",
"28 762 LINE",
"138 762 OFFCURVE",
"156 757 OFFCURVE",
"156 714 CURVE SMOOTH",
"156 237 LINE SMOOTH",
"156 29 OFFCURVE",
"277 -15 OFFCURVE",
"394 -15 CURVE SMOOTH"
);
},
{
closed = 1;
nodes = (
"930 0 LINE",
"930 53 LINE",
"840 53 OFFCURVE",
"827 61 OFFCURVE",
"827 110 CURVE SMOOTH",
"827 826 LINE",
"590 826 LINE",
"590 762 LINE",
"700 762 OFFCURVE",
"718 757 OFFCURVE",
"718 714 CURVE SMOOTH",
"718 -6 LINE",
"751 -26 LINE"
);
}
);
width = 978;
},
{
anchors = (
{
name = bottom;
position = "{519, 0}";
},
{
name = ogonek;
position = "{1028, 0}";
},
{
name = top;
position = "{490, 826}";
},
{
name = topright;
position = "{769, 826}";
}
);
layerId = "72F22432-F665-4153-96BB-74D91BCC5F28";
paths = (
{
closed = 1;
nodes = (
"516 -15 OFFCURVE",
"600 41 OFFCURVE",
"714 118 CURVE",
"702 197 LINE",
"593 115 OFFCURVE",
"527 67 OFFCURVE",
"454 67 CURVE SMOOTH",
"374 67 OFFCURVE",
"361 115 OFFCURVE",
"361 241 CURVE SMOOTH",
"361 826 LINE",
"10 826 LINE",
"10 762 LINE",
"122 762 OFFCURVE",
"132 730 OFFCURVE",
"132 662 CURVE SMOOTH",
"132 272 LINE SMOOTH",
"132 88 OFFCURVE",
"207 -15 OFFCURVE",
"420 -15 CURVE SMOOTH"
);
},
{
closed = 1;
nodes = (
"1028 0 LINE",
"1028 71 LINE",
"936 71 OFFCURVE",
"930 83 OFFCURVE",
"930 128 CURVE SMOOTH",
"930 826 LINE",
"580 826 LINE",
"580 762 LINE",
"684 762 OFFCURVE",
"701 755 OFFCURVE",
"701 679 CURVE SMOOTH",
"701 1 LINE",
"736 -24 LINE"
);
}
);
width = 1058;
}
);
leftKerningGroup = u;
leftMetricsKey = "=i-20";
rightKerningGroup = i;
rightMetricsKey = i;
unicode = 0075;
},
{
glyphname = uhorn;
lastChange = "2020-11-04 18:47:02 +0000";
layers = (
{
anchors = (
{
name = bottom;
position = "{450, 0}";
},
{
name = top;
position = "{450, 826}";
}
);
components = (
{
name = horncomb;
transform = "{1, 0, 0, 1, 660, -102}";
}
);
layerId = "14A1E899-FED4-4F52-86F4-A1F822586E10";
paths = (
{
closed = 1;
nodes = (
"496 -15 OFFCURVE",
"614 69 OFFCURVE",
"731 153 CURVE",
"719 232 LINE",
"604 141 OFFCURVE",
"504 67 OFFCURVE",
"427 67 CURVE SMOOTH",
"353 67 OFFCURVE",
"266 99 OFFCURVE",
"266 241 CURVE SMOOTH",
"266 826 LINE",
"28 826 LINE",
"28 762 LINE",
"138 762 OFFCURVE",
"156 757 OFFCURVE",
"156 714 CURVE SMOOTH",
"156 237 LINE SMOOTH",
"156 29 OFFCURVE",
"277 -15 OFFCURVE",
"394 -15 CURVE SMOOTH"
);
},
{
closed = 1;
nodes = (
"930 0 LINE",
"930 53 LINE",
"840 53 OFFCURVE",
"827 61 OFFCURVE",
"827 110 CURVE SMOOTH",
"827 826 LINE",
"590 826 LINE",
"590 762 LINE",
"700 762 OFFCURVE",
"718 757 OFFCURVE",
"718 714 CURVE SMOOTH",
"718 -6 LINE",
"751 -26 LINE"
);
}
);
width = 1003;
},
{
anchors = (
{
name = bottom;
position = "{572, 0}";
},
{
name = top;
position = "{572, 826}";
}
);
components = (
{
name = horncomb;
transform = "{1, 0, 0, 1, 771, -102}";
}
);
layerId = "72F22432-F665-4153-96BB-74D91BCC5F28";
paths = (
{
closed = 1;
nodes = (
"516 -15 OFFCURVE",
"600 41 OFFCURVE",
"714 118 CURVE",
"702 197 LINE",
"593 115 OFFCURVE",
"534 67 OFFCURVE",
"461 67 CURVE SMOOTH",
"381 67 OFFCURVE",
"361 115 OFFCURVE",
"361 241 CURVE SMOOTH",
"361 826 LINE",
"10 826 LINE",
"10 762 LINE",
"122 762 OFFCURVE",
"132 730 OFFCURVE",
"132 662 CURVE SMOOTH",
"132 272 LINE SMOOTH",
"132 88 OFFCURVE",
"207 -15 OFFCURVE",
"420 -15 CURVE SMOOTH"
);
},
{
closed = 1;
nodes = (
"1028 0 LINE",
"1028 71 LINE",
"936 71 OFFCURVE",
"930 83 OFFCURVE",
"930 128 CURVE SMOOTH",
"930 826 LINE",
"580 826 LINE",
"580 762 LINE",
"684 762 OFFCURVE",
"701 755 OFFCURVE",
"701 679 CURVE SMOOTH",
"701 -24 LINE",
"700 -28 LINE"
);
}
);
width = 1103;
}
);
leftKerningGroup = u;
leftMetricsKey = u;
rightKerningGroup = u;
rightMetricsKey = "=u-80";
unicode = 01B0;
},
{
glyphname = v;
lastChange = "2020-11-04 18:22:02 +0000";
layers = (
{
anchors = (
{
name = bottom;
position = "{453, 0}";
},
{
name = top;
position = "{512, 826}";
}
);
layerId = "14A1E899-FED4-4F52-86F4-A1F822586E10";
paths = (
{
closed = 1;
nodes = (
"495 -10 LINE",
"785 698 LINE SMOOTH",
"809 757 OFFCURVE",
"817 762 OFFCURVE",
"911 762 CURVE",
"911 826 LINE",
"590 826 LINE",
"590 762 LINE",
"694 762 OFFCURVE",
"715 760 OFFCURVE",
"715 741 CURVE SMOOTH",
"715 728 OFFCURVE",
"712 720 OFFCURVE",
"705 703 CURVE SMOOTH",
"488 165 LINE",
"266 709 LINE SMOOTH",
"260 723 OFFCURVE",
"258 731 OFFCURVE",
"258 740 CURVE SMOOTH",
"258 759 OFFCURVE",
"287 762 OFFCURVE",
"381 762 CURVE",
"381 826 LINE",
"15 826 LINE",
"15 762 LINE",
"89 762 OFFCURVE",
"128 755 OFFCURVE",
"152 698 CURVE SMOOTH",
"447 -10 LINE"
);
}
);
width = 926;
},
{
anchors = (
{
name = bottom;
position = "{487, 0}";
},
{
name = top;
position = "{543, 826}";
}
);
layerId = "72F22432-F665-4153-96BB-74D91BCC5F28";
paths = (
{
closed = 1;
nodes = (
"521 -10 LINE",
"815 698 LINE SMOOTH",
"840 757 OFFCURVE",
"896 762 OFFCURVE",
"949 762 CURVE",
"949 826 LINE",
"599 826 LINE",
"599 762 LINE",
"631 762 OFFCURVE",
"710 762 OFFCURVE",
"710 725 CURVE SMOOTH",
"710 713 OFFCURVE",
"699 678 OFFCURVE",
"696 670 CURVE SMOOTH",
"554 311 LINE",
"406 679 LINE SMOOTH",
"395 707 OFFCURVE",
"393 719 OFFCURVE",
"393 733 CURVE SMOOTH",
"393 762 OFFCURVE",
"443 762 OFFCURVE",
"504 762 CURVE",
"504 826 LINE",
"10 826 LINE",
"10 762 LINE",
"85 762 OFFCURVE",
"116 752 OFFCURVE",
"140 698 CURVE SMOOTH",
"456 -10 LINE"
);
}
);
width = 959;
}
);
leftKerningGroup = v;
rightKerningGroup = v;
unicode = 0076;
},
{
glyphname = w;
lastChange = "2020-11-04 18:29:21 +0000";
layers = (
{
anchors = (
{
name = bottom;
position = "{682, 0}";
},
{
name = top;
position = "{703, 826}";
}
);
layerId = "14A1E899-FED4-4F52-86F4-A1F822586E10";
paths = (
{
closed = 1;
nodes = (
"951 -10 LINE",
"1221 698 LINE SMOOTH",
"1242 752 OFFCURVE",
"1246 762 OFFCURVE",
"1346 762 CURVE",
"1346 826 LINE",
"1025 826 LINE",
"1025 762 LINE",
"1129 762 OFFCURVE",
"1150 761 OFFCURVE",
"1150 743 CURVE SMOOTH",
"1150 731 OFFCURVE",
"1147 722 OFFCURVE",
"1140 703 CURVE SMOOTH",
"943 169 LINE",
"741 709 LINE SMOOTH",
"736 722 OFFCURVE",
"733 731 OFFCURVE",
"733 740 CURVE SMOOTH",
"733 759 OFFCURVE",
"762 762 OFFCURVE",
"856 762 CURVE",
"856 826 LINE",
"496 826 LINE",
"496 762 LINE",
"570 762 OFFCURVE",
"603 755 OFFCURVE",
"625 698 CURVE SMOOTH",
"900 -10 LINE"
);
},
{
closed = 1;
nodes = (
"470 -10 LINE",
"740 698 LINE",
"659 703 LINE",
"462 169 LINE",
"260 709 LINE SMOOTH",
"255 722 OFFCURVE",
"252 731 OFFCURVE",
"252 740 CURVE SMOOTH",
"252 759 OFFCURVE",
"281 762 OFFCURVE",
"375 762 CURVE",
"375 826 LINE",
"15 826 LINE",
"15 762 LINE",
"89 762 OFFCURVE",
"122 755 OFFCURVE",
"144 698 CURVE SMOOTH",
"419 -10 LINE"
);
}
);
width = 1361;
},
{
anchors = (
{
name = bottom;
position = "{679, 0}";
},
{
name = top;
position = "{699, 826}";
}
);
layerId = "72F22432-F665-4153-96BB-74D91BCC5F28";
paths = (
{
closed = 1;
nodes = (
"952 8 LINE",
"1197 698 LINE SMOOTH",
"1218 757 OFFCURVE",
"1278 762 OFFCURVE",
"1332 762 CURVE",
"1332 826 LINE",
"1017 826 LINE",
"1017 762 LINE",
"1061 762 OFFCURVE",
"1104 762 OFFCURVE",
"1104 712 CURVE SMOOTH",
"1104 686 OFFCURVE",
"1101 673 OFFCURVE",
"1091 645 CURVE SMOOTH",
"993 361 LINE",
"890 658 LINE SMOOTH",
"886 670 OFFCURVE",
"883 695 OFFCURVE",
"883 704 CURVE SMOOTH",
"883 756 OFFCURVE",
"922 762 OFFCURVE",
"971 762 CURVE",
"971 826 LINE",
"527 826 LINE",
"527 762 LINE",
"597 762 OFFCURVE",
"610 755 OFFCURVE",
"631 698 CURVE SMOOTH",
"882 8 LINE"
);
},
{
closed = 1;
nodes = (
"461 8 LINE",
"706 698 LINE",
"631 710 LINE",
"503 361 LINE",
"399 658 LINE SMOOTH",
"395 670 OFFCURVE",
"392 692 OFFCURVE",
"392 704 CURVE SMOOTH",
"392 756 OFFCURVE",
"429 762 OFFCURVE",
"479 762 CURVE",
"479 826 LINE",
"10 826 LINE",
"10 762 LINE",
"80 762 OFFCURVE",
"119 755 OFFCURVE",
"140 698 CURVE SMOOTH",
"391 8 LINE"
);
}
);
width = 1342;
}
);
leftKerningGroup = v;
leftMetricsKey = v;
rightKerningGroup = v;
rightMetricsKey = v;
unicode = 0077;
},
{
glyphname = x;
lastChange = "2020-11-04 18:22:03 +0000";
layers = (
{
anchors = (
{
name = bottom;
position = "{504, 0}";
},
{
name = top;
position = "{504, 826}";
}
);
layerId = "14A1E899-FED4-4F52-86F4-A1F822586E10";
paths = (
{
closed = 1;
nodes = (
"955 0 LINE",
"955 64 LINE",
"872 64 OFFCURVE",
"862 69 OFFCURVE",
"826 110 CURVE SMOOTH",
"305 706 LINE SMOOTH",
"292 721 OFFCURVE",
"283 734 OFFCURVE",
"283 744 CURVE SMOOTH",
"283 761 OFFCURVE",
"317 762 OFFCURVE",
"405 762 CURVE",
"405 826 LINE",
"27 826 LINE",
"27 762 LINE",
"103 762 OFFCURVE",
"116 762 OFFCURVE",
"153 719 CURVE SMOOTH",
"673 127 LINE SMOOTH",
"691 107 OFFCURVE",
"702 92 OFFCURVE",
"702 82 CURVE SMOOTH",
"702 64 OFFCURVE",
"666 64 OFFCURVE",
"580 64 CURVE",
"580 0 LINE"
);
},
{
closed = 1;
nodes = (
"789 698 LINE SMOOTH",
"825 738 OFFCURVE",
"847 762 OFFCURVE",
"957 762 CURVE",
"957 826 LINE",
"584 826 LINE",
"584 762 LINE",
"676 762 OFFCURVE",
"716 759 OFFCURVE",
"716 741 CURVE SMOOTH",
"716 729 OFFCURVE",
"714 721 OFFCURVE",
"701 706 CURVE SMOOTH",
"465 445 LINE",
"504 380 LINE"
);
},
{
closed = 1;
nodes = (
"183 128 LINE SMOOTH",
"147 88 OFFCURVE",
"125 64 OFFCURVE",
"15 64 CURVE",
"15 0 LINE",
"388 0 LINE",
"388 64 LINE",
"296 64 OFFCURVE",
"248 65 OFFCURVE",
"248 83 CURVE SMOOTH",
"248 93 OFFCURVE",
"258 105 OFFCURVE",
"271 120 CURVE SMOOTH",
"507 381 LINE",
"468 446 LINE"
);
}
);
width = 972;
},
{
anchors = (
{
name = bottom;
position = "{517, 0}";
},
{
name = top;
position = "{517, 826}";
}
);
layerId = "72F22432-F665-4153-96BB-74D91BCC5F28";
paths = (
{
closed = 1;
nodes = (
"1070 0 LINE",
"1070 64 LINE",
"997 64 OFFCURVE",
"953 100 OFFCURVE",
"917 141 CURVE SMOOTH",
"417 706 LINE SMOOTH",
"404 721 OFFCURVE",
"398 730 OFFCURVE",
"398 741 CURVE SMOOTH",
"398 758 OFFCURVE",
"426 762 OFFCURVE",
"530 762 CURVE",
"530 826 LINE",
"10 826 LINE",
"10 762 LINE",
"80 762 OFFCURVE",
"128 725 OFFCURVE",
"166 683 CURVE SMOOTH",
"673 121 LINE SMOOTH",
"687 105 OFFCURVE",
"693 91 OFFCURVE",
"693 82 CURVE SMOOTH",
"693 68 OFFCURVE",
"672 64 OFFCURVE",
"561 64 CURVE",
"561 0 LINE"
);
},
{
closed = 1;
nodes = (
"855 698 LINE SMOOTH",
"890 739 OFFCURVE",
"911 762 OFFCURVE",
"1010 762 CURVE",
"1010 826 LINE",
"632 826 LINE",
"632 762 LINE",
"740 762 OFFCURVE",
"762 758 OFFCURVE",
"762 744 CURVE SMOOTH",
"762 732 OFFCURVE",
"755 720 OFFCURVE",
"743 706 CURVE SMOOTH",
"519 445 LINE",
"585 380 LINE"
);
},
{
closed = 1;
nodes = (
"180 128 LINE SMOOTH",
"145 87 OFFCURVE",
"122 64 OFFCURVE",
"25 64 CURVE",
"25 0 LINE",
"403 0 LINE",
"403 64 LINE",
"286 64 OFFCURVE",
"271 68 OFFCURVE",
"271 81 CURVE SMOOTH",
"271 92 OFFCURVE",
"279 105 OFFCURVE",
"292 120 CURVE SMOOTH",
"516 381 LINE",
"450 446 LINE"
);
}
);
width = 1080;
}
);
leftKerningGroup = x;
leftMetricsKey = v;
rightKerningGroup = x;
rightMetricsKey = v;
unicode = 0078;
},
{
glyphname = y;
lastChange = "2020-11-04 18:22:03 +0000";
layers = (
{
anchors = (
{
name = bottom;
position = "{629, 0}";
},
{
name = top;
position = "{453, 826}";
}
);
layerId = "14A1E899-FED4-4F52-86F4-A1F822586E10";
paths = (
{
closed = 1;
nodes = (
"482 -10 LINE",
"763 698 LINE SMOOTH",
"786 757 OFFCURVE",
"795 762 OFFCURVE",
"889 762 CURVE",
"889 826 LINE",
"562 826 LINE",
"562 762 LINE",
"666 762 OFFCURVE",
"686 761 OFFCURVE",
"686 742 CURVE SMOOTH",
"686 729 OFFCURVE",
"685 724 OFFCURVE",
"677 703 CURVE SMOOTH",
"470 173 LINE",
"260 709 LINE SMOOTH",
"255 722 OFFCURVE",
"252 730 OFFCURVE",
"252 740 CURVE SMOOTH",
"252 759 OFFCURVE",
"281 762 OFFCURVE",
"375 762 CURVE",
"375 826 LINE",
"15 826 LINE",
"15 762 LINE",
"83 762 OFFCURVE",
"123 755 OFFCURVE",
"146 698 CURVE SMOOTH",
"431 -10 LINE"
);
},
{
closed = 1;
nodes = (
"295 -438 OFFCURVE",
"343 -351 OFFCURVE",
"404 -201 CURVE SMOOTH",
"482 -10 LINE",
"419 55 LINE",
"315 -207 LINE SMOOTH",
"268 -326 OFFCURVE",
"234 -363 OFFCURVE",
"201 -363 CURVE SMOOTH",
"168 -363 OFFCURVE",
"146 -341 OFFCURVE",
"143 -300 CURVE",
"70 -395 LINE",
"88 -419 OFFCURVE",
"127 -438 OFFCURVE",
"178 -438 CURVE"
);
},
{
closed = 1;
nodes = (
"152 -351 LINE",
"185 -211 LINE",
"70 -230 LINE",
"70 -395 LINE"
);
}
);
width = 904;
},
{
anchors = (
{
name = bottom;
position = "{683, 0}";
},
{
name = top;
position = "{515, 826}";
}
);
layerId = "72F22432-F665-4153-96BB-74D91BCC5F28";
paths = (
{
closed = 1;
nodes = (
"568 8 LINE",
"856 698 LINE SMOOTH",
"880 755 OFFCURVE",
"933 762 OFFCURVE",
"987 762 CURVE",
"987 826 LINE",
"635 826 LINE",
"635 762 LINE",
"660 762 OFFCURVE",
"749 759 OFFCURVE",
"749 725 CURVE SMOOTH",
"749 716 OFFCURVE",
"747 703 OFFCURVE",
"743 694 CURVE SMOOTH",
"580 314 LINE",
"427 679 LINE SMOOTH",
"422 691 OFFCURVE",
"419 710 OFFCURVE",
"419 721 CURVE SMOOTH",
"419 755 OFFCURVE",
"474 762 OFFCURVE",
"525 762 CURVE",
"525 826 LINE",
"10 826 LINE",
"10 762 LINE",
"81 762 OFFCURVE",
"114 755 OFFCURVE",
"140 698 CURVE SMOOTH",
"458 8 LINE"
);
},
{
closed = 1;
nodes = (
"367 -428 OFFCURVE",
"422 -351 OFFCURVE",
"476 -219 CURVE SMOOTH",
"568 8 LINE",
"481 65 LINE",
"373 -204 LINE SMOOTH",
"324 -327 OFFCURVE",
"301 -345 OFFCURVE",
"254 -345 CURVE SMOOTH",
"222 -345 OFFCURVE",
"212 -296 OFFCURVE",
"210 -255 CURVE",
"71 -393 LINE",
"113 -420 OFFCURVE",
"179 -428 OFFCURVE",
"227 -428 CURVE"
);
},
{
closed = 1;
nodes = (
"225 -341 LINE",
"252 -184 LINE",
"71 -203 LINE",
"71 -393 LINE"
);
}
);
width = 997;
}
);
leftKerningGroup = v;
leftMetricsKey = v;
rightKerningGroup = v;
rightMetricsKey = v;
unicode = 0079;
},
{
glyphname = z;
lastChange = "2020-11-04 18:46:56 +0000";
layers = (
{
anchors = (
{
name = bottom;
position = "{387, 0}";
},
{
name = center;
position = "{387, 463}";
},
{
name = top;
position = "{387, 826}";
}
);
layerId = "14A1E899-FED4-4F52-86F4-A1F822586E10";
paths = (
{
closed = 1;
nodes = (
"649 0 LINE",
"676 286 LINE",
"616 286 LINE",
"587 131 OFFCURVE",
"569 74 OFFCURVE",
"483 74 CURVE SMOOTH",
"167 74 LINE",
"678 760 LINE",
"678 826 LINE",
"94 826 LINE",
"67 538 LINE",
"127 538 LINE",
"156 666 OFFCURVE",
"178 752 OFFCURVE",
"252 752 CURVE SMOOTH",
"555 752 LINE",
"48 66 LINE",
"48 0 LINE"
);
}
);
width = 726;
},
{
anchors = (
{
name = bottom;
position = "{406, 0}";
},
{
name = center;
position = "{406, 463}";
},
{
name = top;
position = "{406, 826}";
}
);
layerId = "72F22432-F665-4153-96BB-74D91BCC5F28";
paths = (
{
closed = 1;
nodes = (
"768 0 LINE",
"793 288 LINE",
"690 288 LINE",
"662 133 OFFCURVE",
"642 74 OFFCURVE",
"585 74 CURVE SMOOTH",
"268 74 LINE",
"764 760 LINE",
"764 826 LINE",
"56 826 LINE",
"30 538 LINE",
"133 538 LINE",
"161 666 OFFCURVE",
"181 752 OFFCURVE",
"226 752 CURVE SMOOTH",
"522 752 LINE",
"30 66 LINE",
"30 0 LINE"
);
}
);
width = 823;
}
);
leftKerningGroup = z;
leftMetricsKey = i;
rightKerningGroup = z;
rightMetricsKey = i;
unicode = 007A;
},
{
glyphname = ordmasculine;
lastChange = "2020-10-30 17:34:10 +0000";
layers = (
{
layerId = "14A1E899-FED4-4F52-86F4-A1F822586E10";
paths = (
{
closed = 1;
nodes = (
"365 1002 OFFCURVE",
"475 1072 OFFCURVE",
"475 1214 CURVE SMOOTH",
"475 1358 OFFCURVE",
"367 1422 OFFCURVE",
"267 1422 CURVE SMOOTH",
"163 1422 OFFCURVE",
"59 1348 OFFCURVE",
"59 1214 CURVE SMOOTH",
"59 1076 OFFCURVE",
"175 1002 OFFCURVE",
"267 1002 CURVE SMOOTH"
);
},
{
closed = 1;
nodes = (
"201 1054 OFFCURVE",
"149 1092 OFFCURVE",
"149 1220 CURVE SMOOTH",
"149 1318 OFFCURVE",
"201 1370 OFFCURVE",
"267 1370 CURVE SMOOTH",
"333 1370 OFFCURVE",
"383 1320 OFFCURVE",
"383 1202 CURVE SMOOTH",
"383 1104 OFFCURVE",
"333 1054 OFFCURVE",
"267 1054 CURVE SMOOTH"
);
}
);
width = 534;
},
{
layerId = "72F22432-F665-4153-96BB-74D91BCC5F28";
paths = (
{
closed = 1;
nodes = (
"395 1002 OFFCURVE",
"500 1072 OFFCURVE",
"500 1214 CURVE SMOOTH",
"500 1358 OFFCURVE",
"397 1422 OFFCURVE",
"283 1422 CURVE SMOOTH",
"166 1422 OFFCURVE",
"66 1348 OFFCURVE",
"66 1214 CURVE SMOOTH",
"66 1076 OFFCURVE",
"177 1002 OFFCURVE",
"283 1002 CURVE SMOOTH"
);
},
{
closed = 1;
nodes = (
"230 1079 OFFCURVE",
"210 1123 OFFCURVE",
"210 1220 CURVE SMOOTH",
"210 1287 OFFCURVE",
"230 1345 OFFCURVE",
"283 1345 CURVE SMOOTH",
"336 1345 OFFCURVE",
"354 1289 OFFCURVE",
"354 1202 CURVE SMOOTH",
"354 1135 OFFCURVE",
"336 1079 OFFCURVE",
"283 1079 CURVE SMOOTH"
);
}
);
width = 566;
}
);
leftMetricsKey = T;
rightMetricsKey = T;
unicode = 00BA;
},
{
glyphname = zero;
lastChange = "2020-10-16 00:57:24 +0000";
layers = (
{
layerId = "14A1E899-FED4-4F52-86F4-A1F822586E10";
paths = (
{
closed = 1;
nodes = (
"874 -24 OFFCURVE",
"1062 272 OFFCURVE",
"1062 698 CURVE SMOOTH",
"1062 1124 OFFCURVE",
"874 1422 OFFCURVE",
"580 1422 CURVE SMOOTH",
"286 1422 OFFCURVE",
"100 1124 OFFCURVE",
"100 698 CURVE SMOOTH",
"100 272 OFFCURVE",
"286 -24 OFFCURVE",
"580 -24 CURVE SMOOTH"
);
},
{
closed = 1;
nodes = (
"344 36 OFFCURVE",
"232 366 OFFCURVE",
"232 698 CURVE SMOOTH",
"232 1032 OFFCURVE",
"344 1362 OFFCURVE",
"580 1362 CURVE SMOOTH",
"816 1362 OFFCURVE",
"930 1032 OFFCURVE",
"930 698 CURVE SMOOTH",
"930 364 OFFCURVE",
"816 36 OFFCURVE",
"580 36 CURVE SMOOTH"
);
}
);
width = 1162;
},
{
layerId = "72F22432-F665-4153-96BB-74D91BCC5F28";
paths = (
{
closed = 1;
nodes = (
"954 -24 OFFCURVE",
"1152 272 OFFCURVE",
"1152 698 CURVE SMOOTH",
"1152 1124 OFFCURVE",
"954 1422 OFFCURVE",
"620 1422 CURVE SMOOTH",
"286 1422 OFFCURVE",
"90 1124 OFFCURVE",
"90 698 CURVE SMOOTH",
"90 272 OFFCURVE",
"286 -24 OFFCURVE",
"620 -24 CURVE SMOOTH"
);
},
{
closed = 1;
nodes = (
"444 46 OFFCURVE",
"392 434 OFFCURVE",
"392 698 CURVE SMOOTH",
"392 962 OFFCURVE",
"444 1352 OFFCURVE",
"620 1352 CURVE SMOOTH",
"796 1352 OFFCURVE",
"848 962 OFFCURVE",
"848 698 CURVE SMOOTH",
"848 434 OFFCURVE",
"796 46 OFFCURVE",
"620 46 CURVE SMOOTH"
);
}
);
width = 1242;
}
);
unicode = 0030;
},
{
glyphname = zero.osf;
lastChange = "2020-10-16 01:16:23 +0000";
layers = (
{
layerId = "14A1E899-FED4-4F52-86F4-A1F822586E10";
paths = (
{
closed = 1;
nodes = (
"834 -24 OFFCURVE",
"1022 183 OFFCURVE",
"1022 459 CURVE SMOOTH",
"1022 735 OFFCURVE",
"834 942 OFFCURVE",
"560 942 CURVE SMOOTH",
"286 942 OFFCURVE",
"100 735 OFFCURVE",
"100 459 CURVE SMOOTH",
"100 183 OFFCURVE",
"286 -24 OFFCURVE",
"560 -24 CURVE SMOOTH"
);
},
{
closed = 1;
nodes = (
"354 36 OFFCURVE",
"232 225 OFFCURVE",
"232 459 CURVE SMOOTH",
"232 693 OFFCURVE",
"354 882 OFFCURVE",
"560 882 CURVE SMOOTH",
"766 882 OFFCURVE",
"888 693 OFFCURVE",
"888 459 CURVE SMOOTH",
"888 225 OFFCURVE",
"766 36 OFFCURVE",
"560 36 CURVE SMOOTH"
);
}
);
width = 1122;
},
{
layerId = "72F22432-F665-4153-96BB-74D91BCC5F28";
paths = (
{
closed = 1;
nodes = (
"894 -24 OFFCURVE",
"1092 153 OFFCURVE",
"1092 459 CURVE SMOOTH",
"1092 765 OFFCURVE",
"894 942 OFFCURVE",
"590 942 CURVE SMOOTH",
"286 942 OFFCURVE",
"90 765 OFFCURVE",
"90 459 CURVE SMOOTH",
"90 153 OFFCURVE",
"286 -24 OFFCURVE",
"590 -24 CURVE SMOOTH"
);
},
{
closed = 1;
nodes = (
"444 46 OFFCURVE",
"382 235 OFFCURVE",
"382 459 CURVE SMOOTH",
"382 693 OFFCURVE",
"444 872 OFFCURVE",
"590 872 CURVE SMOOTH",
"736 872 OFFCURVE",
"798 693 OFFCURVE",
"798 459 CURVE SMOOTH",
"798 235 OFFCURVE",
"736 46 OFFCURVE",
"590 46 CURVE SMOOTH"
);
}
);
width = 1182;
}
);
leftMetricsKey = zero;
rightMetricsKey = zero;
},
{
glyphname = one;
lastChange = "2020-10-16 00:41:01 +0000";
layers = (
{
layerId = "14A1E899-FED4-4F52-86F4-A1F822586E10";
paths = (
{
closed = 1;
nodes = (
"514 0 LINE",
"514 64 LINE",
"392 64 OFFCURVE",
"362 69 OFFCURVE",
"362 132 CURVE SMOOTH",
"362 1400 LINE",
"302 1400 LINE",
"258 1316 OFFCURVE",
"200 1280 OFFCURVE",
"80 1280 CURVE",
"80 1220 LINE",
"246 1220 LINE",
"246 132 LINE SMOOTH",
"246 70 OFFCURVE",
"216 64 OFFCURVE",
"94 64 CURVE",
"94 0 LINE"
);
}
);
width = 594;
},
{
layerId = "72F22432-F665-4153-96BB-74D91BCC5F28";
paths = (
{
closed = 1;
nodes = (
"694 0 LINE",
"694 64 LINE",
"572 64 OFFCURVE",
"542 72 OFFCURVE",
"542 152 CURVE SMOOTH",
"542 1400 LINE",
"452 1400 LINE",
"406 1312 OFFCURVE",
"250 1250 OFFCURVE",
"80 1250 CURVE",
"80 1174 LINE",
"246 1174 LINE",
"246 152 LINE SMOOTH",
"246 90 OFFCURVE",
"216 64 OFFCURVE",
"94 64 CURVE",
"94 0 LINE"
);
}
);
width = 774;
}
);
unicode = 0031;
},
{
glyphname = one.osf;
lastChange = "2020-10-16 00:41:05 +0000";
layers = (
{
layerId = "14A1E899-FED4-4F52-86F4-A1F822586E10";
paths = (
{
closed = 1;
nodes = (
"509 0 LINE",
"509 64 LINE",
"387 64 OFFCURVE",
"357 65 OFFCURVE",
"357 142 CURVE SMOOTH",
"357 955 LINE",
"302 955 LINE",
"258 871 OFFCURVE",
"200 835 OFFCURVE",
"80 835 CURVE",
"80 775 LINE",
"246 775 LINE",
"246 142 LINE SMOOTH",
"246 80 OFFCURVE",
"216 64 OFFCURVE",
"94 64 CURVE",
"94 0 LINE"
);
}
);
width = 589;
},
{
layerId = "72F22432-F665-4153-96BB-74D91BCC5F28";
paths = (
{
closed = 1;
nodes = (
"694 0 LINE",
"694 64 LINE",
"572 64 OFFCURVE",
"542 72 OFFCURVE",
"542 152 CURVE SMOOTH",
"542 926 LINE",
"452 926 LINE",
"406 838 OFFCURVE",
"250 776 OFFCURVE",
"80 776 CURVE",
"80 700 LINE",
"246 700 LINE",
"246 152 LINE SMOOTH",
"246 90 OFFCURVE",
"216 64 OFFCURVE",
"94 64 CURVE",
"94 0 LINE"
);
}
);
width = 774;
}
);
leftMetricsKey = one;
rightMetricsKey = one;
},
{
glyphname = two;
lastChange = "2020-10-16 01:17:13 +0000";
layers = (
{
layerId = "14A1E899-FED4-4F52-86F4-A1F822586E10";
paths = (
{
closed = 1;
nodes = (
"888 0 LINE",
"938 376 LINE",
"864 376 LINE",
"834 196 OFFCURVE",
"798 107 OFFCURVE",
"692 107 CURVE SMOOTH",
"227 107 LINE",
"666 623 LINE SMOOTH",
"811 794 OFFCURVE",
"891 913 OFFCURVE",
"891 1090 CURVE SMOOTH",
"891 1313 OFFCURVE",
"724 1424 OFFCURVE",
"516 1424 CURVE SMOOTH",
"273 1424 OFFCURVE",
"126 1249 OFFCURVE",
"74 1142 CURVE",
"139 1108 LINE",
"195 1234 OFFCURVE",
"342 1340 OFFCURVE",
"482 1340 CURVE SMOOTH",
"608 1340 OFFCURVE",
"767 1278 OFFCURVE",
"767 1059 CURVE SMOOTH",
"767 925 OFFCURVE",
"681 764 OFFCURVE",
"575 640 CURVE SMOOTH",
"80 64 LINE",
"80 0 LINE"
);
}
);
width = 1026;
},
{
layerId = "72F22432-F665-4153-96BB-74D91BCC5F28";
paths = (
{
closed = 1;
nodes = (
"898 0 LINE",
"958 396 LINE",
"874 396 LINE",
"844 246 OFFCURVE",
"792 157 OFFCURVE",
"676 157 CURVE SMOOTH",
"291 157 LINE",
"573 483 LINE SMOOTH",
"721 655 OFFCURVE",
"928 897 OFFCURVE",
"928 1088 CURVE SMOOTH",
"928 1331 OFFCURVE",
"734 1424 OFFCURVE",
"526 1424 CURVE SMOOTH",
"273 1424 OFFCURVE",
"136 1249 OFFCURVE",
"74 1142 CURVE",
"149 1098 LINE",
"215 1214 OFFCURVE",
"322 1310 OFFCURVE",
"462 1310 CURVE SMOOTH",
"558 1310 OFFCURVE",
"654 1280 OFFCURVE",
"654 1061 CURVE SMOOTH",
"654 907 OFFCURVE",
"644 732 OFFCURVE",
"477 537 CURVE SMOOTH",
"80 73 LINE",
"80 0 LINE"
);
}
);
width = 1026;
}
);
unicode = 0032;
},
{
glyphname = two.osf;
lastChange = "2020-10-16 00:42:35 +0000";
layers = (
{
layerId = "14A1E899-FED4-4F52-86F4-A1F822586E10";
paths = (
{
closed = 1;
nodes = (
"748 0 LINE",
"798 287 LINE",
"724 287 LINE",
"694 167 OFFCURVE",
"671 108 OFFCURVE",
"585 108 CURVE SMOOTH",
"262 108 LINE",
"451 280 LINE SMOOTH",
"621 434 OFFCURVE",
"746 554 OFFCURVE",
"746 709 CURVE SMOOTH",
"746 852 OFFCURVE",
"634 944 OFFCURVE",
"456 944 CURVE SMOOTH",
"263 944 OFFCURVE",
"136 819 OFFCURVE",
"74 712 CURVE",
"139 678 LINE",
"205 784 OFFCURVE",
"322 860 OFFCURVE",
"422 860 CURVE SMOOTH",
"518 860 OFFCURVE",
"614 829 OFFCURVE",
"614 685 CURVE SMOOTH",
"614 545 OFFCURVE",
"550 467 OFFCURVE",
"429 358 CURVE SMOOTH",
"111 70 LINE",
"111 0 LINE"
);
}
);
width = 886;
},
{
layerId = "72F22432-F665-4153-96BB-74D91BCC5F28";
paths = (
{
closed = 1;
nodes = (
"758 0 LINE",
"798 297 LINE",
"724 297 LINE",
"694 187 OFFCURVE",
"650 144 OFFCURVE",
"534 144 CURVE SMOOTH",
"328 144 LINE",
"468 267 LINE SMOOTH",
"640 418 OFFCURVE",
"776 538 OFFCURVE",
"776 707 CURVE SMOOTH",
"776 850 OFFCURVE",
"644 944 OFFCURVE",
"456 944 CURVE SMOOTH",
"263 944 OFFCURVE",
"136 819 OFFCURVE",
"74 712 CURVE",
"151 675 LINE",
"217 781 OFFCURVE",
"294 830 OFFCURVE",
"392 830 CURVE SMOOTH",
"478 830 OFFCURVE",
"524 759 OFFCURVE",
"524 665 CURVE SMOOTH",
"524 555 OFFCURVE",
"479 412 OFFCURVE",
"369 311 CURVE SMOOTH",
"111 74 LINE",
"111 0 LINE"
);
}
);
width = 866;
}
);
leftMetricsKey = two;
rightMetricsKey = two;
},
{
glyphname = three;
lastChange = "2020-10-16 00:45:49 +0000";
layers = (
{
layerId = "14A1E899-FED4-4F52-86F4-A1F822586E10";
paths = (
{
closed = 1;
nodes = (
"707 -24 OFFCURVE",
"941 100 OFFCURVE",
"941 404 CURVE SMOOTH",
"941 650 OFFCURVE",
"705 767 OFFCURVE",
"575 767 CURVE",
"693 795 OFFCURVE",
"897 911 OFFCURVE",
"897 1094 CURVE SMOOTH",
"897 1317 OFFCURVE",
"741 1422 OFFCURVE",
"532 1422 CURVE SMOOTH",
"294 1422 OFFCURVE",
"157 1251 OFFCURVE",
"103 1142 CURVE",
"169 1107 LINE",
"226 1230 OFFCURVE",
"358 1340 OFFCURVE",
"502 1340 CURVE SMOOTH",
"632 1340 OFFCURVE",
"775 1264 OFFCURVE",
"775 1082 CURVE SMOOTH",
"775 904 OFFCURVE",
"539 789 OFFCURVE",
"405 768 CURVE",
"405 718 LINE",
"625 714 OFFCURVE",
"815 642 OFFCURVE",
"815 376 CURVE SMOOTH",
"815 130 OFFCURVE",
"655 40 OFFCURVE",
"487 40 CURVE SMOOTH",
"297 40 OFFCURVE",
"217 160 OFFCURVE",
"197 402 CURVE",
"140 402 LINE",
"100 158 LINE",
"174 40 OFFCURVE",
"301 -24 OFFCURVE",
"485 -24 CURVE SMOOTH"
);
}
);
width = 1041;
},
{
layerId = "72F22432-F665-4153-96BB-74D91BCC5F28";
paths = (
{
closed = 1;
nodes = (
"707 -24 OFFCURVE",
"991 90 OFFCURVE",
"991 414 CURVE SMOOTH",
"991 660 OFFCURVE",
"755 767 OFFCURVE",
"595 767 CURVE",
"723 795 OFFCURVE",
"947 881 OFFCURVE",
"947 1084 CURVE SMOOTH",
"947 1327 OFFCURVE",
"751 1422 OFFCURVE",
"542 1422 CURVE SMOOTH",
"304 1422 OFFCURVE",
"147 1251 OFFCURVE",
"93 1142 CURVE",
"169 1100 LINE",
"227 1217 OFFCURVE",
"338 1310 OFFCURVE",
"482 1310 CURVE SMOOTH",
"592 1310 OFFCURVE",
"665 1234 OFFCURVE",
"665 1062 CURVE SMOOTH",
"665 884 OFFCURVE",
"539 789 OFFCURVE",
"405 768 CURVE",
"405 718 LINE",
"595 714 OFFCURVE",
"715 621 OFFCURVE",
"715 375 CURVE SMOOTH",
"715 179 OFFCURVE",
"645 50 OFFCURVE",
"487 50 CURVE SMOOTH",
"317 50 OFFCURVE",
"237 180 OFFCURVE",
"217 392 CURVE",
"120 392 LINE",
"80 138 LINE",
"174 30 OFFCURVE",
"291 -24 OFFCURVE",
"485 -24 CURVE SMOOTH"
);
}
);
width = 1041;
}
);
unicode = 0033;
},
{
glyphname = three.osf;
lastChange = "2020-10-16 00:46:12 +0000";
layers = (
{
layerId = "14A1E899-FED4-4F52-86F4-A1F822586E10";
paths = (
{
closed = 1;
nodes = (
"644 -359 OFFCURVE",
"853 -248 OFFCURVE",
"853 25 CURVE SMOOTH",
"853 245 OFFCURVE",
"642 350 OFFCURVE",
"525 350 CURVE",
"631 375 OFFCURVE",
"814 489 OFFCURVE",
"814 653 CURVE SMOOTH",
"814 853 OFFCURVE",
"674 937 OFFCURVE",
"487 937 CURVE SMOOTH",
"273 937 OFFCURVE",
"151 784 OFFCURVE",
"102 686 CURVE",
"165 651 LINE",
"217 761 OFFCURVE",
"334 864 OFFCURVE",
"460 864 CURVE SMOOTH",
"576 864 OFFCURVE",
"696 806 OFFCURVE",
"696 643 CURVE SMOOTH",
"696 484 OFFCURVE",
"493 375 OFFCURVE",
"373 356 CURVE",
"373 306 LINE",
"570 302 OFFCURVE",
"730 239 OFFCURVE",
"730 1 CURVE SMOOTH",
"730 -220 OFFCURVE",
"597 -297 OFFCURVE",
"446 -297 CURVE SMOOTH",
"286 -297 OFFCURVE",
"214 -194 OFFCURVE",
"197 23 CURVE",
"135 23 LINE",
"100 -196 LINE",
"166 -302 OFFCURVE",
"280 -359 OFFCURVE",
"445 -359 CURVE SMOOTH"
);
}
);
width = 953;
},
{
layerId = "72F22432-F665-4153-96BB-74D91BCC5F28";
paths = (
{
closed = 1;
nodes = (
"642 -359 OFFCURVE",
"909 -257 OFFCURVE",
"909 34 CURVE SMOOTH",
"909 255 OFFCURVE",
"707 350 OFFCURVE",
"564 350 CURVE",
"680 366 OFFCURVE",
"870 450 OFFCURVE",
"870 634 CURVE SMOOTH",
"870 864 OFFCURVE",
"683 938 OFFCURVE",
"485 938 CURVE SMOOTH",
"272 938 OFFCURVE",
"140 785 OFFCURVE",
"92 687 CURVE",
"160 649 LINE",
"212 754 OFFCURVE",
"311 837 OFFCURVE",
"440 837 CURVE SMOOTH",
"547 837 OFFCURVE",
"594 779 OFFCURVE",
"594 625 CURVE SMOOTH",
"594 465 OFFCURVE",
"492 370 OFFCURVE",
"371 351 CURVE",
"371 307 LINE",
"522 301 OFFCURVE",
"620 220 OFFCURVE",
"620 -1 CURVE SMOOTH",
"620 -177 OFFCURVE",
"577 -293 OFFCURVE",
"445 -293 CURVE SMOOTH",
"292 -293 OFFCURVE",
"212 -176 OFFCURVE",
"194 14 CURVE",
"116 14 LINE",
"80 -214 LINE",
"164 -311 OFFCURVE",
"269 -359 OFFCURVE",
"443 -359 CURVE SMOOTH"
);
}
);
width = 959;
}
);
leftMetricsKey = three;
rightMetricsKey = three;
},
{
glyphname = four;
lastChange = "2020-10-16 00:43:25 +0000";
layers = (
{
layerId = "14A1E899-FED4-4F52-86F4-A1F822586E10";
paths = (
{
closed = 1;
nodes = (
"846 0 LINE",
"846 64 LINE",
"750 64 OFFCURVE",
"704 69 OFFCURVE",
"704 122 CURVE SMOOTH",
"704 392 LINE",
"872 392 LINE",
"872 478 LINE",
"704 478 LINE",
"704 1400 LINE",
"668 1400 LINE",
"40 470 LINE",
"40 392 LINE",
"590 392 LINE",
"590 122 LINE SMOOTH",
"590 69 OFFCURVE",
"570 64 OFFCURVE",
"448 64 CURVE",
"448 0 LINE"
);
},
{
closed = 1;
nodes = (
"592 1147 LINE",
"592 478 LINE",
"146 478 LINE"
);
}
);
width = 932;
},
{
layerId = "72F22432-F665-4153-96BB-74D91BCC5F28";
paths = (
{
closed = 1;
nodes = (
"1010 0 LINE",
"1010 64 LINE",
"914 64 OFFCURVE",
"868 80 OFFCURVE",
"868 142 CURVE SMOOTH",
"868 382 LINE",
"1036 382 LINE",
"1036 488 LINE",
"868 488 LINE",
"868 1400 LINE",
"692 1400 LINE",
"40 480 LINE",
"40 382 LINE",
"590 382 LINE",
"590 142 LINE SMOOTH",
"590 80 OFFCURVE",
"570 64 OFFCURVE",
"448 64 CURVE",
"448 0 LINE"
);
},
{
closed = 1;
nodes = (
"592 1098 LINE",
"592 488 LINE",
"166 488 LINE"
);
}
);
width = 1096;
}
);
unicode = 0034;
},
{
glyphname = four.osf;
lastChange = "2020-10-16 00:43:30 +0000";
layers = (
{
layerId = "14A1E899-FED4-4F52-86F4-A1F822586E10";
paths = (
{
closed = 1;
nodes = (
"806 -346 LINE",
"806 -282 LINE",
"710 -282 OFFCURVE",
"664 -277 OFFCURVE",
"664 -224 CURVE SMOOTH",
"664 -4 LINE",
"832 -4 LINE",
"832 82 LINE",
"664 82 LINE",
"664 934 LINE",
"628 934 LINE",
"40 74 LINE",
"40 -4 LINE",
"550 -4 LINE",
"550 -224 LINE SMOOTH",
"550 -277 OFFCURVE",
"530 -282 OFFCURVE",
"408 -282 CURVE",
"408 -346 LINE"
);
},
{
closed = 1;
nodes = (
"552 691 LINE",
"552 82 LINE",
"142 82 LINE"
);
}
);
width = 892;
},
{
layerId = "72F22432-F665-4153-96BB-74D91BCC5F28";
paths = (
{
closed = 1;
nodes = (
"960 -346 LINE",
"960 -282 LINE",
"864 -282 OFFCURVE",
"818 -266 OFFCURVE",
"818 -204 CURVE SMOOTH",
"818 -24 LINE",
"986 -24 LINE",
"986 82 LINE",
"818 82 LINE",
"818 934 LINE",
"642 934 LINE",
"40 74 LINE",
"40 -24 LINE",
"540 -24 LINE",
"540 -204 LINE SMOOTH",
"540 -266 OFFCURVE",
"520 -282 OFFCURVE",
"398 -282 CURVE",
"398 -346 LINE"
);
},
{
closed = 1;
nodes = (
"542 632 LINE",
"542 82 LINE",
"166 82 LINE"
);
}
);
width = 1046;
}
);
leftMetricsKey = four;
rightMetricsKey = four;
},
{
glyphname = five;
lastChange = "2020-10-16 00:48:34 +0000";
layers = (
{
layerId = "14A1E899-FED4-4F52-86F4-A1F822586E10";
paths = (
{
closed = 1;
nodes = (
"761 -24 OFFCURVE",
"959 170 OFFCURVE",
"959 476 CURVE SMOOTH",
"959 780 OFFCURVE",
"737 904 OFFCURVE",
"565 904 CURVE SMOOTH",
"405 904 OFFCURVE",
"268 825 OFFCURVE",
"215 747 CURVE",
"286 1294 LINE",
"905 1294 LINE",
"951 1480 LINE",
"885 1480 LINE",
"864 1402 OFFCURVE",
"857 1400 OFFCURVE",
"812 1400 CURVE SMOOTH",
"219 1400 LINE",
"127 664 LINE",
"201 636 LINE",
"305 764 OFFCURVE",
"411 820 OFFCURVE",
"535 820 CURVE SMOOTH",
"685 820 OFFCURVE",
"831 700 OFFCURVE",
"831 436 CURVE SMOOTH",
"831 206 OFFCURVE",
"703 36 OFFCURVE",
"509 36 CURVE SMOOTH",
"319 36 OFFCURVE",
"211 164 OFFCURVE",
"195 402 CURVE",
"137 402 LINE",
"90 154 LINE",
"162 46 OFFCURVE",
"319 -24 OFFCURVE",
"499 -24 CURVE SMOOTH"
);
}
);
width = 1049;
},
{
layerId = "72F22432-F665-4153-96BB-74D91BCC5F28";
paths = (
{
closed = 1;
nodes = (
"794 -24 OFFCURVE",
"1042 140 OFFCURVE",
"1042 466 CURVE SMOOTH",
"1042 790 OFFCURVE",
"810 904 OFFCURVE",
"578 904 CURVE SMOOTH",
"418 904 OFFCURVE",
"328 844 OFFCURVE",
"265 788 CURVE",
"320 1226 LINE",
"980 1226 LINE",
"1034 1480 LINE",
"968 1480 LINE",
"957 1409 OFFCURVE",
"910 1400 OFFCURVE",
"875 1400 CURVE SMOOTH",
"220 1400 LINE",
"130 664 LINE",
"224 636 LINE",
"328 744 OFFCURVE",
"434 760 OFFCURVE",
"518 760 CURVE SMOOTH",
"678 760 OFFCURVE",
"744 570 OFFCURVE",
"744 386 CURVE SMOOTH",
"744 206 OFFCURVE",
"686 46 OFFCURVE",
"542 46 CURVE SMOOTH",
"352 46 OFFCURVE",
"264 184 OFFCURVE",
"238 402 CURVE",
"130 402 LINE",
"90 144 LINE",
"160 35 OFFCURVE",
"362 -24 OFFCURVE",
"522 -24 CURVE SMOOTH"
);
}
);
width = 1082;
}
);
unicode = 0035;
},
{
glyphname = five.osf;
lastChange = "2020-10-16 00:48:32 +0000";
layers = (
{
layerId = "14A1E899-FED4-4F52-86F4-A1F822586E10";
paths = (
{
closed = 1;
nodes = (
"699 -358 OFFCURVE",
"878 -182 OFFCURVE",
"878 95 CURVE SMOOTH",
"878 371 OFFCURVE",
"677 484 OFFCURVE",
"521 484 CURVE SMOOTH",
"376 484 OFFCURVE",
"264 419 OFFCURVE",
"216 358 CURVE",
"276 829 LINE",
"827 829 LINE",
"871 1006 LINE",
"803 1006 LINE",
"784 935 OFFCURVE",
"768 933 OFFCURVE",
"727 933 CURVE SMOOTH",
"207 933 LINE",
"124 266 LINE",
"191 241 LINE",
"285 357 OFFCURVE",
"381 407 OFFCURVE",
"494 407 CURVE SMOOTH",
"630 407 OFFCURVE",
"755 299 OFFCURVE",
"755 59 CURVE SMOOTH",
"755 -149 OFFCURVE",
"646 -300 OFFCURVE",
"470 -300 CURVE SMOOTH",
"298 -300 OFFCURVE",
"208 -188 OFFCURVE",
"193 28 CURVE",
"133 28 LINE",
"90 -197 LINE",
"155 -295 OFFCURVE",
"298 -358 OFFCURVE",
"461 -358 CURVE SMOOTH"
);
}
);
width = 968;
},
{
layerId = "72F22432-F665-4153-96BB-74D91BCC5F28";
paths = (
{
closed = 1;
nodes = (
"724 -357 OFFCURVE",
"956 -210 OFFCURVE",
"956 84 CURVE SMOOTH",
"956 375 OFFCURVE",
"738 477 OFFCURVE",
"529 477 CURVE SMOOTH",
"385 477 OFFCURVE",
"311 424 OFFCURVE",
"254 373 CURVE",
"303 768 LINE",
"887 768 LINE",
"936 996 LINE",
"870 996 LINE",
"860 932 OFFCURVE",
"818 924 OFFCURVE",
"787 924 CURVE SMOOTH",
"207 924 LINE",
"126 262 LINE",
"216 236 LINE",
"311 333 OFFCURVE",
"400 348 OFFCURVE",
"475 348 CURVE SMOOTH",
"620 348 OFFCURVE",
"678 177 OFFCURVE",
"678 11 CURVE SMOOTH",
"678 -150 OFFCURVE",
"626 -295 OFFCURVE",
"496 -295 CURVE SMOOTH",
"325 -295 OFFCURVE",
"253 -170 OFFCURVE",
"229 26 CURVE",
"126 26 LINE",
"90 -206 LINE",
"153 -304 OFFCURVE",
"334 -357 OFFCURVE",
"478 -357 CURVE SMOOTH"
);
}
);
width = 996;
}
);
leftMetricsKey = five;
rightMetricsKey = five;
},
{
glyphname = six;
lastChange = "2020-10-16 00:57:32 +0000";
layers = (
{
layerId = "14A1E899-FED4-4F52-86F4-A1F822586E10";
paths = (
{
closed = 1;
nodes = (
"762 -24 OFFCURVE",
"964 164 OFFCURVE",
"964 472 CURVE SMOOTH",
"964 740 OFFCURVE",
"774 904 OFFCURVE",
"568 904 CURVE SMOOTH",
"412 904 OFFCURVE",
"284 834 OFFCURVE",
"228 746 CURVE",
"306 1104 OFFCURVE",
"508 1265 OFFCURVE",
"782 1363 CURVE",
"770 1415 LINE",
"351 1329 OFFCURVE",
"90 992 OFFCURVE",
"90 576 CURVE SMOOTH",
"90 202 OFFCURVE",
"266 -24 OFFCURVE",
"518 -24 CURVE SMOOTH"
);
},
{
closed = 1;
nodes = (
"332 44 OFFCURVE",
"215 225 OFFCURVE",
"215 573 CURVE SMOOTH",
"215 619 OFFCURVE",
"217 635 OFFCURVE",
"223 658 CURVE",
"303 771 OFFCURVE",
"414 804 OFFCURVE",
"520 804 CURVE SMOOTH",
"714 804 OFFCURVE",
"828 706 OFFCURVE",
"828 432 CURVE SMOOTH",
"828 160 OFFCURVE",
"710 44 OFFCURVE",
"528 44 CURVE SMOOTH"
);
}
);
width = 1054;
},
{
layerId = "72F22432-F665-4153-96BB-74D91BCC5F28";
paths = (
{
closed = 1;
nodes = (
"850 -24 OFFCURVE",
"1072 174 OFFCURVE",
"1072 482 CURVE SMOOTH",
"1072 740 OFFCURVE",
"892 902 OFFCURVE",
"656 902 CURVE SMOOTH",
"520 902 OFFCURVE",
"422 822 OFFCURVE",
"396 766 CURVE",
"456 1104 OFFCURVE",
"574 1245 OFFCURVE",
"848 1343 CURVE",
"828 1415 LINE",
"369 1329 OFFCURVE",
"90 992 OFFCURVE",
"90 576 CURVE SMOOTH",
"90 202 OFFCURVE",
"284 -24 OFFCURVE",
"576 -24 CURVE SMOOTH"
);
},
{
closed = 1;
nodes = (
"430 44 OFFCURVE",
"376 294 OFFCURVE",
"376 573 CURVE SMOOTH",
"376 611 OFFCURVE",
"378 637 OFFCURVE",
"384 660 CURVE",
"434 732 OFFCURVE",
"502 782 OFFCURVE",
"598 782 CURVE SMOOTH",
"742 782 OFFCURVE",
"786 606 OFFCURVE",
"786 422 CURVE SMOOTH",
"786 180 OFFCURVE",
"738 44 OFFCURVE",
"586 44 CURVE SMOOTH"
);
}
);
width = 1162;
}
);
unicode = 0036;
},
{
glyphname = six.osf;
lastChange = "2020-10-16 00:58:05 +0000";
layers = (
{
layerId = "14A1E899-FED4-4F52-86F4-A1F822586E10";
paths = (
{
closed = 1;
nodes = (
"672 -24 OFFCURVE",
"855 137 OFFCURVE",
"855 401 CURVE SMOOTH",
"855 630 OFFCURVE",
"682 771 OFFCURVE",
"506 771 CURVE SMOOTH",
"380 771 OFFCURVE",
"273 711 OFFCURVE",
"225 635 CURVE",
"292 942 OFFCURVE",
"468 1070 OFFCURVE",
"702 1154 CURVE",
"679 1208 LINE",
"330 1124 OFFCURVE",
"90 846 OFFCURVE",
"90 490 CURVE SMOOTH",
"90 170 OFFCURVE",
"248 -24 OFFCURVE",
"463 -24 CURVE SMOOTH"
);
},
{
closed = 1;
nodes = (
"314 34 OFFCURVE",
"214 189 OFFCURVE",
"214 487 CURVE SMOOTH",
"214 527 OFFCURVE",
"216 540 OFFCURVE",
"221 560 CURVE",
"289 657 OFFCURVE",
"374 685 OFFCURVE",
"465 685 CURVE SMOOTH",
"631 685 OFFCURVE",
"719 601 OFFCURVE",
"719 366 CURVE SMOOTH",
"719 134 OFFCURVE",
"618 34 OFFCURVE",
"472 34 CURVE SMOOTH"
);
}
);
width = 945;
},
{
layerId = "72F22432-F665-4153-96BB-74D91BCC5F28";
paths = (
{
closed = 1;
nodes = (
"749 -24 OFFCURVE",
"942 148 OFFCURVE",
"942 415 CURVE SMOOTH",
"942 638 OFFCURVE",
"786 779 OFFCURVE",
"581 779 CURVE SMOOTH",
"463 779 OFFCURVE",
"378 710 OFFCURVE",
"356 661 CURVE",
"408 954 OFFCURVE",
"520 1076 OFFCURVE",
"758 1161 CURVE",
"730 1224 LINE",
"332 1149 OFFCURVE",
"90 857 OFFCURVE",
"90 496 CURVE SMOOTH",
"90 172 OFFCURVE",
"258 -24 OFFCURVE",
"512 -24 CURVE SMOOTH"
);
},
{
closed = 1;
nodes = (
"385 45 OFFCURVE",
"348 252 OFFCURVE",
"348 494 CURVE SMOOTH",
"348 527 OFFCURVE",
"350 539 OFFCURVE",
"355 559 CURVE",
"399 622 OFFCURVE",
"447 665 OFFCURVE",
"531 665 CURVE SMOOTH",
"656 665 OFFCURVE",
"684 522 OFFCURVE",
"684 363 CURVE SMOOTH",
"684 153 OFFCURVE",
"652 45 OFFCURVE",
"520 45 CURVE SMOOTH"
);
}
);
width = 1032;
}
);
leftMetricsKey = six;
rightMetricsKey = six;
},
{
glyphname = seven;
lastChange = "2020-10-16 01:17:29 +0000";
layers = (
{
layerId = "14A1E899-FED4-4F52-86F4-A1F822586E10";
paths = (
{
closed = 1;
nodes = (
"490 0 LINE",
"490 435 OFFCURVE",
"555 1060 OFFCURVE",
"864 1313 CURVE",
"864 1400 LINE",
"130 1400 LINE",
"80 1014 LINE",
"154 1014 LINE",
"183 1154 OFFCURVE",
"217 1295 OFFCURVE",
"333 1295 CURVE SMOOTH",
"768 1295 LINE",
"507 1095 OFFCURVE",
"372 527 OFFCURVE",
"372 0 CURVE"
);
}
);
width = 944;
},
{
layerId = "72F22432-F665-4153-96BB-74D91BCC5F28";
paths = (
{
closed = 1;
nodes = (
"630 0 LINE",
"630 591 OFFCURVE",
"645 1011 OFFCURVE",
"934 1264 CURVE",
"934 1400 LINE",
"130 1400 LINE",
"80 1004 LINE",
"164 1004 LINE",
"191 1154 OFFCURVE",
"237 1246 OFFCURVE",
"363 1246 CURVE SMOOTH",
"788 1246 LINE",
"496 1046 OFFCURVE",
"342 631 OFFCURVE",
"342 0 CURVE"
);
}
);
width = 1014;
}
);
unicode = 0037;
},
{
glyphname = seven.osf;
lastChange = "2020-10-16 01:17:41 +0000";
layers = (
{
layerId = "14A1E899-FED4-4F52-86F4-A1F822586E10";
paths = (
{
closed = 1;
nodes = (
"490 -344 LINE",
"490 91 OFFCURVE",
"535 586 OFFCURVE",
"844 839 CURVE",
"844 926 LINE",
"130 926 LINE",
"80 540 LINE",
"154 540 LINE",
"183 680 OFFCURVE",
"217 821 OFFCURVE",
"333 821 CURVE SMOOTH",
"748 821 LINE",
"487 621 OFFCURVE",
"372 183 OFFCURVE",
"372 -344 CURVE"
);
}
);
width = 924;
},
{
layerId = "72F22432-F665-4153-96BB-74D91BCC5F28";
paths = (
{
closed = 1;
nodes = (
"630 -343 LINE",
"630 248 OFFCURVE",
"645 537 OFFCURVE",
"934 790 CURVE",
"934 926 LINE",
"130 926 LINE",
"80 530 LINE",
"164 530 LINE",
"191 680 OFFCURVE",
"237 772 OFFCURVE",
"363 772 CURVE SMOOTH",
"788 772 LINE",
"496 572 OFFCURVE",
"342 288 OFFCURVE",
"342 -343 CURVE"
);
}
);
width = 1014;
}
);
leftMetricsKey = seven;
rightMetricsKey = seven;
},
{
glyphname = eight;
lastChange = "2020-10-16 01:19:00 +0000";
layers = (
{
layerId = "14A1E899-FED4-4F52-86F4-A1F822586E10";
paths = (
{
closed = 1;
nodes = (
"754 -24 OFFCURVE",
"978 114 OFFCURVE",
"978 382 CURVE SMOOTH",
"978 580 OFFCURVE",
"811 693 OFFCURVE",
"653 763 CURVE",
"803 847 OFFCURVE",
"926 940 OFFCURVE",
"926 1108 CURVE SMOOTH",
"926 1332 OFFCURVE",
"720 1424 OFFCURVE",
"554 1424 CURVE SMOOTH",
"340 1424 OFFCURVE",
"160 1318 OFFCURVE",
"160 1114 CURVE SMOOTH",
"160 927 OFFCURVE",
"285 808 OFFCURVE",
"430 741 CURVE",
"266 701 OFFCURVE",
"98 575 OFFCURVE",
"98 354 CURVE SMOOTH",
"98 94 OFFCURVE",
"320 -24 OFFCURVE",
"526 -24 CURVE SMOOTH"
);
},
{
closed = 1;
nodes = (
"358 42 OFFCURVE",
"204 144 OFFCURVE",
"204 362 CURVE SMOOTH",
"204 558 OFFCURVE",
"342 639 OFFCURVE",
"502 699 CURVE",
"678 619 OFFCURVE",
"868 531 OFFCURVE",
"868 335 CURVE SMOOTH",
"868 121 OFFCURVE",
"704 42 OFFCURVE",
"514 42 CURVE SMOOTH"
);
},
{
closed = 1;
nodes = (
"408 867 OFFCURVE",
"251 961 OFFCURVE",
"251 1132 CURVE SMOOTH",
"251 1282 OFFCURVE",
"391 1354 OFFCURVE",
"527 1354 CURVE SMOOTH",
"667 1354 OFFCURVE",
"812 1294 OFFCURVE",
"812 1108 CURVE SMOOTH",
"812 956 OFFCURVE",
"708 876 OFFCURVE",
"564 800 CURVE"
);
}
);
width = 1088;
},
{
layerId = "72F22432-F665-4153-96BB-74D91BCC5F28";
paths = (
{
closed = 1;
nodes = (
"805 -24 OFFCURVE",
"1029 124 OFFCURVE",
"1029 382 CURVE SMOOTH",
"1029 600 OFFCURVE",
"857 725 OFFCURVE",
"729 785 CURVE",
"879 879 OFFCURVE",
"957 980 OFFCURVE",
"957 1108 CURVE SMOOTH",
"957 1342 OFFCURVE",
"743 1424 OFFCURVE",
"557 1424 CURVE SMOOTH",
"323 1424 OFFCURVE",
"121 1298 OFFCURVE",
"121 1084 CURVE SMOOTH",
"121 877 OFFCURVE",
"243 756 OFFCURVE",
"343 706 CURVE",
"199 656 OFFCURVE",
"80 555 OFFCURVE",
"80 354 CURVE SMOOTH",
"80 94 OFFCURVE",
"311 -24 OFFCURVE",
"537 -24 CURVE SMOOTH"
);
},
{
closed = 1;
nodes = (
"390 52 OFFCURVE",
"290 147 OFFCURVE",
"290 350 CURVE SMOOTH",
"290 486 OFFCURVE",
"344 575 OFFCURVE",
"448 626 CURVE",
"601 556 OFFCURVE",
"774 432 OFFCURVE",
"774 285 CURVE SMOOTH",
"774 125 OFFCURVE",
"667 52 OFFCURVE",
"527 52 CURVE SMOOTH"
);
},
{
closed = 1;
nodes = (
"520 905 OFFCURVE",
"323 1004 OFFCURVE",
"323 1144 CURVE SMOOTH",
"323 1287 OFFCURVE",
"422 1349 OFFCURVE",
"542 1349 CURVE SMOOTH",
"666 1349 OFFCURVE",
"762 1278 OFFCURVE",
"762 1107 CURVE SMOOTH",
"762 983 OFFCURVE",
"716 923 OFFCURVE",
"617 857 CURVE"
);
}
);
width = 1109;
}
);
unicode = 0038;
},
{
glyphname = eight.osf;
lastChange = "2020-11-04 18:46:09 +0000";
layers = (
{
layerId = "14A1E899-FED4-4F52-86F4-A1F822586E10";
paths = (
{
closed = 1;
nodes = (
"661 -24 OFFCURVE",
"854 94 OFFCURVE",
"854 325 CURVE SMOOTH",
"854 495 OFFCURVE",
"710 592 OFFCURVE",
"575 652 CURVE",
"704 724 OFFCURVE",
"809 804 OFFCURVE",
"809 948 CURVE SMOOTH",
"809 1140 OFFCURVE",
"632 1219 OFFCURVE",
"490 1219 CURVE SMOOTH",
"306 1219 OFFCURVE",
"151 1127 OFFCURVE",
"151 952 CURVE SMOOTH",
"151 791 OFFCURVE",
"259 690 OFFCURVE",
"373 633 CURVE",
"242 588 OFFCURVE",
"98 490 OFFCURVE",
"98 301 CURVE SMOOTH",
"98 77 OFFCURVE",
"289 -24 OFFCURVE",
"466 -24 CURVE SMOOTH"
);
},
{
closed = 1;
nodes = (
"321 35 OFFCURVE",
"193 120 OFFCURVE",
"193 307 CURVE SMOOTH",
"193 476 OFFCURVE",
"308 535 OFFCURVE",
"435 597 CURVE",
"586 528 OFFCURVE",
"751 448 OFFCURVE",
"751 284 CURVE SMOOTH",
"751 110 OFFCURVE",
"619 35 OFFCURVE",
"455 35 CURVE SMOOTH"
);
},
{
closed = 1;
nodes = (
"381 741 OFFCURVE",
"238 822 OFFCURVE",
"238 968 CURVE SMOOTH",
"238 1097 OFFCURVE",
"350 1157 OFFCURVE",
"467 1157 CURVE SMOOTH",
"587 1157 OFFCURVE",
"708 1108 OFFCURVE",
"708 948 CURVE SMOOTH",
"708 817 OFFCURVE",
"629 749 OFFCURVE",
"505 683 CURVE"
);
}
);
width = 964;
},
{
layerId = "72F22432-F665-4153-96BB-74D91BCC5F28";
paths = (
{
closed = 1;
nodes = (
"703 -24 OFFCURVE",
"895 103 OFFCURVE",
"895 325 CURVE SMOOTH",
"895 512 OFFCURVE",
"747 620 OFFCURVE",
"637 672 CURVE",
"766 753 OFFCURVE",
"833 838 OFFCURVE",
"833 948 CURVE SMOOTH",
"833 1149 OFFCURVE",
"649 1219 OFFCURVE",
"490 1219 CURVE SMOOTH",
"289 1219 OFFCURVE",
"115 1111 OFFCURVE",
"115 927 CURVE SMOOTH",
"115 750 OFFCURVE",
"227 646 OFFCURVE",
"313 603 CURVE",
"189 560 OFFCURVE",
"80 473 OFFCURVE",
"80 301 CURVE SMOOTH",
"80 77 OFFCURVE",
"278 -24 OFFCURVE",
"472 -24 CURVE SMOOTH"
);
},
{
closed = 1;
nodes = (
"346 41 OFFCURVE",
"260 153 OFFCURVE",
"260 307 CURVE SMOOTH",
"260 424 OFFCURVE",
"307 492 OFFCURVE",
"396 535 CURVE",
"527 475 OFFCURVE",
"666 368 OFFCURVE",
"666 241 CURVE SMOOTH",
"666 104 OFFCURVE",
"584 41 OFFCURVE",
"464 41 CURVE SMOOTH"
);
},
{
closed = 1;
nodes = (
"458 774 OFFCURVE",
"296 862 OFFCURVE",
"296 979 CURVE SMOOTH",
"296 1102 OFFCURVE",
"374 1155 OFFCURVE",
"477 1155 CURVE SMOOTH",
"583 1155 OFFCURVE",
"656 1094 OFFCURVE",
"656 947 CURVE SMOOTH",
"656 841 OFFCURVE",
"626 789 OFFCURVE",
"541 732 CURVE"
);
}
);
width = 975;
}
);
leftMetricsKey = eight;
rightMetricsKey = eight;
},
{
glyphname = nine;
lastChange = "2020-10-16 01:11:13 +0000";
layers = (
{
layerId = "14A1E899-FED4-4F52-86F4-A1F822586E10";
paths = (
{
closed = 1;
nodes = (
"292 1415 OFFCURVE",
"90 1237 OFFCURVE",
"90 929 CURVE SMOOTH",
"90 661 OFFCURVE",
"280 487 OFFCURVE",
"486 487 CURVE SMOOTH",
"642 487 OFFCURVE",
"770 577 OFFCURVE",
"826 665 CURVE",
"748 307 OFFCURVE",
"546 126 OFFCURVE",
"272 28 CURVE",
"284 -24 LINE",
"703 62 OFFCURVE",
"964 419 OFFCURVE",
"964 835 CURVE SMOOTH",
"964 1209 OFFCURVE",
"788 1415 OFFCURVE",
"536 1415 CURVE SMOOTH"
);
},
{
closed = 1;
nodes = (
"722 1347 OFFCURVE",
"839 1186 OFFCURVE",
"839 838 CURVE SMOOTH",
"839 792 OFFCURVE",
"837 776 OFFCURVE",
"831 753 CURVE",
"751 640 OFFCURVE",
"640 587 OFFCURVE",
"534 587 CURVE SMOOTH",
"340 587 OFFCURVE",
"226 695 OFFCURVE",
"226 969 CURVE SMOOTH",
"226 1241 OFFCURVE",
"344 1347 OFFCURVE",
"526 1347 CURVE SMOOTH"
);
}
);
width = 1054;
},
{
layerId = "72F22432-F665-4153-96BB-74D91BCC5F28";
paths = (
{
closed = 1;
nodes = (
"282 1423 OFFCURVE",
"60 1245 OFFCURVE",
"60 937 CURVE SMOOTH",
"60 679 OFFCURVE",
"240 497 OFFCURVE",
"476 497 CURVE SMOOTH",
"612 497 OFFCURVE",
"710 577 OFFCURVE",
"736 633 CURVE",
"676 295 OFFCURVE",
"558 154 OFFCURVE",
"284 56 CURVE",
"304 -16 LINE",
"763 70 OFFCURVE",
"1042 427 OFFCURVE",
"1042 843 CURVE SMOOTH",
"1042 1217 OFFCURVE",
"848 1423 OFFCURVE",
"556 1423 CURVE SMOOTH"
);
},
{
closed = 1;
nodes = (
"702 1355 OFFCURVE",
"756 1105 OFFCURVE",
"756 826 CURVE SMOOTH",
"756 788 OFFCURVE",
"754 762 OFFCURVE",
"748 739 CURVE",
"698 667 OFFCURVE",
"630 617 OFFCURVE",
"534 617 CURVE SMOOTH",
"390 617 OFFCURVE",
"346 793 OFFCURVE",
"346 977 CURVE SMOOTH",
"346 1219 OFFCURVE",
"394 1355 OFFCURVE",
"546 1355 CURVE SMOOTH"
);
}
);
width = 1092;
}
);
unicode = 0039;
},
{
glyphname = nine.osf;
lastChange = "2020-10-16 01:11:15 +0000";
layers = (
{
layerId = "14A1E899-FED4-4F52-86F4-A1F822586E10";
paths = (
{
closed = 1;
nodes = (
"273 926 OFFCURVE",
"90 785 OFFCURVE",
"90 521 CURVE SMOOTH",
"90 292 OFFCURVE",
"263 131 OFFCURVE",
"439 131 CURVE SMOOTH",
"565 131 OFFCURVE",
"672 211 OFFCURVE",
"720 287 CURVE",
"653 -20 OFFCURVE",
"477 -168 OFFCURVE",
"243 -252 CURVE",
"266 -306 LINE",
"615 -222 OFFCURVE",
"855 76 OFFCURVE",
"855 432 CURVE SMOOTH",
"855 752 OFFCURVE",
"697 926 OFFCURVE",
"482 926 CURVE SMOOTH"
);
},
{
closed = 1;
nodes = (
"631 868 OFFCURVE",
"731 733 OFFCURVE",
"731 435 CURVE SMOOTH",
"731 395 OFFCURVE",
"729 382 OFFCURVE",
"724 362 CURVE",
"656 265 OFFCURVE",
"571 217 OFFCURVE",
"480 217 CURVE SMOOTH",
"314 217 OFFCURVE",
"226 321 OFFCURVE",
"226 556 CURVE SMOOTH",
"226 788 OFFCURVE",
"327 868 OFFCURVE",
"473 868 CURVE SMOOTH"
);
}
);
width = 945;
},
{
layerId = "72F22432-F665-4153-96BB-74D91BCC5F28";
paths = (
{
closed = 1;
nodes = (
"253 930 OFFCURVE",
"60 778 OFFCURVE",
"60 511 CURVE SMOOTH",
"60 288 OFFCURVE",
"216 127 OFFCURVE",
"421 127 CURVE SMOOTH",
"539 127 OFFCURVE",
"624 196 OFFCURVE",
"646 245 CURVE",
"594 -48 OFFCURVE",
"482 -170 OFFCURVE",
"244 -255 CURVE",
"272 -318 LINE",
"670 -243 OFFCURVE",
"912 69 OFFCURVE",
"912 430 CURVE SMOOTH",
"912 754 OFFCURVE",
"744 930 OFFCURVE",
"490 930 CURVE SMOOTH"
);
},
{
closed = 1;
nodes = (
"617 861 OFFCURVE",
"654 654 OFFCURVE",
"654 412 CURVE SMOOTH",
"654 379 OFFCURVE",
"652 367 OFFCURVE",
"647 347 CURVE",
"603 284 OFFCURVE",
"555 241 OFFCURVE",
"471 241 CURVE SMOOTH",
"346 241 OFFCURVE",
"318 384 OFFCURVE",
"318 543 CURVE SMOOTH",
"318 753 OFFCURVE",
"350 861 OFFCURVE",
"482 861 CURVE SMOOTH"
);
}
);
width = 962;
}
);
leftMetricsKey = nine;
rightMetricsKey = nine;
},
{
glyphname = period;
lastChange = "2020-10-13 20:08:34 +0000";
layers = (
{
layerId = "14A1E899-FED4-4F52-86F4-A1F822586E10";
paths = (
{
closed = 1;
nodes = (
"199 9 OFFCURVE",
"241 51 OFFCURVE",
"241 104 CURVE SMOOTH",
"241 157 OFFCURVE",
"199 199 OFFCURVE",
"146 199 CURVE SMOOTH",
"93 199 OFFCURVE",
"51 157 OFFCURVE",
"51 104 CURVE SMOOTH",
"51 51 OFFCURVE",
"93 9 OFFCURVE",
"146 9 CURVE SMOOTH"
);
}
);
width = 442;
},
{
layerId = "72F22432-F665-4153-96BB-74D91BCC5F28";
paths = (
{
closed = 1;
nodes = (
"216 -22 OFFCURVE",
"272 34 OFFCURVE",
"272 104 CURVE SMOOTH",
"272 174 OFFCURVE",
"216 230 OFFCURVE",
"146 230 CURVE SMOOTH",
"76 230 OFFCURVE",
"20 174 OFFCURVE",
"20 104 CURVE SMOOTH",
"20 34 OFFCURVE",
"76 -22 OFFCURVE",
"146 -22 CURVE SMOOTH"
);
}
);
width = 442;
}
);
unicode = 002E;
},
{
glyphname = comma;
lastChange = "2020-10-13 20:08:34 +0000";
layers = (
{
layerId = "14A1E899-FED4-4F52-86F4-A1F822586E10";
paths = (
{
closed = 1;
nodes = (
"124 -221 OFFCURVE",
"257 -81 OFFCURVE",
"257 68 CURVE SMOOTH",
"257 146 OFFCURVE",
"211 180 OFFCURVE",
"158 180 CURVE SMOOTH",
"105 180 OFFCURVE",
"58 144 OFFCURVE",
"58 88 CURVE SMOOTH",
"58 33 OFFCURVE",
"87 -4 OFFCURVE",
"143 -4 CURVE SMOOTH",
"162 -4 OFFCURVE",
"183 1 OFFCURVE",
"186 4 CURVE",
"176 -78 OFFCURVE",
"132 -161 OFFCURVE",
"72 -204 CURVE",
"93 -236 LINE"
);
}
);
width = 392;
},
{
layerId = "72F22432-F665-4153-96BB-74D91BCC5F28";
paths = (
{
closed = 1;
nodes = (
"126 -252 OFFCURVE",
"289 -120 OFFCURVE",
"289 78 CURVE SMOOTH",
"289 178 OFFCURVE",
"228 226 OFFCURVE",
"158 226 CURVE SMOOTH",
"88 226 OFFCURVE",
"26 178 OFFCURVE",
"26 104 CURVE SMOOTH",
"26 32 OFFCURVE",
"64 -18 OFFCURVE",
"138 -18 CURVE SMOOTH",
"164 -18 OFFCURVE",
"184 -11 OFFCURVE",
"188 -7 CURVE",
"187 -67 OFFCURVE",
"150 -168 OFFCURVE",
"58 -230 CURVE",
"86 -272 LINE"
);
}
);
width = 392;
}
);
unicode = 002C;
},
{
glyphname = exclam;
lastChange = "2020-10-13 20:08:34 +0000";
layers = (
{
components = (
{
name = period;
transform = "{1, 0, 0, 1, 8, 0}";
}
);
layerId = "14A1E899-FED4-4F52-86F4-A1F822586E10";
paths = (
{
closed = 1;
nodes = (
"176 412 LINE",
"214 1262 LINE",
"214 1400 LINE",
"96 1400 LINE",
"96 1262 LINE",
"132 412 LINE"
);
}
);
width = 380;
},
{
components = (
{
name = period;
transform = "{1, 0, 0, 1, 8, 0}";
}
);
layerId = "72F22432-F665-4153-96BB-74D91BCC5F28";
paths = (
{
closed = 1;
nodes = (
"196 412 LINE",
"244 1262 LINE",
"244 1400 LINE",
"66 1400 LINE",
"66 1262 LINE",
"112 412 LINE"
);
}
);
width = 380;
}
);
unicode = 0021;
},
{
glyphname = question;
lastChange = "2020-10-13 20:08:34 +0000";
layers = (
{
components = (
{
name = period;
transform = "{1, 0, 0, 1, 292, 0}";
}
);
layerId = "14A1E899-FED4-4F52-86F4-A1F822586E10";
paths = (
{
closed = 1;
nodes = (
"468 412 LINE",
"529 598 OFFCURVE",
"832 810 OFFCURVE",
"832 1086 CURVE SMOOTH",
"832 1326 OFFCURVE",
"632 1424 OFFCURVE",
"480 1424 CURVE SMOOTH",
"356 1424 OFFCURVE",
"202 1386 OFFCURVE",
"90 1268 CURVE",
"70 1008 LINE",
"130 1008 LINE",
"174 1250 OFFCURVE",
"259 1346 OFFCURVE",
"432 1346 CURVE SMOOTH",
"580 1346 OFFCURVE",
"696 1240 OFFCURVE",
"696 1076 CURVE SMOOTH",
"696 786 OFFCURVE",
"462 618 OFFCURVE",
"402 412 CURVE"
);
}
);
width = 902;
},
{
components = (
{
name = period;
transform = "{1, 0, 0, 1, 302, 0}";
}
);
layerId = "72F22432-F665-4153-96BB-74D91BCC5F28";
paths = (
{
closed = 1;
nodes = (
"478 412 LINE",
"539 588 OFFCURVE",
"882 810 OFFCURVE",
"882 1086 CURVE SMOOTH",
"882 1326 OFFCURVE",
"682 1424 OFFCURVE",
"490 1424 CURVE SMOOTH",
"366 1424 OFFCURVE",
"222 1396 OFFCURVE",
"100 1278 CURVE",
"70 1008 LINE",
"150 1008 LINE",
"194 1180 OFFCURVE",
"269 1346 OFFCURVE",
"442 1346 CURVE SMOOTH",
"590 1346 OFFCURVE",
"666 1210 OFFCURVE",
"666 1046 CURVE SMOOTH",
"666 766 OFFCURVE",
"462 618 OFFCURVE",
"412 412 CURVE"
);
}
);
width = 952;
}
);
unicode = 003F;
},
{
glyphname = periodcentered;
lastChange = "2020-10-13 20:08:34 +0000";
layers = (
{
layerId = "14A1E899-FED4-4F52-86F4-A1F822586E10";
paths = (
{
closed = 1;
nodes = (
"191 726 OFFCURVE",
"228 763 OFFCURVE",
"228 808 CURVE SMOOTH",
"228 853 OFFCURVE",
"191 890 OFFCURVE",
"146 890 CURVE SMOOTH",
"101 890 OFFCURVE",
"64 853 OFFCURVE",
"64 808 CURVE SMOOTH",
"64 763 OFFCURVE",
"101 726 OFFCURVE",
"146 726 CURVE SMOOTH"
);
}
);
width = 292;
},
{
layerId = "72F22432-F665-4153-96BB-74D91BCC5F28";
paths = (
{
closed = 1;
nodes = (
"206 700 OFFCURVE",
"254 748 OFFCURVE",
"254 808 CURVE SMOOTH",
"254 868 OFFCURVE",
"206 916 OFFCURVE",
"146 916 CURVE SMOOTH",
"86 916 OFFCURVE",
"38 868 OFFCURVE",
"38 808 CURVE SMOOTH",
"38 748 OFFCURVE",
"86 700 OFFCURVE",
"146 700 CURVE SMOOTH"
);
}
);
width = 292;
}
);
unicode = 00B7;
},
{
glyphname = bullet;
lastChange = "2020-10-29 17:13:06 +0000";
layers = (
{
layerId = "14A1E899-FED4-4F52-86F4-A1F822586E10";
paths = (
{
closed = 1;
nodes = (
"286 584 OFFCURVE",
"325 623 OFFCURVE",
"325 672 CURVE SMOOTH",
"325 720 OFFCURVE",
"286 759 OFFCURVE",
"238 759 CURVE SMOOTH",
"189 759 OFFCURVE",
"150 720 OFFCURVE",
"150 672 CURVE SMOOTH",
"150 623 OFFCURVE",
"189 584 OFFCURVE",
"238 584 CURVE SMOOTH"
);
}
);
width = 475;
},
{
layerId = "72F22432-F665-4153-96BB-74D91BCC5F28";
paths = (
{
closed = 1;
nodes = (
"365 485 OFFCURVE",
"441 561 OFFCURVE",
"441 656 CURVE SMOOTH",
"441 750 OFFCURVE",
"365 826 OFFCURVE",
"271 826 CURVE SMOOTH",
"176 826 OFFCURVE",
"100 750 OFFCURVE",
"100 656 CURVE SMOOTH",
"100 561 OFFCURVE",
"176 485 OFFCURVE",
"271 485 CURVE SMOOTH"
);
}
);
width = 541;
}
);
unicode = 2022;
},
{
glyphname = asterisk;
lastChange = "2020-10-29 17:17:32 +0000";
layers = (
{
layerId = "14A1E899-FED4-4F52-86F4-A1F822586E10";
paths = (
{
closed = 1;
nodes = (
"162 977 OFFCURVE",
"265 1059 OFFCURVE",
"325 1112 CURVE",
"351 1127 LINE",
"426 1152 OFFCURVE",
"544 1197 OFFCURVE",
"563 1208 CURVE SMOOTH",
"595 1227 OFFCURVE",
"611 1256 OFFCURVE",
"595 1284 CURVE SMOOTH",
"579 1312 OFFCURVE",
"545 1313 OFFCURVE",
"513 1294 CURVE SMOOTH",
"497 1285 OFFCURVE",
"396 1208 OFFCURVE",
"335 1157 CURVE",
"305 1138 LINE",
"231 1111 OFFCURVE",
"109 1061 OFFCURVE",
"93 1052 CURVE SMOOTH",
"61 1033 OFFCURVE",
"45 1004 OFFCURVE",
"61 976 CURVE SMOOTH",
"77 948 OFFCURVE",
"111 947 OFFCURVE",
"143 966 CURVE SMOOTH"
);
},
{
closed = 1;
nodes = (
"545 947 OFFCURVE",
"579 948 OFFCURVE",
"595 976 CURVE SMOOTH",
"611 1004 OFFCURVE",
"595 1033 OFFCURVE",
"563 1052 CURVE SMOOTH",
"544 1063 OFFCURVE",
"421 1111 OFFCURVE",
"345 1136 CURVE",
"319 1151 LINE",
"260 1204 OFFCURVE",
"162 1283 OFFCURVE",
"143 1294 CURVE SMOOTH",
"111 1313 OFFCURVE",
"77 1312 OFFCURVE",
"61 1284 CURVE SMOOTH",
"45 1256 OFFCURVE",
"61 1227 OFFCURVE",
"93 1208 CURVE SMOOTH",
"109 1199 OFFCURVE",
"226 1150 OFFCURVE",
"301 1123 CURVE",
"333 1106 LINE",
"393 1055 OFFCURVE",
"497 975 OFFCURVE",
"513 966 CURVE SMOOTH"
);
},
{
closed = 1;
nodes = (
"360 822 OFFCURVE",
"378 850 OFFCURVE",
"378 888 CURVE SMOOTH",
"378 910 OFFCURVE",
"358 1040 OFFCURVE",
"342 1118 CURVE",
"342 1148 LINE",
"358 1226 OFFCURVE",
"378 1350 OFFCURVE",
"378 1372 CURVE SMOOTH",
"378 1410 OFFCURVE",
"360 1438 OFFCURVE",
"328 1438 CURVE SMOOTH",
"296 1438 OFFCURVE",
"278 1410 OFFCURVE",
"278 1372 CURVE SMOOTH",
"278 1354 OFFCURVE",
"294 1228 OFFCURVE",
"308 1150 CURVE",
"310 1114 LINE",
"296 1036 OFFCURVE",
"278 906 OFFCURVE",
"278 888 CURVE SMOOTH",
"278 850 OFFCURVE",
"296 822 OFFCURVE",
"328 822 CURVE SMOOTH"
);
}
);
width = 710;
},
{
layerId = "72F22432-F665-4153-96BB-74D91BCC5F28";
paths = (
{
closed = 1;
nodes = (
"209 969 OFFCURVE",
"271 1049 OFFCURVE",
"330 1103 CURVE",
"356 1118 LINE",
"431 1143 OFFCURVE",
"527 1153 OFFCURVE",
"572 1179 CURVE SMOOTH",
"614 1203 OFFCURVE",
"616 1248 OFFCURVE",
"595 1284 CURVE SMOOTH",
"574 1320 OFFCURVE",
"534 1341 OFFCURVE",
"492 1317 CURVE SMOOTH",
"451 1293 OFFCURVE",
"391 1217 OFFCURVE",
"330 1166 CURVE",
"300 1146 LINE",
"226 1119 OFFCURVE",
"125 1105 OFFCURVE",
"84 1081 CURVE SMOOTH",
"42 1057 OFFCURVE",
"40 1012 OFFCURVE",
"61 976 CURVE SMOOTH",
"82 940 OFFCURVE",
"122 919 OFFCURVE",
"164 943 CURVE SMOOTH"
);
},
{
closed = 1;
nodes = (
"534 919 OFFCURVE",
"574 940 OFFCURVE",
"595 976 CURVE SMOOTH",
"616 1012 OFFCURVE",
"614 1057 OFFCURVE",
"572 1081 CURVE SMOOTH",
"527 1107 OFFCURVE",
"426 1121 OFFCURVE",
"350 1145 CURVE",
"324 1160 LINE",
"265 1213 OFFCURVE",
"209 1291 OFFCURVE",
"164 1317 CURVE SMOOTH",
"122 1341 OFFCURVE",
"82 1320 OFFCURVE",
"61 1284 CURVE SMOOTH",
"40 1248 OFFCURVE",
"42 1203 OFFCURVE",
"84 1179 CURVE SMOOTH",
"125 1155 OFFCURVE",
"221 1141 OFFCURVE",
"296 1114 CURVE",
"328 1098 LINE",
"388 1047 OFFCURVE",
"451 967 OFFCURVE",
"492 943 CURVE SMOOTH"
);
},
{
closed = 1;
nodes = (
"370 822 OFFCURVE",
"408 846 OFFCURVE",
"408 894 CURVE SMOOTH",
"408 946 OFFCURVE",
"369 1040 OFFCURVE",
"352 1118 CURVE",
"352 1148 LINE",
"368 1226 OFFCURVE",
"408 1314 OFFCURVE",
"408 1366 CURVE SMOOTH",
"408 1414 OFFCURVE",
"370 1438 OFFCURVE",
"328 1438 CURVE SMOOTH",
"286 1438 OFFCURVE",
"248 1414 OFFCURVE",
"248 1366 CURVE SMOOTH",
"248 1318 OFFCURVE",
"284 1228 OFFCURVE",
"298 1150 CURVE",
"300 1114 LINE",
"286 1036 OFFCURVE",
"248 942 OFFCURVE",
"248 894 CURVE SMOOTH",
"248 846 OFFCURVE",
"286 822 OFFCURVE",
"328 822 CURVE SMOOTH"
);
}
);
width = 710;
}
);
unicode = 002A;
},
{
glyphname = numbersign;
lastChange = "2020-10-29 17:16:14 +0000";
layers = (
{
layerId = "14A1E899-FED4-4F52-86F4-A1F822586E10";
paths = (
{
closed = 1;
nodes = (
"244 0 LINE",
"341 0 LINE",
"606 1400 LINE",
"509 1400 LINE"
);
},
{
closed = 1;
nodes = (
"603 0 LINE",
"700 0 LINE",
"965 1400 LINE",
"868 1400 LINE"
);
},
{
closed = 1;
nodes = (
"169 924 LINE",
"1120 924 LINE",
"1134 998 LINE",
"183 998 LINE"
);
},
{
closed = 1;
nodes = (
"90 408 LINE",
"1041 408 LINE",
"1055 482 LINE",
"104 482 LINE"
);
}
);
width = 1224;
},
{
layerId = "72F22432-F665-4153-96BB-74D91BCC5F28";
paths = (
{
closed = 1;
nodes = (
"186 0 LINE",
"373 0 LINE",
"638 1400 LINE",
"451 1400 LINE"
);
},
{
closed = 1;
nodes = (
"605 0 LINE",
"792 0 LINE",
"1057 1400 LINE",
"870 1400 LINE"
);
},
{
closed = 1;
nodes = (
"131 924 LINE",
"1182 924 LINE",
"1196 998 LINE",
"145 998 LINE"
);
},
{
closed = 1;
nodes = (
"52 408 LINE",
"1103 408 LINE",
"1117 482 LINE",
"66 482 LINE"
);
}
);
width = 1360;
}
);
unicode = 0023;
},
{
glyphname = slash;
lastChange = "2020-10-29 17:17:51 +0000";
layers = (
{
layerId = "14A1E899-FED4-4F52-86F4-A1F822586E10";
paths = (
{
closed = 1;
nodes = (
"129 -179 LINE",
"707 1500 LINE",
"621 1500 LINE",
"40 -179 LINE"
);
}
);
width = 854;
},
{
layerId = "72F22432-F665-4153-96BB-74D91BCC5F28";
paths = (
{
closed = 1;
nodes = (
"189 -179 LINE",
"767 1500 LINE",
"621 1500 LINE",
"40 -179 LINE"
);
}
);
width = 854;
}
);
unicode = 002F;
},
{
glyphname = backslash;
lastChange = "2020-10-29 17:17:56 +0000";
layers = (
{
layerId = "14A1E899-FED4-4F52-86F4-A1F822586E10";
paths = (
{
closed = 1;
nodes = (
"146 1500 LINE",
"60 1500 LINE",
"638 -179 LINE",
"727 -179 LINE"
);
}
);
width = 854;
},
{
layerId = "72F22432-F665-4153-96BB-74D91BCC5F28";
paths = (
{
closed = 1;
nodes = (
"206 1500 LINE",
"60 1500 LINE",
"638 -179 LINE",
"787 -179 LINE"
);
}
);
width = 854;
}
);
unicode = 005C;
},
{
glyphname = parenleft;
lastChange = "2020-10-29 17:19:37 +0000";
layers = (
{
layerId = "14A1E899-FED4-4F52-86F4-A1F822586E10";
paths = (
{
closed = 1;
nodes = (
"610 -429 LINE",
"478 -349 OFFCURVE",
"172 -133 OFFCURVE",
"172 515 CURVE SMOOTH",
"172 1163 OFFCURVE",
"480 1382 OFFCURVE",
"620 1465 CURVE",
"592 1516 LINE",
"506 1479 OFFCURVE",
"60 1221 OFFCURVE",
"60 515 CURVE SMOOTH",
"60 -190 OFFCURVE",
"496 -436 OFFCURVE",
"582 -480 CURVE"
);
}
);
width = 670;
},
{
layerId = "72F22432-F665-4153-96BB-74D91BCC5F28";
paths = (
{
closed = 1;
nodes = (
"630 -429 LINE",
"530 -368 OFFCURVE",
"282 -125 OFFCURVE",
"282 505 CURVE SMOOTH",
"282 1135 OFFCURVE",
"550 1383 OFFCURVE",
"640 1466 CURVE",
"592 1516 LINE",
"506 1479 OFFCURVE",
"60 1194 OFFCURVE",
"60 505 CURVE SMOOTH",
"60 -184 OFFCURVE",
"496 -436 OFFCURVE",
"582 -480 CURVE"
);
}
);
width = 670;
}
);
unicode = 0028;
},
{
glyphname = parenright;
lastChange = "2020-10-29 17:19:45 +0000";
layers = (
{
layerId = "14A1E899-FED4-4F52-86F4-A1F822586E10";
paths = (
{
closed = 1;
nodes = (
"184 -436 OFFCURVE",
"620 -190 OFFCURVE",
"620 515 CURVE SMOOTH",
"620 1221 OFFCURVE",
"174 1479 OFFCURVE",
"88 1516 CURVE",
"60 1465 LINE",
"200 1382 OFFCURVE",
"508 1163 OFFCURVE",
"508 515 CURVE SMOOTH",
"508 -133 OFFCURVE",
"202 -349 OFFCURVE",
"70 -429 CURVE",
"98 -480 LINE"
);
}
);
width = 670;
},
{
layerId = "72F22432-F665-4153-96BB-74D91BCC5F28";
paths = (
{
closed = 1;
nodes = (
"184 -436 OFFCURVE",
"620 -184 OFFCURVE",
"620 505 CURVE SMOOTH",
"620 1194 OFFCURVE",
"174 1479 OFFCURVE",
"88 1516 CURVE",
"40 1466 LINE",
"130 1383 OFFCURVE",
"398 1135 OFFCURVE",
"398 505 CURVE SMOOTH",
"398 -125 OFFCURVE",
"150 -368 OFFCURVE",
"50 -429 CURVE",
"98 -480 LINE"
);
}
);
width = 670;
}
);
unicode = 0029;
},
{
glyphname = braceleft;
lastChange = "2020-10-29 17:23:44 +0000";
layers = (
{
layerId = "14A1E899-FED4-4F52-86F4-A1F822586E10";
paths = (
{
closed = 1;
nodes = (
"552 -418 LINE",
"488 -413 OFFCURVE",
"288 -334 OFFCURVE",
"288 -19 CURVE SMOOTH",
"288 76 OFFCURVE",
"314 184 OFFCURVE",
"314 262 CURVE SMOOTH",
"314 353 OFFCURVE",
"296 487 OFFCURVE",
"204 513 CURVE",
"296 539 OFFCURVE",
"314 673 OFFCURVE",
"314 763 CURVE SMOOTH",
"314 833 OFFCURVE",
"288 964 OFFCURVE",
"288 1044 CURVE SMOOTH",
"288 1395 OFFCURVE",
"490 1439 OFFCURVE",
"552 1444 CURVE",
"552 1502 LINE",
"476 1493 OFFCURVE",
"194 1437 OFFCURVE",
"194 1046 CURVE SMOOTH",
"194 927 OFFCURVE",
"221 819 OFFCURVE",
"221 709 CURVE SMOOTH",
"221 612 OFFCURVE",
"202 554 OFFCURVE",
"134 541 CURVE",
"134 484 LINE",
"206 471 OFFCURVE",
"221 415 OFFCURVE",
"221 316 CURVE SMOOTH",
"221 195 OFFCURVE",
"194 87 OFFCURVE",
"194 -23 CURVE SMOOTH",
"194 -412 OFFCURVE",
"490 -468 OFFCURVE",
"552 -477 CURVE"
);
}
);
width = 628;
},
{
layerId = "72F22432-F665-4153-96BB-74D91BCC5F28";
paths = (
{
closed = 1;
nodes = (
"562 -398 LINE",
"498 -390 OFFCURVE",
"392 -354 OFFCURVE",
"392 -19 CURVE SMOOTH",
"392 76 OFFCURVE",
"408 154 OFFCURVE",
"408 232 CURVE SMOOTH",
"408 353 OFFCURVE",
"382 467 OFFCURVE",
"270 513 CURVE",
"382 559 OFFCURVE",
"408 673 OFFCURVE",
"408 793 CURVE SMOOTH",
"408 863 OFFCURVE",
"392 964 OFFCURVE",
"392 1044 CURVE SMOOTH",
"392 1395 OFFCURVE",
"500 1417 OFFCURVE",
"562 1424 CURVE",
"562 1502 LINE",
"486 1493 OFFCURVE",
"186 1437 OFFCURVE",
"186 1046 CURVE SMOOTH",
"186 927 OFFCURVE",
"236 819 OFFCURVE",
"236 709 CURVE SMOOTH",
"236 612 OFFCURVE",
"202 564 OFFCURVE",
"134 551 CURVE",
"134 474 LINE",
"206 461 OFFCURVE",
"236 415 OFFCURVE",
"236 316 CURVE SMOOTH",
"236 195 OFFCURVE",
"186 87 OFFCURVE",
"186 -23 CURVE SMOOTH",
"186 -412 OFFCURVE",
"500 -468 OFFCURVE",
"562 -477 CURVE"
);
}
);
width = 628;
}
);
unicode = 007B;
},
